<?xml version="1.0" encoding="UTF-8"?>
<svg width="1115.8" height="518.06" viewBox="0 0 1115.8 518.06" xmlns="http://www.w3.org/2000/svg" xmlns:xlink="http://www.w3.org/1999/xlink">
 <defs>
  <g id="ef">
   <path d="m10.047-0.6875v-8.5625c0-0.45312-0.09375-0.6875-0.6875-0.6875h-0.73438c-0.53125 0-0.6875 0.1875-0.6875 0.6875v3.4062h-4.5312v-3.4062c0-0.45312-0.09375-0.6875-0.6875-0.6875h-0.73438c-0.51562 0-0.6875 0.15625-0.6875 0.6875v8.5625c0 0.51562 0.15625 0.6875 0.6875 0.6875h0.73438c0.54688 0 0.6875-0.1875 0.6875-0.6875v-3.8125h4.5312v3.8125c0 0.45312 0.10938 0.6875 0.6875 0.6875h0.73438c0.54688 0 0.6875-0.1875 0.6875-0.6875z"/>
  </g>
  <g id="cc">
   <path d="m7.4062-3.2188c0-2.3438-1.1406-3.5781-3.4688-3.5781-2.3906 0-3.5 1.2656-3.5 3.5781 0 2.3281 1.2344 3.375 3.4844 3.375s3.4844-1.0312 3.4844-3.375zm-1.9375-0.17188c0 1.125 0 2.4375-1.5312 2.4375-1.5469 0-1.5469-1.2969-1.5469-2.4375 0-1.1094 0-2.375 1.5312-2.375 1.5469 0 1.5469 1.25 1.5469 2.375z"/>
  </g>
  <g id="cb">
   <path d="m10.297-6.1562c-0.046875-0.40625-0.3125-0.40625-0.75-0.40625-0.67188 0-0.84375 0.046875-1.0469 0.79688l-1.1562 4.1406-1.2188-4.2812c-0.078125-0.3125-0.1875-0.65625-0.84375-0.65625-0.21875 0-0.54688 0-0.75 0.34375-0.125 0.20312-0.75 2.6875-1.25 4.3594l-1.1562-4.0469c-0.14062-0.48438-0.29688-0.65625-0.875-0.65625h-0.29688c-0.26562 0-0.5625 0-0.60938 0.40625l1.5156 5.5c0.1875 0.65625 0.5625 0.65625 0.92188 0.65625h0.39062c0.67188 0 0.79688-0.21875 0.95312-0.78125 0.32812-1.1875 0.84375-3 0.90625-3.7344v-0.015625c0.09375 0.8125 0.71875 3.0781 0.90625 3.75 0.15625 0.51562 0.23438 0.78125 0.95312 0.78125h0.96875c0.60938 0 0.75-0.17188 0.90625-0.65625z"/>
  </g>
  <g id="ee">
   <path d="m6.7812-0.6875v-3.8281c0-2.2656-2.1719-2.2812-2.8906-2.2812-0.67188 0-1.3906 0.0625-2.3438 0.45312-0.29688 0.125-0.375 0.17188-0.375 0.32812 0 0.10938 0.09375 0.9375 0.10938 1.0469 0 0.09375 0.078125 0.15625 0.17188 0.15625 0.078125 0 0.125-0.046875 0.17188-0.078125 0.60938-0.64062 1.3281-0.96875 2.2031-0.96875 0.78125 0 1.0156 0.48438 1.0156 1.3281v0.5c-0.5 0-4.25 0.03125-4.25 2.125 0 1 0.79688 2.0625 2.0469 2.0625 0.5 0 1.5625-0.14062 2.2344-1.125v0.28125c0 0.45312 0.10938 0.6875 0.6875 0.6875h0.53125c0.54688 0 0.6875-0.1875 0.6875-0.6875zm-1.9375-1.5156c0 1.3281-1.3594 1.3281-1.4062 1.3281-0.60938 0-0.98438-0.51562-0.98438-1.0625 0-1.3906 1.9844-1.5 2.3906-1.5156z"/>
  </g>
  <g id="ca">
   <path d="m5.0938-5.6562v-0.67188c0-0.28125 0-0.39062-0.25-0.39062-0.40625 0-1.4531 0.15625-2.125 1.6875h-0.015625v-0.92188c0-0.45312-0.09375-0.6875-0.6875-0.6875h-0.45312c-0.51562 0-0.6875 0.15625-0.6875 0.6875v5.2656c0 0.51562 0.15625 0.6875 0.6875 0.6875h0.53125c0.54688 0 0.6875-0.1875 0.6875-0.6875v-2.6094c0-1.3594 1.125-1.9062 2.0312-1.9688 0.25-0.015625 0.28125-0.015625 0.28125-0.39062z"/>
  </g>
  <g id="ed">
   <path d="m7.1562-0.6875v-5.1875c0-0.45312-0.09375-0.6875-0.6875-0.6875h-0.57812c-0.53125 0-0.6875 0.1875-0.6875 0.6875v3.4062c0 0.9375-0.5 1.75-1.5156 1.75-0.79688 0-0.875-0.20312-0.875-0.95312v-4.2031c0-0.45312-0.10938-0.6875-0.6875-0.6875h-0.57812c-0.51562 0-0.6875 0.17188-0.6875 0.6875v4.0781c0 1.5312 0.82812 1.9531 2.3125 1.9531 0.39062 0 1.4062 0 2.0781-1.2188v0.375c0 0.45312 0.10938 0.6875 0.6875 0.6875h0.53125c0.54688 0 0.6875-0.1875 0.6875-0.6875z"/>
  </g>
  <g id="ec">
   <path d="m7.1562-0.6875v-3.9688c0-1.4688-0.625-2.0625-2.0938-2.0625-1.5 0-2.1406 1.0938-2.3281 1.4844h-0.015625v-0.71875c0-0.45312-0.09375-0.6875-0.6875-0.6875h-0.48438c-0.51562 0-0.6875 0.15625-0.6875 0.6875v5.2656c0 0.51562 0.15625 0.6875 0.6875 0.6875h0.57812c0.53125 0 0.6875-0.1875 0.6875-0.6875v-3.1562c0-1.25 0.82812-1.8438 1.5625-1.8438 0.6875 0 0.82812 0.32812 0.82812 1.0625v3.9375c0 0.45312 0.10938 0.6875 0.6875 0.6875h0.57812c0.54688 0 0.6875-0.1875 0.6875-0.6875z"/>
  </g>
  <g id="eb">
   <path d="m7.1094-0.3125s0-0.125-0.14062-0.3125l-2.4844-3.2656 2.2031-2.0469c0.17188-0.15625 0.21875-0.20312 0.21875-0.3125 0-0.3125-0.29688-0.3125-0.5-0.3125h-0.82812c-0.25 0-0.53125 0-0.85938 0.3125l-2.0625 1.9062v-4.9062c0-0.45312-0.09375-0.6875-0.6875-0.6875h-0.29688c-0.51562 0-0.6875 0.15625-0.6875 0.6875v8.5625c0 0.51562 0.15625 0.6875 0.6875 0.6875h0.26562c0.53125 0 0.6875-0.1875 0.6875-0.6875v-1.4844c0.21875-0.20312 0.4375-0.42188 0.67188-0.625l1.8594 2.4375c0.23438 0.3125 0.34375 0.35938 0.75 0.35938h0.6875c0.20312 0 0.51562 0 0.51562-0.3125z"/>
  </g>
  <g id="ea">
   <path d="m5.6719-2.0156c0-0.79688-0.4375-1.3125-0.6875-1.5312-0.57812-0.51562-1.0781-0.60938-1.6719-0.71875-0.79688-0.14062-1.3594-0.25-1.3594-0.8125 0-0.59375 0.46875-0.70312 1.0312-0.70312 0.95312 0 1.4688 0.35938 1.8438 0.67188 0.14062 0.14062 0.17188 0.14062 0.21875 0.14062 0.15625 0 0.17188-0.125 0.1875-0.1875 0.03125-0.10938 0.17188-0.90625 0.17188-0.98438 0-0.23438-0.75-0.42188-0.90625-0.48438-0.57812-0.15625-1.0312-0.17188-1.4062-0.17188-0.64062 0-2.5625 0-2.5625 2.0469 0 0.70312 0.3125 1.125 0.70312 1.4688 0.5 0.46875 1.0625 0.5625 1.875 0.71875 0.40625 0.078125 1.1406 0.20312 1.1406 0.82812 0 0.67188-0.5625 0.78125-1.1094 0.78125-0.64062 0-1.4375-0.1875-2.1094-1-0.078125-0.0625-0.10938-0.10938-0.20312-0.10938-0.14062 0-0.17188 0.125-0.1875 0.21875-0.03125 0.20312-0.20312 1.0156-0.20312 1.1562 0 0.26562 1.0781 0.60938 1.0781 0.60938 0.78125 0.23438 1.375 0.23438 1.625 0.23438 0.71875 0 2.5312-0.0625 2.5312-2.1719z"/>
  </g>
  <g id="dz">
   <path d="m3.1875-5.5781v-0.64062c-0.10938-0.015625-0.39062-0.09375-0.73438-0.09375-0.875 0-1.5312 0.65625-1.5312 1.5469v0.79688h-0.67188v0.54688h0.67188v3.4219h0.71875v-3.4219h0.98438v-0.54688h-1.0156v-1.0469c0-0.64062 0.57812-0.71875 0.82812-0.71875 0.09375 0 0.375 0 0.75 0.15625z"/>
  </g>
  <g id="ac">
   <path d="m4.3281-1.9688c0-1.1719-0.90625-2.1562-2.0312-2.1562-1.1094 0-2.0312 0.96875-2.0312 2.1562s0.9375 2.0625 2.0312 2.0625c1.1094 0 2.0312-0.90625 2.0312-2.0625zm-0.75-0.09375c0 1.0469-0.625 1.5469-1.2812 1.5469-0.6875 0-1.2812-0.53125-1.2812-1.5469 0-1.0469 0.67188-1.4844 1.2812-1.4844 0.64062 0 1.2812 0.45312 1.2812 1.4844z"/>
  </g>
  <g id="ai">
   <path d="m4.0156 0v-3.9688h-0.73438v2.5781c0 0.71875-0.5625 0.95312-1.1094 0.95312-0.64062 0-0.70312-0.20312-0.70312-0.57812v-2.9531h-0.75v3c0 0.75 0.3125 1.0625 0.95312 1.0625 0.51562 0 1.2188-0.14062 1.625-0.53125v0.4375z"/>
  </g>
  <g id="aa">
   <path d="m3.0156-3.4219v-0.65625c-0.65625 0.015625-1.25 0.32812-1.6094 0.85938v-0.8125h-0.65625v4.0312h0.70312v-1.9062c0-0.9375 0.73438-1.5156 1.5625-1.5156z"/>
  </g>
  <g id="q">
   <path d="m4.4219-2c0-1.0781-0.5625-2.0781-1.4375-2.0781-0.25 0-0.90625 0.046875-1.5312 0.53125v-0.42188h-0.70312v5.7031h0.73438v-2.1406c0.32812 0.3125 0.78125 0.5 1.25 0.5 0.90625 0 1.6875-0.875 1.6875-2.0938zm-0.73438 0.015625c0 0.85938-0.64062 1.5-1.3281 1.5-0.29688 0-0.60938-0.10938-0.875-0.54688v-1.9375c0.125-0.17188 0.45312-0.5 0.95312-0.5 0.67188 0 1.25 0.64062 1.25 1.4844z"/>
  </g>
  <g id="by">
   <path d="m1.4531 0v-3.9688h-0.71875v3.9688zm0.078125-5.0469v-0.85938h-0.85938v0.85938z"/>
  </g>
  <g id="h">
   <path d="m3.8281-1.9531c0-0.28125-0.015625-0.96875-0.35938-1.5-0.375-0.5625-0.95312-0.67188-1.2969-0.67188-1.0312 0-1.8594 0.95312-1.8594 2.1094 0 1.1719 0.875 2.1094 2 2.1094 0.42188 0 0.95312-0.10938 1.4688-0.4375l-0.0625-0.60938c-0.5625 0.39062-1.0938 0.46875-1.4062 0.46875-0.73438 0-1.3125-0.65625-1.3438-1.4688zm-0.54688-0.53125h-2.25c0.14062-0.57812 0.57812-1.0625 1.1406-1.0625 0.32812 0 0.9375 0.15625 1.1094 1.0625z"/>
  </g>
  <g id="ah">
   <path d="m3.8281-0.32812-0.0625-0.64062c-0.42188 0.29688-0.90625 0.45312-1.4375 0.45312-0.76562 0-1.2656-0.625-1.2656-1.4844 0-0.6875 0.34375-1.5156 1.2969-1.5156 0.5625 0 0.85938 0.10938 1.2969 0.40625l0.125-0.625c-0.5-0.28125-0.78125-0.39062-1.4219-0.39062-1.2812 0-2.0312 1.0781-2.0312 2.1406 0 1.1094 0.82812 2.0781 1.9844 2.0781 0.64062 0 1.1094-0.1875 1.5156-0.42188z"/>
  </g>
  <g id="bx">
   <path d="m3.3125-1.1562c0-0.3125-0.125-0.625-0.4375-0.89062s-0.57812-0.3125-1.125-0.42188c-0.32812-0.0625-0.78125-0.14062-0.78125-0.5625 0-0.53125 0.64062-0.53125 0.78125-0.53125 0.65625 0 1.0312 0.20312 1.2969 0.34375l0.10938-0.625c-0.54688-0.25-0.96875-0.28125-1.3281-0.28125-0.20312 0-1.5312 0-1.5312 1.1719 0 0.4375 0.26562 0.70312 0.35938 0.79688 0.34375 0.29688 0.57812 0.34375 1.1875 0.46875 0.28125 0.046875 0.79688 0.14062 0.79688 0.60938 0 0.57812-0.71875 0.57812-0.84375 0.57812-0.53125 0-1.0312-0.1875-1.4219-0.45312l-0.10938 0.65625c0.53125 0.28125 1.0781 0.39062 1.5312 0.39062 0.57812 0 1.5156-0.1875 1.5156-1.25z"/>
  </g>
  <g id="o">
   <path d="m4.0156 0v-2.6562c0-0.67188-0.17188-1.4219-1.2656-1.4219-0.70312 0-1.125 0.42188-1.3281 0.6875v-0.64062h-0.70312v4.0312h0.75v-2.1875c0-0.59375 0.23438-1.2969 0.90625-1.2969 0.90625 0 0.90625 0.625 0.90625 0.89062v2.5938z"/>
  </g>
  <g id="bz">
   <path d="m4.2031-5.4531v-0.76562h-0.76562v0.76562zm-0.015625 5.4531v-3.9688h-0.71875v3.9688zm-1.4688-3.4219v-0.54688h-1.1094v-1.0625c0-0.57812 0.32812-0.70312 0.54688-0.70312 0.15625 0 0.375 0.046875 0.5625 0.17188v-0.65625c-0.078125-0.015625-0.29688-0.09375-0.5625-0.09375-0.67188 0-1.2344 0.64062-1.2344 1.5469v0.79688h-0.67188v0.54688h0.67188v3.4219h0.71875v-3.4219z"/>
  </g>
  <g id="dy">
   <path d="m4.2344 0-1.8281-2.0469 1.6719-1.9219h-0.78125l-1.2031 1.4531-1.2656-1.4531h-0.78125l1.7344 1.9219-1.7812 2.0469h0.78125l1.3125-1.6719 1.3594 1.6719z"/>
  </g>
  <g id="r">
   <path d="m4 0v-6.2188h-0.71875v2.6406c-0.5-0.42188-1.0625-0.5-1.3594-0.5-0.90625 0-1.5938 0.9375-1.5938 2.0938s0.6875 2.0781 1.5625 2.0781c0.26562 0 0.82812-0.0625 1.375-0.5625v0.46875zm-0.73438-1.2656c0 0.17188 0 0.1875-0.10938 0.3125-0.23438 0.32812-0.54688 0.46875-0.85938 0.46875-0.59375 0-1.2344-0.42188-1.2344-1.5 0-1.1406 0.76562-1.5 1.3281-1.5 0.40625 0 0.70312 0.21875 0.875 0.45312z"/>
  </g>
  <g id="dx">
   <path d="m4.4688-3.4688-0.10938-0.60938c-0.17188 0-0.76562 0-1.4375 0.29688-0.125-0.10938-0.45312-0.29688-0.875-0.29688-0.82812 0-1.4844 0.67188-1.4844 1.4688 0 0.21875 0.0625 0.54688 0.3125 0.90625-0.17188 0.21875-0.26562 0.48438-0.26562 0.73438s0.09375 0.5 0.21875 0.67188c-0.46875 0.29688-0.5625 0.6875-0.5625 0.9375 0 0.65625 0.875 1.2031 2.0312 1.2031s2.0312-0.54688 2.0312-1.2188c0-1.25-1.4844-1.2656-1.875-1.2656h-0.82812c-0.10938 0-0.51562 0-0.51562-0.45312 0-0.1875 0.03125-0.23438 0.078125-0.3125 0.25 0.15625 0.54688 0.26562 0.85938 0.26562 0.8125 0 1.4688-0.67188 1.4688-1.4688 0-0.29688-0.09375-0.54688-0.23438-0.79688-0.03125-0.046875-0.03125-0.0625-0.03125-0.0625 0-0.046875 0.4375-0.046875 0.5625-0.046875 0.0625 0 0.39062 0 0.65625 0.046875zm-1.6094 0.85938c0 0.71875-0.45312 0.92188-0.8125 0.92188-0.42188 0-0.8125-0.25-0.8125-0.92188 0-0.71875 0.45312-0.92188 0.8125-0.92188 0.40625 0 0.8125 0.25 0.8125 0.92188zm0.8125 3.25c0 0.39062-0.65625 0.67188-1.375 0.67188-0.6875 0-1.375-0.26562-1.375-0.6875 0 0 0-0.57812 0.6875-0.57812h0.84375c0.1875 0 1.2188 0 1.2188 0.59375z"/>
  </g>
  <g id="av">
   <path d="m3.7812 0v-2.5938c0-0.875-0.65625-1.5312-1.5469-1.5312-0.57812 0-1 0.15625-1.4375 0.39062l0.046875 0.64062c0.45312-0.32812 0.89062-0.46875 1.3906-0.46875s0.79688 0.40625 0.79688 0.98438v0.375c-1.5312 0.03125-2.5469 0.4375-2.5469 1.1719 0 0.40625 0.28125 1.125 1.0625 1.125 0.17188 0 0.95312-0.015625 1.5156-0.4375v0.34375zm-0.75-1.25c0 0.1875 0 0.40625-0.3125 0.59375-0.23438 0.14062-0.53125 0.17188-0.70312 0.17188-0.45312 0-0.84375-0.21875-0.84375-0.57812 0-0.625 1.75-0.65625 1.8594-0.65625z"/>
  </g>
  <g id="dw">
   <path d="m1.4531 0v-6.2188h-0.71875v6.2188z"/>
  </g>
  <g id="dv">
   <path d="m4.1094-3.9688h-0.70312c-0.6875 1.625-1.1719 2.8125-1.2188 3.4375-0.03125-0.40625-0.40625-1.3281-0.51562-1.5938-0.35938-0.90625-0.51562-1.2188-0.79688-1.8438h-0.75l1.7969 3.9688-0.34375 0.79688c-0.21875 0.5-0.39062 0.5-0.51562 0.5-0.15625 0-0.46875-0.03125-0.73438-0.15625l0.0625 0.625c0.015625 0 0.35938 0.0625 0.65625 0.0625 0.25 0 0.625 0 1.0781-1.0625z"/>
  </g>
  <g id="au">
   <path d="m3.7031 0v-0.59375h-1.3438c-0.10938 0-0.21875 0.015625-0.32812 0.015625h-0.75l2.3906-3.0312v-0.35938h-3.2812v0.5625h1.25c0.10938 0 0.21875-0.015625 0.32812-0.015625h0.6875l-2.3906 3.0312v0.39062z"/>
  </g>
  <g id="at">
   <path d="m2.5469-1.7031v-0.5625h-2.4531v0.5625z"/>
  </g>
  <g id="as">
   <path d="m3.0625-0.23438-0.15625-0.5625c-0.23438 0.17188-0.54688 0.28125-0.8125 0.28125-0.35938 0-0.46875-0.3125-0.46875-0.78125v-2.125h1.2812v-0.54688h-1.2812v-1.1406h-0.67188v1.1406h-0.78125v0.54688h0.76562v2.2969c0 0.53125 0.10938 1.2188 0.76562 1.2188 0.39062 0 0.85938-0.078125 1.3594-0.32812z"/>
  </g>
  <g id="ab">
   <path d="m1.6562 0v-0.76562h-0.76562v0.76562z"/>
  </g>
  <g id="du">
   <path d="m4.4219-2c0-1.0781-0.59375-2.0781-1.4688-2.0781-0.23438 0-0.89062 0.046875-1.5 0.53125v-2.6719h-0.70312v6.2188h0.73438v-0.42188c0.125 0.125 0.57812 0.51562 1.2344 0.51562 0.9375 0 1.7031-0.90625 1.7031-2.0938zm-0.73438 0c0 1.1562-0.78125 1.5156-1.3281 1.5156-0.5625 0-0.82812-0.46875-0.875-0.54688v-1.9531c0.14062-0.1875 0.45312-0.5 0.96875-0.5 0.53125 0 1.2344 0.375 1.2344 1.4844z"/>
  </g>
  <g id="bw">
   <path d="m8.6719-2.2344c0-0.046875-0.03125-0.09375-0.078125-0.10938-0.96875-0.3125-1.7031-1.1406-1.8906-2.1562 0-0.046875-0.046875-0.078125-0.10938-0.078125h-0.15625c-0.046875 0-0.10938 0.03125-0.10938 0.125 0.15625 0.8125 0.625 1.5469 1.2969 2.0312h-6.9219c-0.125 0-0.1875 0.078125-0.1875 0.1875 0 0.09375 0.0625 0.1875 0.1875 0.1875h6.9219c-0.67188 0.48438-1.1406 1.2031-1.2969 2.0312 0 0.078125 0.0625 0.125 0.10938 0.125h0.15625c0.0625 0 0.10938-0.03125 0.10938-0.09375 0.1875-1.0156 0.92188-1.8281 1.8906-2.1406 0.046875-0.03125 0.078125-0.0625 0.078125-0.10938z"/>
  </g>
  <g id="bv">
   <path d="m1.9219-0.48438v-3.5938c0-0.3125-0.0625-0.46875-0.46875-0.46875h-0.375c-0.35938 0-0.46875 0.10938-0.46875 0.46875v3.5938c0 0.35938 0.10938 0.48438 0.46875 0.48438h0.375c0.375 0 0.46875-0.125 0.46875-0.48438zm0.078125-5.5312v-0.20312c0-0.3125-0.078125-0.46875-0.48438-0.46875h-0.5c-0.375 0-0.48438 0.125-0.48438 0.46875v0.20312c0 0.28125 0.0625 0.46875 0.48438 0.46875h0.5c0.42188 0 0.48438-0.17188 0.48438-0.46875z"/>
  </g>
  <g id="z">
   <path d="m4.9688-0.48438v-2.75c0-1.0156-0.4375-1.4219-1.4531-1.4219-1.0469 0-1.4844 0.75-1.625 1.0156v-0.5c0-0.3125-0.078125-0.46875-0.48438-0.46875h-0.32812c-0.35938 0-0.48438 0.10938-0.48438 0.46875v3.6562c0 0.35938 0.10938 0.48438 0.48438 0.48438h0.39062c0.375 0 0.48438-0.125 0.48438-0.48438v-2.1875c0-0.85938 0.57812-1.2656 1.0938-1.2656 0.46875 0 0.57812 0.21875 0.57812 0.73438v2.7188c0 0.32812 0.0625 0.48438 0.46875 0.48438h0.39062c0.39062 0 0.48438-0.125 0.48438-0.48438z"/>
  </g>
  <g id="br">
   <path d="m3.9375-1.4062c0-0.54688-0.29688-0.90625-0.48438-1.0625-0.39062-0.35938-0.73438-0.40625-1.1562-0.5-0.54688-0.09375-0.95312-0.17188-0.95312-0.5625 0-0.40625 0.32812-0.48438 0.71875-0.48438 0.67188 0 1.0312 0.25 1.2812 0.46875 0.10938 0.09375 0.125 0.09375 0.17188 0.09375 0.09375 0 0.10938-0.078125 0.125-0.125 0.015625-0.078125 0.10938-0.64062 0.10938-0.6875 0-0.15625-0.51562-0.29688-0.625-0.32812-0.40625-0.10938-0.71875-0.125-0.98438-0.125-0.4375 0-1.7656 0-1.7656 1.4219 0 0.48438 0.21875 0.78125 0.48438 1.0156 0.34375 0.32812 0.73438 0.39062 1.2969 0.5 0.28125 0.046875 0.79688 0.14062 0.79688 0.57812 0 0.46875-0.39062 0.53125-0.78125 0.53125-0.4375 0-0.98438-0.125-1.4531-0.67188-0.046875-0.0625-0.078125-0.09375-0.14062-0.09375-0.09375 0-0.125 0.09375-0.125 0.15625-0.03125 0.14062-0.14062 0.70312-0.14062 0.79688 0 0.1875 0.73438 0.42188 0.73438 0.42188 0.54688 0.17188 0.95312 0.17188 1.125 0.17188 0.51562 0 1.7656-0.046875 1.7656-1.5156z"/>
  </g>
  <g id="bq">
   <path d="m3.7031-0.46875c0-0.03125-0.015625-0.09375-0.078125-0.3125-0.046875-0.1875-0.0625-0.25-0.15625-0.25-0.046875 0-0.0625 0-0.125 0.0625-0.10938 0.078125-0.375 0.29688-0.79688 0.29688-0.23438 0-0.375-0.15625-0.375-0.8125v-2.3438h0.875c0.125 0 0.48438 0 0.48438-0.35938s-0.35938-0.35938-0.48438-0.35938h-0.875v-0.82812c0-0.3125-0.078125-0.48438-0.48438-0.48438h-0.3125c-0.34375 0-0.46875 0.10938-0.46875 0.48438v0.82812h-0.23438c-0.10938 0-0.46875 0-0.46875 0.35938s0.35938 0.35938 0.46875 0.35938h0.20312v2.5c0 1.0156 0.35938 1.4375 1.0469 1.4375 0.078125 0 0.51562 0 1.0469-0.15625 0.15625-0.046875 0.73438-0.23438 0.73438-0.42188z"/>
  </g>
  <g id="n">
   <path d="m3.5312-3.9219v-0.46875c0-0.20312 0-0.26562-0.17188-0.26562-0.28125 0-1 0.09375-1.4688 1.1719h-0.015625v-0.65625c0-0.3125-0.0625-0.46875-0.46875-0.46875h-0.32812c-0.35938 0-0.46875 0.10938-0.46875 0.46875v3.6562c0 0.35938 0.10938 0.48438 0.46875 0.48438h0.375c0.375 0 0.46875-0.125 0.46875-0.48438v-1.7969c0-0.95312 0.79688-1.3438 1.4219-1.375 0.17188-0.015625 0.1875-0.015625 0.1875-0.26562z"/>
  </g>
  <g id="bp">
   <path d="m4.9688-0.48438v-3.5938c0-0.3125-0.0625-0.46875-0.48438-0.46875h-0.39062c-0.375 0-0.46875 0.125-0.46875 0.46875v2.3594c0 0.65625-0.35938 1.2188-1.0625 1.2188-0.5625 0-0.60938-0.14062-0.60938-0.65625v-2.9219c0-0.3125-0.078125-0.46875-0.48438-0.46875h-0.39062c-0.35938 0-0.48438 0.10938-0.48438 0.46875v2.8281c0 1.0625 0.57812 1.3594 1.6094 1.3594 0.26562 0 0.98438 0 1.4375-0.84375v0.25c0 0.32812 0.078125 0.48438 0.48438 0.48438h0.35938c0.39062 0 0.48438-0.125 0.48438-0.48438z"/>
  </g>
  <g id="dp">
   <path d="m8.0156-0.48438v-2.75c0-1.0156-0.4375-1.4219-1.4531-1.4219-0.70312 0-1.25 0.32812-1.6094 0.98438-0.15625-0.95312-1.0156-0.98438-1.4219-0.98438-0.1875 0-0.60938 0-1.0625 0.32812-0.29688 0.21875-0.5 0.54688-0.57812 0.6875v-0.5c0-0.3125-0.078125-0.46875-0.48438-0.46875h-0.32812c-0.35938 0-0.48438 0.10938-0.48438 0.46875v3.6562c0 0.35938 0.10938 0.48438 0.48438 0.48438h0.39062c0.375 0 0.48438-0.125 0.48438-0.48438v-2.1875c0-0.89062 0.59375-1.2656 1.0938-1.2656 0.46875 0 0.57812 0.20312 0.57812 0.73438v2.7188c0 0.35938 0.10938 0.48438 0.48438 0.48438h0.39062c0.375 0 0.48438-0.125 0.48438-0.48438v-2.1875c0-0.89062 0.59375-1.2656 1.0938-1.2656 0.46875 0 0.57812 0.20312 0.57812 0.73438v2.7188c0 0.35938 0.10938 0.48438 0.48438 0.48438h0.39062c0.375 0 0.48438-0.125 0.48438-0.48438z"/>
  </g>
  <g id="g">
   <path d="m4.7656-2.5781c0-1.2812-0.60938-2.1406-2.0781-2.1406-1.5938 0-2.375 0.89062-2.375 2.4062 0 1.625 0.9375 2.4219 2.5 2.4219 0.375 0 0.9375-0.046875 1.5938-0.375 0.21875-0.10938 0.29688-0.14062 0.29688-0.26562 0-0.0625-0.03125-0.35938-0.046875-0.4375-0.03125-0.29688-0.046875-0.3125-0.14062-0.3125-0.03125 0-0.046875 0-0.15625 0.09375-0.59375 0.51562-1.1875 0.57812-1.5 0.57812-1.125 0-1.25-0.875-1.2812-1.5156h2.7031c0.23438 0 0.48438-0.015625 0.48438-0.45312zm-1.1094-0.078125h-2.0625c0.03125-0.60938 0.21875-1.3438 1.0938-1.3438 0.79688 0 0.9375 0.57812 0.96875 1.3438z"/>
  </g>
  <g id="do">
   <path d="m5.1406-2.2344c0-1.625-0.78125-2.4844-2.4062-2.4844-1.6562 0-2.4219 0.89062-2.4219 2.4844 0 1.625 0.84375 2.3438 2.4062 2.3438s2.4219-0.71875 2.4219-2.3438zm-1.3438-0.125c0 0.79688 0 1.6875-1.0625 1.6875-1.0781 0-1.0781-0.89062-1.0781-1.6875 0-0.76562 0-1.6406 1.0625-1.6406 1.0781 0 1.0781 0.875 1.0781 1.6406z"/>
  </g>
  <g id="bo">
   <path d="m4.5469-0.5c0-0.10938-0.046875-0.5625-0.0625-0.6875 0-0.03125-0.015625-0.14062-0.125-0.14062-0.03125 0-0.0625 0-0.15625 0.10938-0.17188 0.14062-0.64062 0.54688-1.4531 0.54688-1.0312 0-1.0312-1-1.0312-1.6406 0-0.79688 0.046875-1.625 1.0625-1.625 0.64062 0 0.92188 0.15625 1.2656 0.45312 0.125 0.10938 0.14062 0.10938 0.1875 0.10938 0.09375 0 0.125-0.09375 0.125-0.14062 0.015625-0.078125 0.125-0.625 0.125-0.67188 0-0.09375-0.078125-0.14062-0.23438-0.21875-0.48438-0.21875-0.78125-0.3125-1.4844-0.3125-1.4688 0-2.3906 0.6875-2.3906 2.4375 0 1.6406 0.84375 2.3906 2.3438 2.3906 0.26562 0 0.875-0.015625 1.5312-0.34375 0.28125-0.15625 0.29688-0.15625 0.29688-0.26562z"/>
  </g>
  <g id="p">
   <path d="m4.7031-0.48438v-2.6562c0-1.5625-1.5-1.5781-2-1.5781-0.46875 0-0.96875 0.03125-1.625 0.3125-0.21875 0.09375-0.26562 0.125-0.26562 0.23438 0 0.0625 0.0625 0.64062 0.078125 0.71875 0 0.0625 0.046875 0.10938 0.125 0.10938 0.046875 0 0.078125-0.03125 0.10938-0.0625 0.42188-0.4375 0.92188-0.65625 1.5312-0.65625 0.54688 0 0.70312 0.32812 0.70312 0.90625v0.35938c-0.34375 0-2.9531 0.015625-2.9531 1.4688 0 0.70312 0.5625 1.4375 1.4375 1.4375 0.32812 0 1.0781-0.09375 1.5469-0.78125v0.1875c0 0.32812 0.0625 0.48438 0.46875 0.48438h0.375c0.375 0 0.46875-0.125 0.46875-0.48438zm-1.3438-1.0469c0 0.92188-0.9375 0.92188-0.96875 0.92188-0.42188 0-0.6875-0.35938-0.6875-0.73438 0-0.96875 1.375-1.0469 1.6562-1.0469z"/>
  </g>
  <g id="ar">
   <path d="m4.9531-0.48438v-5.9375c0-0.3125-0.0625-0.46875-0.46875-0.46875h-0.375c-0.375 0-0.46875 0.125-0.46875 0.46875v2.2656c-0.45312-0.4375-0.95312-0.5-1.25-0.5-2.0156 0-2.0156 1.9062-2.0156 2.3906 0 0.45312 0 2.375 1.9531 2.375 0.42188 0 0.85938-0.125 1.2812-0.57812 0 0.375 0.14062 0.46875 0.46875 0.46875h0.40625c0.375 0 0.46875-0.125 0.46875-0.48438zm-1.3438-0.76562c0 0.17188 0 0.26562-0.29688 0.46875-0.23438 0.15625-0.46875 0.17188-0.59375 0.17188-1 0-1-0.90625-1-1.6562s0-1.6719 1.1094-1.6719c0.29688 0 0.5625 0.09375 0.78125 0.29688z"/>
  </g>
  <g id="bu">
   <path d="m1.9219-0.48438v-5.9375c0-0.3125-0.0625-0.46875-0.46875-0.46875h-0.375c-0.35938 0-0.46875 0.10938-0.46875 0.46875v5.9375c0 0.35938 0.10938 0.48438 0.46875 0.48438h0.375c0.375 0 0.46875-0.125 0.46875-0.48438z"/>
  </g>
  <g id="bt">
   <path d="m4.7031-4.2812c0-0.26562-0.26562-0.26562-0.40625-0.26562h-0.21875c-0.15625 0-0.375 0-0.51562 0.21875-0.03125 0.0625-0.84375 2.25-0.89062 2.9219h-0.015625c-0.046875-0.48438-0.45312-1.4219-0.875-2.375-0.28125-0.625-0.34375-0.76562-0.84375-0.76562h-0.26562c-0.14062 0-0.39062 0-0.39062 0.25 0 0.046875 0.03125 0.10938 0.0625 0.15625l1.875 4.1406c-0.078125 0.20312-0.10938 0.3125-0.14062 0.42188-0.125 0.32812-0.29688 0.76562-0.82812 0.76562-0.32812 0-0.54688-0.14062-0.65625-0.20312-0.0625-0.03125-0.078125-0.046875-0.10938-0.046875-0.046875 0-0.125 0.03125-0.125 0.15625 0 0.078125 0.0625 0.76562 0.09375 0.79688 0.078125 0.125 0.625 0.14062 0.78125 0.14062 1.2344 0 1.7188-1.1719 1.7969-1.4062l1.625-4.7031c0.046875-0.14062 0.046875-0.15625 0.046875-0.20312z"/>
  </g>
  <g id="bs">
   <path d="m4.375-0.375c0-0.375-0.29688-0.375-0.59375-0.375l-1.5156 0.03125h-0.45312l2.4219-3.0781c0.09375-0.125 0.125-0.17188 0.125-0.34375 0-0.40625-0.3125-0.40625-0.48438-0.40625h-2.9375c-0.125 0-0.48438 0-0.48438 0.375 0 0.35938 0.32812 0.35938 0.59375 0.35938l1.4375-0.015625h0.375l-2.4375 3.0781c-0.09375 0.125-0.10938 0.17188-0.10938 0.32812 0 0.42188 0.29688 0.42188 0.46875 0.42188h3.125c0.125 0 0.46875 0 0.46875-0.375z"/>
  </g>
  <g id="dt">
   <path d="m4.9688-0.48438v-2.75c0-1.0156-0.4375-1.4219-1.4531-1.4219-0.98438 0-1.4531 0.6875-1.5938 0.95312v-2.7188c0-0.3125-0.078125-0.46875-0.48438-0.46875h-0.35938c-0.35938 0-0.48438 0.10938-0.48438 0.46875v5.9375c0 0.35938 0.10938 0.48438 0.48438 0.48438h0.39062c0.375 0 0.48438-0.125 0.48438-0.48438v-2.1875c0-0.85938 0.57812-1.2656 1.0938-1.2656 0.46875 0 0.57812 0.21875 0.57812 0.73438v2.7188c0 0.32812 0.0625 0.48438 0.46875 0.48438h0.39062c0.39062 0 0.48438-0.125 0.48438-0.48438z"/>
  </g>
  <g id="ds">
   <path d="m4.7031-4.2656c0-0.28125-0.25-0.28125-0.40625-0.28125h-0.20312c-0.42188 0-0.53125 0.14062-0.60938 0.42188l-0.98438 3-0.98438-3c-0.078125-0.20312-0.14062-0.42188-0.625-0.42188h-0.23438c-0.15625 0-0.39062 0-0.39062 0.28125 0 0.015625 0 0.046875 0.046875 0.1875l1.1719 3.6562c0.14062 0.42188 0.45312 0.42188 0.625 0.42188h0.73438c0.17188 0 0.48438 0 0.625-0.42188l1.1875-3.6562c0.046875-0.14062 0.046875-0.17188 0.046875-0.1875z"/>
  </g>
  <g id="dr">
   <path d="m3.0312-2.2812c0-0.35938-0.35938-0.35938-0.48438-0.35938h-1.9531c-0.10938 0-0.46875 0-0.46875 0.35938s0.35938 0.35938 0.46875 0.35938h1.9531c0.125 0 0.48438 0 0.48438-0.35938z"/>
  </g>
  <g id="dq">
   <path d="m5.2188-6.0312v-0.39062c0-0.32812-0.078125-0.48438-0.48438-0.48438h-0.39062c-0.375 0-0.48438 0.125-0.48438 0.48438v0.39062c0 0.3125 0.078125 0.46875 0.48438 0.46875h0.39062c0.39062 0 0.48438-0.125 0.48438-0.46875zm-0.015625 5.5469v-3.5938c0-0.3125-0.0625-0.46875-0.46875-0.46875h-0.375c-0.375 0-0.46875 0.125-0.46875 0.46875v3.5938c0 0.32812 0.0625 0.48438 0.46875 0.48438h0.375c0.375 0 0.46875-0.125 0.46875-0.48438zm-1.9844-3.7031c0-0.35938-0.35938-0.35938-0.46875-0.35938h-0.60938v-1.1406c0-0.28125 0.03125-0.60938 0.32812-0.60938 0.34375 0 0.4375 0.21875 0.5 0.34375 0.015625 0.046875 0.046875 0.09375 0.125 0.09375 0.125 0 0.125-0.10938 0.125-0.26562v-0.5c0-0.23438 0-0.25-0.25-0.3125s-0.35938-0.0625-0.51562-0.0625c-1.0312 0-1.5938 0.54688-1.5938 1.6406v0.8125c-0.21875 0-0.5625 0-0.5625 0.35938s0.34375 0.35938 0.5625 0.35938v3.3438c0 0.35938 0.10938 0.48438 0.46875 0.48438h0.375c0.375 0 0.46875-0.125 0.46875-0.48438v-3.3438h0.57812c0.10938 0 0.46875 0 0.46875-0.35938z"/>
  </g>
  <g id="b">
   <path d="m2.8125-0.21875-0.125-0.5c-0.26562 0.1875-0.54688 0.25-0.76562 0.25-0.34375 0-0.42188-0.32812-0.42188-0.6875v-1.875h1.1719v-0.5h-1.1719v-1.0156h-0.625v1.0156h-0.71875v0.5h0.70312v2.0156c0 0.53125 0.14062 1.0938 0.70312 1.0938 0.57812 0 1.0156-0.1875 1.25-0.29688z"/>
  </g>
  <g id="a">
   <path d="m3.5-1.7344c0-0.375-0.046875-0.90625-0.34375-1.3594-0.29688-0.40625-0.76562-0.5625-1.1562-0.5625-0.96875 0-1.7188 0.85938-1.7188 1.8594 0 1.0312 0.79688 1.875 1.8438 1.875 0.45312 0 0.9375-0.14062 1.3438-0.375l-0.046875-0.5625c-0.45312 0.3125-0.95312 0.40625-1.2969 0.40625-0.6875 0-1.2031-0.5625-1.2344-1.2812zm-0.48438-0.48438h-2.0625c0.17188-0.64062 0.64062-0.90625 1.0469-0.90625 0.34375 0 0.85938 0.17188 1.0156 0.90625z"/>
  </g>
  <g id="l">
   <path d="m1.3438 0v-5.5156h-0.67188v5.5156z"/>
  </g>
  <g id="e">
   <path d="m3.0469-1.0312c0-0.14062-0.015625-0.45312-0.34375-0.76562-0.29688-0.25-0.59375-0.3125-0.96875-0.375-0.46875-0.09375-0.82812-0.17188-0.82812-0.51562 0-0.45312 0.57812-0.45312 0.6875-0.45312 0.45312 0 0.8125 0.09375 1.2031 0.29688l0.10938-0.5625c-0.54688-0.21875-0.9375-0.25-1.2344-0.25-0.1875 0-1.3906 0-1.3906 1.0625 0 0.375 0.20312 0.57812 0.3125 0.67188 0.26562 0.28125 0.60938 0.34375 1.0312 0.42188 0.375 0.078125 0.79688 0.15625 0.79688 0.53125 0 0.5-0.65625 0.5-0.76562 0.5-0.51562 0-0.98438-0.17188-1.3125-0.39062l-0.10938 0.59375c0.28125 0.125 0.76562 0.34375 1.4219 0.34375 0.35938 0 0.70312-0.046875 1-0.26562s0.39062-0.57812 0.39062-0.84375z"/>
  </g>
  <g id="w">
   <path d="m3.5-0.28125-0.046875-0.57812c-0.39062 0.25-0.82812 0.39062-1.3125 0.39062-0.73438 0-1.1562-0.59375-1.1562-1.3125 0-0.60938 0.3125-1.3281 1.1719-1.3281 0.54688 0 0.79688 0.125 1.2031 0.375l0.10938-0.57812c-0.48438-0.23438-0.6875-0.34375-1.3125-0.34375-1.1875 0-1.875 0.96875-1.875 1.8906 0 0.96875 0.76562 1.8438 1.8438 1.8438 0.5625 0 1.0469-0.17188 1.375-0.35938z"/>
  </g>
  <g id="f">
   <path d="m3.9844-1.7344c0-1.0625-0.84375-1.9219-1.875-1.9219s-1.875 0.875-1.875 1.9219c0 1 0.84375 1.8125 1.875 1.8125s1.875-0.8125 1.875-1.8125zm-0.70312-0.09375c0 0.90625-0.5625 1.3594-1.1719 1.3594-0.625 0-1.1719-0.46875-1.1719-1.3594 0-0.90625 0.57812-1.2969 1.1719-1.2969s1.1719 0.40625 1.1719 1.2969z"/>
  </g>
  <g id="v">
   <path d="m4.0781-1.7812c0-0.95312-0.53125-1.8281-1.3125-1.8281-0.35938 0-0.95312 0.10938-1.4219 0.45312v-0.375h-0.67188v5.0781h0.70312v-1.9219c0.42188 0.39062 0.875 0.45312 1.1406 0.45312 0.84375 0 1.5625-0.79688 1.5625-1.8594zm-0.70312 0c0 0.79688-0.59375 1.3281-1.2188 1.3281-0.10938 0-0.3125-0.015625-0.51562-0.17188-0.23438-0.1875-0.26562-0.3125-0.26562-0.45312v-1.5625c0.17188-0.21875 0.48438-0.42188 0.875-0.42188 0.625 0 1.125 0.59375 1.125 1.2812z"/>
  </g>
  <g id="bj">
   <path d="m4.0938-3.0625-0.09375-0.54688c-0.17188 0-0.70312 0-1.3125 0.23438l-0.015625 0.015625c-0.28125-0.20312-0.5625-0.25-0.79688-0.25-0.78125 0-1.3594 0.60938-1.3594 1.2969 0 0.28125 0.09375 0.5625 0.28125 0.78125-0.10938 0.14062-0.23438 0.35938-0.23438 0.67188 0 0.29688 0.125 0.5 0.20312 0.59375-0.4375 0.25-0.53125 0.625-0.53125 0.8125 0 0.60938 0.84375 1.0781 1.875 1.0781 1.0469 0 1.875-0.46875 1.875-1.0781 0-1.125-1.4062-1.125-1.7344-1.125h-0.75c-0.125 0-0.46875 0-0.46875-0.40625 0-0.15625 0.0625-0.23438 0.0625-0.25 0.28125 0.17188 0.5625 0.21875 0.78125 0.21875 0.76562 0 1.3594-0.60938 1.3594-1.2969 0-0.25-0.078125-0.48438-0.21875-0.6875-0.03125-0.046875-0.03125-0.0625-0.03125-0.0625 0-0.046875 0.46875-0.046875 0.51562-0.046875 0 0 0.3125 0 0.59375 0.046875zm-1.4844 0.75c0 0.625-0.39062 0.8125-0.73438 0.8125-0.42188 0-0.75-0.28125-0.75-0.8125 0-0.60938 0.40625-0.8125 0.75-0.8125 0.42188 0 0.73438 0.28125 0.73438 0.8125zm0.76562 2.875c0 0.34375-0.59375 0.57812-1.2656 0.57812s-1.2656-0.23438-1.2656-0.57812c0-0.046875 0-0.51562 0.64062-0.51562h0.76562c0.1875 0 1.125 0 1.125 0.51562z"/>
  </g>
  <g id="bi">
   <path d="m6.0469 0v-2.3594c0-0.60938-0.1875-1.25-1.1562-1.25-0.67188 0-1.0938 0.39062-1.2812 0.64062-0.078125-0.21875-0.28125-0.64062-1.0781-0.64062-0.45312 0-0.89062 0.1875-1.2344 0.60938v-0.59375h-0.64062v3.5938h0.70312v-1.9375c0-0.51562 0.21875-1.1406 0.82812-1.1406 0.8125 0 0.8125 0.54688 0.8125 0.78125v2.2969h0.70312v-1.9375c0-0.51562 0.21875-1.1406 0.82812-1.1406 0.82812 0 0.82812 0.54688 0.82812 0.78125v2.2969z"/>
  </g>
  <g id="d">
   <path d="m2.7656-3.0156v-0.59375c-0.67188 0-1.1562 0.32812-1.4844 0.75v-0.73438h-0.60938v3.5938h0.67188v-1.6875c0-0.85938 0.71875-1.3281 1.4219-1.3281z"/>
  </g>
  <g id="ag">
   <path d="m3.7656-3.5312h-0.64062c-0.64062 1.5156-1.0938 2.5469-1.125 3.0312-0.015625-0.21875-0.15625-0.625-0.29688-1-0.125-0.3125-0.25-0.625-0.40625-0.9375l-0.5-1.0938h-0.67188l1.6406 3.5312-0.29688 0.70312c-0.17188 0.32812-0.28125 0.4375-0.5 0.4375-0.03125 0-0.32812 0-0.67188-0.14062l0.046875 0.5625c0.078125 0.015625 0.375 0.0625 0.625 0.0625 0.3125 0 0.59375-0.125 0.9375-0.89062z"/>
  </g>
  <g id="dn">
   <path d="m5.6406-3.5312h-0.60938l-0.76562 2.3906c-0.0625 0.23438-0.14062 0.48438-0.17188 0.67188-0.046875-0.32812-0.32812-1.1875-0.34375-1.2344l-0.59375-1.8281h-0.60938c-0.21875 0.6875-0.82812 2.4688-0.89062 3.0469-0.0625-0.5625-0.65625-2.3281-0.78125-2.7031-0.0625-0.1875-0.0625-0.20312-0.10938-0.34375h-0.64062l1.1562 3.5312h0.67188l0.5-1.5469c0.10938-0.39062 0.35938-1.1562 0.39062-1.5h0.015625c0.015625 0.15625 0.0625 0.32812 0.10938 0.53125l0.17188 0.59375 0.60938 1.9219h0.73438z"/>
  </g>
  <g id="m">
   <path d="m3.7031 0v-2.3594c0-0.60938-0.1875-1.25-1.1719-1.25-0.67188 0-1.0469 0.39062-1.2031 0.5625v-2.4688h-0.67188v5.5156h0.70312v-1.9375c0-0.51562 0.21875-1.1406 0.82812-1.1406 0.8125 0 0.8125 0.54688 0.8125 0.78125v2.2969z"/>
  </g>
  <g id="j">
   <path d="m3.6875 0v-5.5156h-0.67188v2.3281c-0.51562-0.375-1.0312-0.42188-1.2656-0.42188-0.82812 0-1.4688 0.82812-1.4688 1.8438s0.64062 1.8438 1.4531 1.8438c0.5 0 0.95312-0.21875 1.25-0.48438v0.40625zm-0.70312-0.98438c-0.1875 0.32812-0.5 0.53125-0.875 0.53125-0.5625 0-1.125-0.375-1.125-1.2969 0-1 0.67188-1.3281 1.2031-1.3281 0.32812 0 0.59375 0.125 0.79688 0.39062z"/>
  </g>
  <g id="c">
   <path d="m3.4688 0v-2.2969c0-0.8125-0.625-1.3594-1.4062-1.3594-0.5 0-0.89062 0.10938-1.3281 0.34375l0.046875 0.57812c0.26562-0.17188 0.65625-0.40625 1.2812-0.40625 0.34375 0 0.71875 0.26562 0.71875 0.85938v0.3125c-1.1875 0.046875-2.3438 0.29688-2.3438 1.0312 0 0.39062 0.26562 1.0156 0.96875 1.0156 0.34375 0 0.96875-0.0625 1.3906-0.375v0.29688zm-0.6875-1.125c0 0.15625 0 0.35938-0.28125 0.53125-0.25 0.14062-0.5625 0.14062-0.65625 0.14062-0.4375 0-0.76562-0.1875-0.76562-0.5 0-0.5 1.3438-0.54688 1.7031-0.5625z"/>
  </g>
  <g id="y">
   <path d="m1.3438 0v-3.5312h-0.67188v3.5312zm0.0625-4.4531v-0.79688h-0.79688v0.79688z"/>
  </g>
  <g id="dm">
   <path d="m3.7656-3.5312h-0.625c-1.0938 2.6719-1.1406 2.875-1.1719 3.0625h-0.015625c-0.0625-0.3125-0.28125-0.875-0.53125-1.4844l-0.64062-1.5781h-0.65625l1.4531 3.5312h0.73438z"/>
  </g>
  <g id="af">
   <path d="m3.8594-4.8125v-0.71875h-0.70312v0.71875zm-0.015625 4.8125v-3.5312h-0.67188v3.5312zm-1.3594-3.0312v-0.5h-1v-0.9375c0-0.5 0.3125-0.60938 0.5-0.60938 0.125 0 0.32812 0.03125 0.5 0.15625v-0.59375c-0.015625-0.015625-0.23438-0.078125-0.5-0.078125-0.60938 0-1.1406 0.54688-1.1406 1.3594v0.70312h-0.60938v0.5h0.60938v3.0312h0.67188v-3.0312z"/>
  </g>
  <g id="i">
   <path d="m3.7031 0v-3.5312h-0.70312v2.3125c0 0.625-0.53125 0.82812-1 0.82812-0.57812 0-0.64062-0.15625-0.64062-0.53125v-2.6094h-0.70312v2.6719c0 0.70312 0.3125 0.9375 0.875 0.9375 0.32812 0 1.0156-0.0625 1.5-0.4375v0.35938z"/>
  </g>
  <g id="dl">
   <path d="m3.8906 0-1.6875-1.8281 1.5469-1.7031h-0.70312l-1.125 1.2969-1.1562-1.2969h-0.71875l1.5938 1.7031-1.6406 1.8281h0.70312l1.2188-1.5 1.25 1.5z"/>
  </g>
  <g id="dk">
   <path d="m8.4531-1.9219v-0.51562h-8.4531v0.51562z"/>
  </g>
  <g id="x">
   <path d="m3.7031 0v-2.3594c0-0.60938-0.1875-1.25-1.1719-1.25-0.45312 0-0.89062 0.1875-1.2344 0.60938v-0.59375h-0.64062v3.5938h0.70312v-1.9375c0-0.51562 0.21875-1.1406 0.82812-1.1406 0.8125 0 0.8125 0.54688 0.8125 0.78125v2.2969z"/>
  </g>
  <g id="dj">
   <path d="m1.5312-4.8125v-0.70312h-0.71875v0.71875h0.21875l-0.23438 1.0156h0.35938z"/>
  </g>
  <g id="di">
   <path d="m3.875-2.5781c0-0.39062 0-1.3125-0.375-1.9688-0.39062-0.71875-1.0156-0.84375-1.3906-0.84375-0.35938 0-0.98438 0.125-1.375 0.79688-0.39062 0.64062-0.40625 1.5156-0.40625 2.0156 0 0.57812 0.03125 1.3125 0.375 1.9062 0.34375 0.64062 0.9375 0.84375 1.4062 0.84375 0.79688 0 1.2344-0.46875 1.4688-0.96875 0.28125-0.5625 0.29688-1.2969 0.29688-1.7812zm-0.6875-0.10938c0 0.53125 0 1.125-0.1875 1.625-0.21875 0.57812-0.625 0.70312-0.89062 0.70312-0.32812 0-0.71875-0.1875-0.92188-0.76562-0.15625-0.48438-0.15625-0.98438-0.15625-1.5625 0-0.73438 0-2.1719 1.0781-2.1719s1.0781 1.4375 1.0781 2.1719z"/>
  </g>
  <g id="dh">
   <path d="m3.8594-1.7812c0-1.0312-0.5625-1.9062-1.3281-1.9062-0.78125 0-1.2031 0.40625-1.4375 0.64062 0.10938-1.0938 0.65625-1.8438 1.5156-1.8438 0.17188 0 0.48438 0.015625 0.875 0.17188v-0.5c-0.42188-0.17188-0.71875-0.17188-0.875-0.17188-1.2031 0-2.2656 1.1406-2.2656 2.8281 0 2.1562 0.96875 2.7344 1.7812 2.7344 0.64062 0 0.98438-0.3125 1.2188-0.5625 0.51562-0.54688 0.51562-1.1094 0.51562-1.3906zm-0.71875 0c0 0.3125 0 0.64062-0.21875 0.98438-0.1875 0.28125-0.4375 0.4375-0.79688 0.4375-0.84375 0-0.98438-1.0469-1.0156-1.3906v-0.20312c0-0.54688 0.34375-1.2031 1.0469-1.2031 0.98438 0 0.98438 1.1094 0.98438 1.375z"/>
  </g>
  <g id="dg">
   <path d="m3.6094 0v-0.5h-1.0625v-4.8906h-0.17188c-0.51562 0.48438-1.1719 0.51562-1.6406 0.53125v0.5c0.3125 0 0.70312-0.015625 1.1094-0.1875v4.0469h-1.0625v0.5z"/>
  </g>
  <g id="df">
   <path d="m3.9844-1.3281v-0.53125h-0.82812v-3.3594h-0.79688l-2.125 3.3594v0.53125h2.2344v1.3281h0.6875v-1.3281zm-1.4688-0.53125h-1.5938c0.23438-0.375 1.5938-2.4844 1.5938-2.9688z"/>
  </g>
  <g id="de">
   <path d="m1.5312 0v-0.71875h-0.71875v0.71875z"/>
  </g>
  <g id="dd">
   <path d="m3.7969-1.6094c0-0.98438-0.73438-1.7812-1.6094-1.7812-0.34375 0-0.64062 0.125-0.89062 0.32812v-1.6094h2.2031v-0.54688h-2.8281v2.9688h0.57812c0.1875-0.42188 0.5625-0.60938 0.92188-0.60938 0.32812 0 0.8125 0.21875 0.8125 1.2344 0 1.0312-0.65625 1.2656-1.0625 1.2656-0.51562 0-1.0312-0.28125-1.2969-0.73438l-0.3125 0.48438c0.39062 0.48438 0.98438 0.78125 1.6094 0.78125 1.0469 0 1.875-0.8125 1.875-1.7812z"/>
  </g>
  <g id="bn">
   <path d="m5.625-2.7188c0-1.5469-1.1562-2.7969-2.5938-2.7969h-2.25v5.5156h2.25c1.4375 0 2.5938-1.2031 2.5938-2.7188zm-0.78125 0c0 1.4844-0.96875 2.25-2.0156 2.25h-1.2656v-4.5781h1.2656c1.0781 0 2.0156 0.85938 2.0156 2.3281z"/>
  </g>
  <g id="bm">
   <path d="m4.9531-0.35938-0.046875-0.60938c-0.25 0.15625-0.5 0.3125-0.78125 0.40625-0.28125 0.078125-0.5625 0.09375-0.84375 0.09375-0.53125 0-1.0312-0.26562-1.375-0.67188-0.39062-0.45312-0.5625-1.0312-0.5625-1.625s0.17188-1.1562 0.5625-1.6094c0.34375-0.40625 0.84375-0.67188 1.375-0.67188 0.25 0 0.5 0.015625 0.75 0.09375s0.48438 0.20312 0.70312 0.34375l0.14062-0.71875c-0.26562-0.09375-0.53125-0.17188-0.79688-0.21875s-0.53125-0.0625-0.79688-0.0625c-0.73438 0-1.4375 0.3125-1.9375 0.84375-0.53125 0.53125-0.8125 1.2656-0.8125 2 0 0.75 0.28125 1.4844 0.8125 2.0156 0.5 0.53125 1.2031 0.82812 1.9375 0.82812 0.29688 0 0.57812 0 0.875-0.078125 0.28125-0.078125 0.54688-0.21875 0.79688-0.35938z"/>
  </g>
  <g id="dc">
   <path d="m5.3906 0-2.1875-5.5156h-0.78125l-2.1875 5.5156h0.65625l0.625-1.5781h2.4062l0.625 1.5781zm-1.6562-2.0469h-2.0312l1.0312-2.875z"/>
  </g>
  <g id="bl">
   <path d="m2.9219-4.9375v-0.57812c-0.20312-0.046875-0.45312-0.078125-0.65625-0.078125-0.82812 0-1.4219 0.57812-1.4219 1.375v0.6875h-0.60938v0.5h0.60938v3.0312h0.67188v-3.0312h0.90625v-0.5h-0.9375v-0.92188c0-0.54688 0.5-0.625 0.76562-0.625 0.17188 0 0.375 0.03125 0.67188 0.14062z"/>
  </g>
  <g id="db">
   <path d="m4.0781-1.7812c0-0.95312-0.5625-1.8281-1.3438-1.8281-0.5 0-1 0.15625-1.3906 0.45312v-2.3594h-0.67188v5.5156h0.70312v-0.375c0.17188 0.15625 0.54688 0.45312 1.125 0.45312 0.875 0 1.5781-0.8125 1.5781-1.8594zm-0.70312 0c0 0.98438-0.65625 1.3281-1.2188 1.3281-0.28125 0-0.5625-0.125-0.78125-0.48438v-1.5625c0-0.125 0-0.23438 0.26562-0.40625 0.125-0.078125 0.34375-0.17188 0.60938-0.17188 0.53125 0 1.125 0.34375 1.125 1.2969z"/>
  </g>
  <g id="bk">
   <path d="m2.3438-1.5156v-0.5h-2.25v0.5z"/>
  </g>
  <g id="bh">
   <path d="m7.9688-1.9844c0-0.046875-0.046875-0.09375-0.09375-0.10938-0.89062-0.26562-1.5469-0.98438-1.7188-1.9062-0.015625-0.046875-0.0625-0.09375-0.10938-0.09375h-0.14062c-0.0625 0-0.10938 0.046875-0.10938 0.14062 0.14062 0.71875 0.54688 1.3594 1.1562 1.7812h-6.3125c-0.10938 0-0.17188 0.09375-0.17188 0.1875 0 0.078125 0.0625 0.17188 0.17188 0.17188h6.3125c-0.60938 0.42188-1.0156 1.0625-1.1562 1.7812 0 0.09375 0.046875 0.14062 0.10938 0.14062h0.14062c0.046875 0 0.09375-0.03125 0.10938-0.078125 0.17188-0.92188 0.82812-1.6562 1.7188-1.9219 0.046875 0 0.09375-0.046875 0.09375-0.09375z"/>
  </g>
  <g id="da">
   <path d="m1.6094-1.9844c0-0.28125-0.20312-0.45312-0.4375-0.45312-0.26562 0-0.4375 0.21875-0.4375 0.4375 0 0.28125 0.21875 0.45312 0.4375 0.45312 0.26562 0 0.4375-0.21875 0.4375-0.4375z"/>
  </g>
  <g id="cz">
   <path d="m4.7344-1.6875c0-0.67188-0.35938-1.0781-0.57812-1.2656-0.48438-0.4375-0.89062-0.51562-1.4062-0.60938-0.65625-0.10938-1.125-0.20312-1.125-0.67188 0-0.5 0.39062-0.59375 0.85938-0.59375 0.79688 0 1.2344 0.29688 1.5312 0.5625 0.125 0.125 0.15625 0.125 0.20312 0.125 0.10938 0 0.14062-0.10938 0.15625-0.15625 0.015625-0.09375 0.14062-0.76562 0.14062-0.82812 0-0.1875-0.64062-0.35938-0.76562-0.40625-0.48438-0.125-0.85938-0.14062-1.1719-0.14062-0.53125 0-2.1406 0-2.1406 1.7031 0 0.59375 0.26562 0.95312 0.59375 1.2344 0.40625 0.375 0.875 0.46875 1.5625 0.59375 0.34375 0.0625 0.95312 0.17188 0.95312 0.70312 0 0.54688-0.46875 0.64062-0.9375 0.64062-0.51562 0-1.1875-0.15625-1.75-0.82812-0.0625-0.0625-0.09375-0.09375-0.17188-0.09375-0.10938 0-0.14062 0.10938-0.15625 0.17188-0.015625 0.17188-0.15625 0.85938-0.15625 0.96875 0 0.21875 0.89062 0.5 0.89062 0.5 0.65625 0.20312 1.1406 0.20312 1.3438 0.20312 0.60938 0 2.125-0.046875 2.125-1.8125z"/>
  </g>
  <g id="cy">
   <path d="m4.4531-0.5625c0-0.03125-0.03125-0.125-0.09375-0.375-0.0625-0.23438-0.078125-0.29688-0.1875-0.29688-0.0625 0-0.078125 0-0.15625 0.078125-0.125 0.09375-0.45312 0.35938-0.95312 0.35938-0.28125 0-0.45312-0.20312-0.45312-1v-2.8125h1.0625c0.14062 0 0.5625 0 0.5625-0.42188 0-0.4375-0.42188-0.4375-0.5625-0.4375h-1.0625v-0.98438c0-0.39062-0.09375-0.57812-0.57812-0.57812h-0.375c-0.42188 0-0.5625 0.125-0.5625 0.57812v0.98438h-0.28125c-0.125 0-0.57812 0-0.57812 0.4375 0 0.42188 0.4375 0.42188 0.57812 0.42188h0.23438v3.0156c0 1.2188 0.4375 1.7188 1.25 1.7188 0.10938 0 0.64062 0 1.2656-0.1875 0.20312-0.0625 0.89062-0.26562 0.89062-0.5z"/>
  </g>
  <g id="cx">
   <path d="m4.25-4.7188v-0.5625c0-0.23438 0-0.3125-0.21875-0.3125-0.32812 0-1.2031 0.10938-1.7656 1.4062h-0.015625v-0.78125c0-0.375-0.078125-0.5625-0.5625-0.5625h-0.39062c-0.42188 0-0.5625 0.125-0.5625 0.5625v4.3906c0 0.4375 0.125 0.57812 0.5625 0.57812h0.45312c0.45312 0 0.5625-0.15625 0.5625-0.57812v-2.1719c0-1.125 0.95312-1.5938 1.7031-1.6406 0.20312-0.015625 0.23438-0.015625 0.23438-0.32812z"/>
  </g>
  <g id="aq">
   <path d="m5.7188-3.1094c0-1.5312-0.71875-2.5625-2.5-2.5625-1.9062 0-2.8438 1.0781-2.8438 2.8906 0 1.9531 1.125 2.9062 3 2.9062 0.45312 0 1.1406-0.046875 1.9219-0.45312 0.26562-0.125 0.34375-0.15625 0.34375-0.29688 0-0.09375-0.03125-0.4375-0.046875-0.53125-0.046875-0.375-0.0625-0.39062-0.15625-0.39062-0.046875 0-0.078125 0-0.20312 0.125-0.70312 0.60938-1.4219 0.6875-1.8125 0.6875-1.3438 0-1.4844-1.0625-1.5312-1.8125h3.25c0.28125 0 0.57812-0.015625 0.57812-0.5625zm-1.3281-0.078125h-2.4844c0.046875-0.73438 0.28125-1.625 1.3125-1.625 0.95312 0 1.1406 0.6875 1.1719 1.625z"/>
  </g>
  <g id="cw">
   <path d="m5.6562-0.57812v-3.1875c0-1.8906-1.8125-1.9062-2.4062-1.9062-0.5625 0-1.1562 0.046875-1.9531 0.39062-0.26562 0.09375-0.3125 0.14062-0.3125 0.26562 0 0.078125 0.0625 0.78125 0.078125 0.875 0.015625 0.0625 0.078125 0.125 0.15625 0.125 0.0625 0 0.09375-0.03125 0.125-0.0625 0.51562-0.54688 1.1094-0.79688 1.8594-0.79688 0.64062 0 0.82812 0.39062 0.82812 1.0938v0.42188c-0.42188 0-3.5469 0.015625-3.5469 1.7656 0 0.84375 0.67188 1.7188 1.7188 1.7188 0.40625 0 1.3125-0.10938 1.875-0.9375v0.23438c0 0.39062 0.078125 0.57812 0.5625 0.57812h0.4375c0.45312 0 0.57812-0.15625 0.57812-0.57812zm-1.625-1.2656c0 1.1094-1.125 1.1094-1.1719 1.1094-0.5 0-0.8125-0.42188-0.8125-0.875 0-1.1719 1.6562-1.25 1.9844-1.2656z"/>
  </g>
  <g id="cv">
   <path d="m9.625-0.57812v-3.2969c0-1.2344-0.53125-1.7188-1.75-1.7188-0.84375 0-1.5 0.39062-1.9375 1.1719-0.1875-1.1406-1.2031-1.1719-1.7031-1.1719-0.21875 0-0.71875 0-1.2656 0.39062-0.35938 0.26562-0.60938 0.65625-0.6875 0.82812h-0.015625v-0.59375c0-0.375-0.078125-0.5625-0.57812-0.5625h-0.39062c-0.4375 0-0.57812 0.125-0.57812 0.5625v4.3906c0 0.4375 0.125 0.57812 0.57812 0.57812h0.46875c0.45312 0 0.57812-0.15625 0.57812-0.57812v-2.6406c0-1.0625 0.71875-1.5156 1.3125-1.5156 0.5625 0 0.70312 0.25 0.70312 0.875v3.2812c0 0.4375 0.125 0.57812 0.57812 0.57812h0.46875c0.45312 0 0.57812-0.15625 0.57812-0.57812v-2.6406c0-1.0625 0.71875-1.5156 1.3125-1.5156 0.5625 0 0.70312 0.25 0.70312 0.875v3.2812c0 0.4375 0.125 0.57812 0.57812 0.57812h0.46875c0.45312 0 0.57812-0.15625 0.57812-0.57812z"/>
  </g>
  <g id="bg">
   <path d="m2.3125-0.57812v-4.3125c0-0.39062-0.078125-0.57812-0.5625-0.57812h-0.45312c-0.42188 0-0.5625 0.125-0.5625 0.57812v4.3125c0 0.4375 0.125 0.57812 0.5625 0.57812h0.45312c0.45312 0 0.5625-0.15625 0.5625-0.57812zm0.09375-6.6562v-0.23438c0-0.375-0.09375-0.5625-0.57812-0.5625h-0.60938c-0.45312 0-0.57812 0.15625-0.57812 0.5625v0.23438c0 0.34375 0.0625 0.57812 0.57812 0.57812h0.60938c0.5 0 0.57812-0.21875 0.57812-0.57812z"/>
  </g>
  <g id="ap">
   <path d="m5.9688-0.57812v-3.2969c0-1.2344-0.53125-1.7188-1.75-1.7188-1.25 0-1.7812 0.90625-1.9375 1.2188h-0.015625v-0.59375c0-0.375-0.078125-0.5625-0.57812-0.5625h-0.39062c-0.4375 0-0.57812 0.125-0.57812 0.5625v4.3906c0 0.4375 0.125 0.57812 0.57812 0.57812h0.46875c0.45312 0 0.57812-0.15625 0.57812-0.57812v-2.6406c0-1.0312 0.6875-1.5156 1.3125-1.5156 0.5625 0 0.6875 0.26562 0.6875 0.875v3.2812c0 0.39062 0.078125 0.57812 0.57812 0.57812h0.46875c0.45312 0 0.57812-0.15625 0.57812-0.57812z"/>
  </g>
  <g id="bf">
   <path d="m6.375-4.8281c0-0.046875-0.0625-0.34375-0.078125-0.45312-0.046875-0.29688-0.046875-0.3125-0.26562-0.3125-0.375 0-0.96875 0.14062-1.4219 0.40625-0.5625-0.35938-1.1875-0.40625-1.7031-0.40625-0.5 0-2.3906 0-2.3906 1.9688 0 0.46875 0.125 1.0781 0.57812 1.4688-0.3125 0.4375-0.3125 0.90625-0.3125 0.96875 0 0.21875 0.0625 0.60938 0.3125 0.9375-0.17188 0.078125-0.79688 0.28125-0.79688 1.0469 0 0.375 0.1875 1 0.9375 1.3438 0.67188 0.3125 1.4688 0.3125 2.0312 0.3125 0.70312 0 2.9844 0 2.9844-1.6875 0-1.8594-1.6719-1.8594-3.2969-1.8594h-0.5625c-0.4375 0-0.59375 0-0.76562-0.14062-0.046875-0.0625-0.25-0.23438-0.25-0.54688 0-0.078125 0.015625-0.10938 0.015625-0.17188 0.5625 0.3125 1.2656 0.3125 1.5156 0.3125 0.51562 0 2.4062 0 2.4062-1.9688 0-0.70312-0.26562-1.125-0.375-1.25 0.20312 0 0.625 0 1.1094 0.125 0.046875 0.03125 0.14062 0.0625 0.17188 0.0625 0.09375 0 0.15625-0.078125 0.15625-0.15625zm-2.5938 1.2031c0 0.65625-0.03125 1.125-0.875 1.125-0.82812 0-0.85938-0.45312-0.85938-1.1094 0-0.67188 0.03125-1.125 0.85938-1.125 0.84375 0 0.875 0.45312 0.875 1.1094zm1.25 4.4219c0 0.79688-1.3594 0.79688-1.75 0.79688-0.46875 0-1.75 0-1.75-0.82812 0-0.5625 0.35938-0.5625 0.64062-0.5625h1.3906c0.96875 0 1.4688 0.17188 1.4688 0.59375z"/>
  </g>
  <g id="cu">
   <path d="m3.4062-5.5625v-0.40625c0-0.21875 0-0.23438-0.3125-0.29688-0.25-0.046875-0.4375-0.046875-0.57812-0.046875-0.67188 0-1.75 0.15625-1.75 1.5v0.71875c-0.1875 0-0.5 0-0.5 0.3125 0 0.32812 0.3125 0.32812 0.5 0.32812v3.0156c0 0.32812 0.10938 0.4375 0.4375 0.4375h0.32812c0.34375 0 0.42188-0.10938 0.42188-0.4375v-3.0156h0.4375c0.10938 0 0.42188 0 0.42188-0.32812 0-0.3125-0.3125-0.3125-0.42188-0.3125h-0.45312v-0.98438c0-0.23438 0-0.59375 0.57812-0.59375 0.28125 0 0.46875 0.078125 0.64062 0.25 0.0625 0.078125 0.09375 0.09375 0.14062 0.09375 0.10938 0 0.10938-0.09375 0.10938-0.23438z"/>
  </g>
  <g id="k">
   <path d="m4.2812-2.3281c0-1.1562-0.53125-1.9219-1.8594-1.9219-1.4375 0-2.1406 0.79688-2.1406 2.1562 0 1.4688 0.84375 2.1875 2.25 2.1875 0.34375 0 0.85938-0.046875 1.4375-0.32812 0.20312-0.10938 0.26562-0.125 0.26562-0.23438 0-0.0625-0.03125-0.32812-0.03125-0.40625-0.046875-0.26562-0.046875-0.28125-0.125-0.28125-0.046875 0-0.0625 0-0.15625 0.09375-0.53125 0.45312-1.0625 0.51562-1.3594 0.51562-1 0-1.1094-0.79688-1.1406-1.375h2.4375c0.20312 0 0.42188 0 0.42188-0.40625zm-0.98438-0.0625h-1.8594c0.015625-0.54688 0.20312-1.2188 0.98438-1.2188 0.71875 0 0.84375 0.51562 0.875 1.2188z"/>
  </g>
  <g id="ao">
   <path d="m3.3438-0.42188c0-0.03125-0.015625-0.09375-0.078125-0.28125-0.046875-0.17188-0.0625-0.23438-0.14062-0.23438-0.046875 0-0.046875 0.015625-0.10938 0.0625-0.09375 0.078125-0.34375 0.28125-0.71875 0.28125-0.20312 0-0.34375-0.15625-0.34375-0.75v-2.1094h0.79688c0.10938 0 0.42188 0 0.42188-0.32812 0-0.3125-0.3125-0.3125-0.42188-0.3125h-0.79688v-0.75c0-0.28125-0.0625-0.42188-0.4375-0.42188h-0.26562c-0.32812 0-0.4375 0.09375-0.4375 0.42188v0.75h-0.20312c-0.09375 0-0.4375 0-0.4375 0.3125 0 0.32812 0.32812 0.32812 0.4375 0.32812h0.17188v2.2656c0 0.90625 0.32812 1.2812 0.95312 1.2812 0.078125 0 0.46875 0 0.9375-0.14062 0.14062-0.046875 0.67188-0.20312 0.67188-0.375z"/>
  </g>
  <g id="an">
   <path d="m4.0938-0.45312c0-0.09375-0.03125-0.5-0.0625-0.625 0-0.015625-0.015625-0.10938-0.09375-0.10938-0.046875 0-0.0625 0-0.15625 0.09375-0.14062 0.125-0.5625 0.5-1.2969 0.5-0.9375 0-0.9375-0.90625-0.9375-1.4844 0-0.71875 0.046875-1.4688 0.95312-1.4688 0.59375 0 0.82812 0.14062 1.1562 0.40625 0.10938 0.09375 0.125 0.09375 0.15625 0.09375 0.09375 0 0.10938-0.078125 0.125-0.10938 0.015625-0.078125 0.09375-0.57812 0.09375-0.625 0-0.078125-0.0625-0.10938-0.20312-0.1875-0.4375-0.1875-0.70312-0.28125-1.3281-0.28125-1.3438 0-2.1719 0.625-2.1719 2.1875 0 1.4844 0.76562 2.1562 2.125 2.1562 0.23438 0 0.78125 0 1.375-0.3125 0.25-0.125 0.26562-0.14062 0.26562-0.23438z"/>
  </g>
  <g id="be">
   <path d="m4.4688-0.4375v-2.4688c0-0.92188-0.39062-1.2969-1.2969-1.2969-0.89062 0-1.3125 0.625-1.4375 0.875v-2.4531c0-0.28125-0.0625-0.4375-0.4375-0.4375h-0.32812c-0.32812 0-0.4375 0.10938-0.4375 0.4375v5.3438c0 0.32812 0.10938 0.4375 0.4375 0.4375h0.35938c0.34375 0 0.42188-0.10938 0.42188-0.4375v-1.9688c0-0.78125 0.53125-1.1406 0.98438-1.1406 0.4375 0 0.53125 0.20312 0.53125 0.65625v2.4531c0 0.29688 0.0625 0.4375 0.42188 0.4375h0.35938c0.34375 0 0.42188-0.10938 0.42188-0.4375z"/>
  </g>
  <g id="cn">
   <path d="m3.1875-3.5312v-0.42188c0-0.1875 0-0.25-0.15625-0.25-0.25 0-0.90625 0.09375-1.3281 1.0625h-0.015625v-0.57812c0-0.29688-0.0625-0.4375-0.42188-0.4375h-0.29688c-0.3125 0-0.42188 0.09375-0.42188 0.4375v3.2812c0 0.32812 0.09375 0.4375 0.42188 0.4375h0.34375c0.32812 0 0.42188-0.10938 0.42188-0.4375v-1.625c0-0.84375 0.70312-1.2031 1.2812-1.2344 0.15625 0 0.17188 0 0.17188-0.23438z"/>
  </g>
  <g id="am">
   <path d="m4.25-0.4375v-2.3906c0-1.4219-1.3594-1.4219-1.8125-1.4219-0.42188 0-0.875 0.03125-1.4688 0.28125-0.1875 0.078125-0.23438 0.10938-0.23438 0.20312 0 0.0625 0.046875 0.59375 0.0625 0.65625s0.046875 0.09375 0.10938 0.09375c0.046875 0 0.078125-0.015625 0.10938-0.046875 0.375-0.40625 0.82812-0.59375 1.3906-0.59375 0.48438 0 0.625 0.29688 0.625 0.8125v0.3125c-0.3125 0-2.6719 0.03125-2.6719 1.3438 0 0.625 0.51562 1.2812 1.2969 1.2812 0.29688 0 0.96875-0.078125 1.3906-0.70312v0.17188c0 0.29688 0.0625 0.4375 0.4375 0.4375h0.32812c0.34375 0 0.4375-0.10938 0.4375-0.4375zm-1.2188-0.9375c0 0.82812-0.85938 0.82812-0.875 0.82812-0.39062 0-0.625-0.32812-0.625-0.65625 0-0.89062 1.25-0.95312 1.5-0.95312z"/>
  </g>
  <g id="bd">
   <path d="m4.4688-0.4375v-5.3438c0-0.28125-0.0625-0.4375-0.4375-0.4375h-0.32812c-0.34375 0-0.42188 0.125-0.42188 0.4375v2.0312c-0.40625-0.39062-0.85938-0.45312-1.125-0.45312-1.8281 0-1.8281 1.7188-1.8281 2.1562 0 0.42188 0 2.1406 1.7812 2.1406 0.375 0 0.75-0.10938 1.1406-0.51562 0 0.32812 0.125 0.42188 0.4375 0.42188h0.34375c0.34375 0 0.4375-0.10938 0.4375-0.4375zm-1.2188-0.6875c0 0.15625 0 0.23438-0.26562 0.42188-0.21875 0.14062-0.42188 0.15625-0.53125 0.15625-0.90625 0-0.90625-0.82812-0.90625-1.5s0-1.5 1-1.5c0.26562 0 0.5 0.078125 0.70312 0.26562z"/>
  </g>
  <g id="bc">
   <path d="m4.4688-0.4375v-2.4688c0-0.92188-0.39062-1.2969-1.2969-1.2969-0.9375 0-1.3438 0.6875-1.4688 0.92188v-0.4375c0-0.29688-0.0625-0.4375-0.4375-0.4375h-0.29688c-0.32812 0-0.4375 0.09375-0.4375 0.4375v3.2812c0 0.32812 0.10938 0.4375 0.4375 0.4375h0.35938c0.34375 0 0.42188-0.10938 0.42188-0.4375v-1.9688c0-0.78125 0.53125-1.1406 0.98438-1.1406 0.4375 0 0.53125 0.20312 0.53125 0.65625v2.4531c0 0.29688 0.0625 0.4375 0.42188 0.4375h0.35938c0.34375 0 0.42188-0.10938 0.42188-0.4375z"/>
  </g>
  <g id="bb">
   <path d="m1.7344-0.4375v-5.3438c0-0.28125-0.0625-0.4375-0.42188-0.4375h-0.34375c-0.3125 0-0.42188 0.10938-0.42188 0.4375v5.3438c0 0.32812 0.09375 0.4375 0.42188 0.4375h0.34375c0.32812 0 0.42188-0.10938 0.42188-0.4375z"/>
  </g>
  <g id="ct">
   <path d="m4.2344-3.8594c0-0.23438-0.23438-0.23438-0.35938-0.23438h-0.1875c-0.15625 0-0.34375 0-0.48438 0.20312-0.03125 0.046875-0.75 2.0156-0.79688 2.625-0.046875-0.4375-0.42188-1.2812-0.79688-2.1406-0.25-0.5625-0.3125-0.6875-0.76562-0.6875h-0.23438c-0.125 0-0.34375 0-0.34375 0.21875 0 0.046875 0.015625 0.10938 0.03125 0.15625l1.7031 3.7188c-0.078125 0.1875-0.10938 0.28125-0.125 0.375-0.10938 0.29688-0.26562 0.70312-0.75 0.70312-0.29688 0-0.5-0.125-0.59375-0.1875-0.046875-0.03125-0.0625-0.046875-0.09375-0.046875-0.046875 0-0.10938 0.03125-0.10938 0.14062 0 0.078125 0.046875 0.6875 0.078125 0.71875 0.078125 0.10938 0.5625 0.125 0.70312 0.125 1.1094 0 1.5469-1.0469 1.625-1.2656l1.4531-4.25c0.046875-0.10938 0.046875-0.125 0.046875-0.17188z"/>
  </g>
  <g id="cs">
   <path d="m3.9531-0.32812c0-0.34375-0.28125-0.34375-0.54688-0.34375l-1.3594 0.015625h-0.42188l2.1875-2.7656c0.09375-0.10938 0.10938-0.15625 0.10938-0.29688 0-0.375-0.28125-0.375-0.4375-0.375h-2.6406c-0.125 0-0.4375 0-0.4375 0.32812 0 0.34375 0.29688 0.34375 0.53125 0.34375l1.2969-0.03125h0.32812l-2.1719 2.7656c-0.09375 0.125-0.10938 0.17188-0.10938 0.3125 0 0.375 0.28125 0.375 0.42188 0.375h2.8125c0.125 0 0.4375 0 0.4375-0.32812z"/>
  </g>
  <g id="cr">
   <path d="m4.4531-0.20312s0-0.078125-0.09375-0.1875l-1.5625-2.0469 1.3906-1.2812c0.09375-0.09375 0.125-0.125 0.125-0.1875 0-0.1875-0.17188-0.1875-0.29688-0.1875h-0.53125c-0.15625 0-0.32812 0-0.53125 0.1875l-1.2812 1.1875v-3.0625c0-0.28125-0.0625-0.4375-0.4375-0.4375h-0.1875c-0.32812 0-0.42188 0.10938-0.42188 0.4375v5.3438c0 0.32812 0.09375 0.4375 0.42188 0.4375h0.15625c0.34375 0 0.4375-0.10938 0.4375-0.4375v-0.92188c0.14062-0.125 0.28125-0.26562 0.42188-0.39062l1.1562 1.5312c0.15625 0.1875 0.21875 0.21875 0.48438 0.21875h0.42188c0.125 0 0.32812 0 0.32812-0.20312z"/>
  </g>
  <g id="cq">
   <path d="m4.6875-2.0625c0-0.4375 0-2.1406-1.625-2.1406-0.53125 0-1 0.21875-1.3281 0.51562 0-0.32812-0.125-0.40625-0.42188-0.40625h-0.34375c-0.3125 0-0.42188 0.09375-0.42188 0.42188v4.9844c0 0.3125 0.09375 0.42188 0.42188 0.42188h0.35938c0.34375 0 0.4375-0.10938 0.4375-0.42188v-1.6562c0.40625 0.4375 0.89062 0.4375 1.0156 0.4375 1.9062 0 1.9062-1.7188 1.9062-2.1562zm-1.2188 0.015625c0 0.35938 0 1.5-1.0156 1.5-0.20312 0-0.35938-0.078125-0.46875-0.15625-0.21875-0.14062-0.21875-0.1875-0.21875-0.35938v-2.1406c0.09375-0.09375 0.39062-0.29688 0.78125-0.29688 0.90625 0 0.92188 1.0625 0.92188 1.4531z"/>
  </g>
  <g id="cp">
   <path d="m4.6406-2.0156c0-1.4688-0.71875-2.2344-2.1719-2.2344-1.5 0-2.1875 0.79688-2.1875 2.2344 0 1.4531 0.76562 2.1094 2.1719 2.1094s2.1875-0.64062 2.1875-2.1094zm-1.2188-0.10938c0 0.70312 0 1.5312-0.95312 1.5312-0.96875 0-0.96875-0.8125-0.96875-1.5312 0-0.6875 0-1.4844 0.95312-1.4844 0.96875 0 0.96875 0.79688 0.96875 1.4844z"/>
  </g>
  <g id="co">
   <path d="m1.7344-0.4375v-3.2344c0-0.28125-0.0625-0.42188-0.42188-0.42188h-0.34375c-0.3125 0-0.42188 0.09375-0.42188 0.42188v3.2344c0 0.32812 0.09375 0.4375 0.42188 0.4375h0.34375c0.32812 0 0.42188-0.10938 0.42188-0.4375zm0.0625-4.9844v-0.17188c0-0.28125-0.0625-0.4375-0.42188-0.4375h-0.46875c-0.32812 0-0.42188 0.125-0.42188 0.4375v0.17188c0 0.25 0.046875 0.42188 0.42188 0.42188h0.46875c0.375 0 0.42188-0.15625 0.42188-0.42188z"/>
  </g>
  <g id="u">
   <path d="m3.4062-3.0156 0.10938-0.59375c-0.65625 0-1.2031 0.32812-1.625 0.75l0.15625-0.73438h-0.60938l-0.76562 3.5938h0.67188l0.35938-1.6875c0.1875-0.85938 1-1.3281 1.7031-1.3281z"/>
  </g>
  <g id="t">
   <path d="m3.875-1.7344c0.0625-0.375 0.15625-0.90625-0.0625-1.3594-0.20312-0.40625-0.64062-0.5625-1.0312-0.5625-0.96875 0-1.9062 0.85938-2.125 1.8594-0.20312 1.0312 0.40625 1.875 1.4531 1.875 0.45312 0 0.95312-0.14062 1.4219-0.375l0.078125-0.5625c-0.51562 0.3125-1.0469 0.40625-1.375 0.40625-0.70312 0-1.1094-0.5625-0.96875-1.2812zm-0.39062-0.48438h-2.0625c0.3125-0.64062 0.84375-0.90625 1.25-0.90625 0.34375 0 0.8125 0.17188 0.8125 0.90625z"/>
  </g>
  <g id="az">
   <path d="m4.4531-1.7812c0.20312-0.95312-0.14062-1.8281-0.9375-1.8281-0.34375 0-0.96875 0.10938-1.5 0.45312l0.078125-0.375h-0.67188l-1.0781 5.0781h0.70312l0.40625-1.9219c0.34375 0.39062 0.78125 0.45312 1.0469 0.45312 0.84375 0 1.7188-0.79688 1.9531-1.8594zm-0.70312 0c-0.15625 0.79688-0.875 1.3281-1.4844 1.3281-0.125 0-0.32812-0.015625-0.48438-0.17188-0.20312-0.1875-0.21875-0.3125-0.1875-0.45312l0.34375-1.5625c0.21875-0.21875 0.57812-0.42188 0.95312-0.42188 0.64062 0 1.0156 0.59375 0.85938 1.2812z"/>
  </g>
  <g id="s">
   <path d="m3.4688 0 0.48438-2.2969c0.17188-0.8125-0.32812-1.3594-1.1094-1.3594-0.5 0-0.90625 0.10938-1.4062 0.34375l-0.078125 0.57812c0.29688-0.17188 0.73438-0.40625 1.375-0.40625 0.34375 0 0.65625 0.26562 0.53125 0.85938l-0.0625 0.3125c-1.2031 0.046875-2.4062 0.29688-2.5625 1.0312-0.09375 0.39062 0.046875 1.0156 0.75 1.0156 0.34375 0 0.98438-0.0625 1.4688-0.375l-0.0625 0.29688zm-0.45312-1.125c-0.03125 0.15625-0.078125 0.35938-0.39062 0.53125-0.28125 0.14062-0.59375 0.14062-0.6875 0.14062-0.4375 0-0.73438-0.1875-0.67188-0.5 0.125-0.5 1.4688-0.54688 1.8438-0.5625z"/>
  </g>
  <g id="ae">
   <path d="m2.8594-0.21875-0.03125-0.5c-0.29688 0.1875-0.57812 0.25-0.8125 0.25-0.32812 0-0.35938-0.32812-0.28125-0.6875l0.40625-1.875h1.1719l0.10938-0.5h-1.1719l0.20312-1.0156h-0.60938l-0.21875 1.0156h-0.71875l-0.10938 0.5h0.70312l-0.42188 2.0156c-0.10938 0.53125-0.09375 1.0938 0.46875 1.0938 0.57812 0 1.0469-0.1875 1.3125-0.29688z"/>
  </g>
  <g id="ay">
   <path d="m3.7031 0 0.75-3.5312h-0.70312l-0.48438 2.3125c-0.125 0.625-0.71875 0.82812-1.1875 0.82812-0.57812 0-0.60938-0.15625-0.53125-0.53125l0.54688-2.6094h-0.6875l-0.5625 2.6719c-0.15625 0.70312 0.10938 0.9375 0.67188 0.9375 0.32812 0 1.0312-0.0625 1.5938-0.4375l-0.078125 0.35938z"/>
  </g>
  <g id="ad">
   <path d="m3.7031 0 0.5-2.3594c0.125-0.60938 0.078125-1.25-0.90625-1.25-0.45312 0-0.92188 0.1875-1.3594 0.60938l0.125-0.59375h-0.64062l-0.76562 3.5938h0.70312l0.40625-1.9375c0.10938-0.51562 0.46875-1.1406 1.0781-1.1406 0.8125 0 0.70312 0.54688 0.64062 0.78125l-0.48438 2.2969z"/>
  </g>
  <g id="aj">
   <path d="m1.3438 0 0.73438-3.5312h-0.65625l-0.75 3.5312zm1.0156-4.4531 0.15625-0.79688h-0.79688l-0.17188 0.79688z"/>
  </g>
  <g id="ci">
   <path d="m8.8594-1.9219 0.10938-0.51562h-8.4531l-0.10938 0.51562z"/>
  </g>
  <g id="ch">
   <path d="m4.4531-1.7812c0.20312-0.95312-0.17188-1.8281-0.96875-1.8281-0.5 0-1.0156 0.15625-1.4688 0.45312l0.5-2.3594h-0.65625l-1.1875 5.5156h0.70312l0.078125-0.375c0.14062 0.15625 0.45312 0.45312 1.0312 0.45312 0.875 0 1.75-0.8125 1.9688-1.8594zm-0.70312 0c-0.20312 0.98438-0.9375 1.3281-1.4844 1.3281-0.29688 0-0.54688-0.125-0.70312-0.48438l0.34375-1.5625c0.015625-0.125 0.046875-0.23438 0.35938-0.40625 0.14062-0.078125 0.35938-0.17188 0.64062-0.17188 0.53125 0 1.0469 0.34375 0.84375 1.2969z"/>
  </g>
  <g id="cm">
   <path d="m4.3438-1.7344c0.23438-1.0625-0.42188-1.9219-1.4531-1.9219s-2.0625 0.875-2.2812 1.9219c-0.21875 1 0.45312 1.8125 1.4844 1.8125s2.0469-0.8125 2.25-1.8125zm-0.67188-0.09375c-0.1875 0.90625-0.84375 1.3594-1.4531 1.3594-0.64062 0-1.0938-0.46875-0.90625-1.3594 0.20312-0.90625 0.875-1.2969 1.4688-1.2969s1.0781 0.40625 0.89062 1.2969z"/>
  </g>
  <g id="ba">
   <path d="m3.6875 0 1.1719-5.5156h-0.67188l-0.5 2.3281c-0.42188-0.375-0.9375-0.42188-1.1719-0.42188-0.82812 0-1.6406 0.82812-1.8594 1.8438-0.20312 1.0156 0.25 1.8438 1.0625 1.8438 0.5 0 1-0.21875 1.3594-0.48438l-0.09375 0.40625zm-0.48438-0.98438c-0.26562 0.32812-0.625 0.53125-1 0.53125-0.5625 0-1.0469-0.375-0.84375-1.2969 0.20312-1 0.95312-1.3281 1.4844-1.3281 0.32812 0 0.5625 0.125 0.71875 0.39062z"/>
  </g>
  <g id="al">
   <path d="m3.2656-1.0312c0.03125-0.14062 0.078125-0.45312-0.1875-0.76562-0.23438-0.25-0.51562-0.3125-0.89062-0.375-0.4375-0.09375-0.79688-0.17188-0.71875-0.51562 0.09375-0.45312 0.67188-0.45312 0.79688-0.45312 0.45312 0 0.78125 0.09375 1.1406 0.29688l0.21875-0.5625c-0.48438-0.21875-0.875-0.25-1.1719-0.25-0.1875 0-1.3906 0-1.625 1.0625-0.078125 0.375 0.09375 0.57812 0.17188 0.67188 0.21875 0.28125 0.53125 0.34375 0.9375 0.42188 0.35938 0.078125 0.78125 0.15625 0.6875 0.53125-0.10938 0.5-0.76562 0.5-0.875 0.5-0.51562 0-0.95312-0.17188-1.2188-0.39062l-0.23438 0.59375c0.25 0.125 0.6875 0.34375 1.3438 0.34375 0.35938 0 0.71875-0.046875 1.0625-0.26562 0.32812-0.21875 0.5-0.57812 0.5625-0.84375z"/>
  </g>
  <g id="ak">
   <path d="m4.75-3.0625 0.015625-0.54688c-0.17188 0-0.70312 0-1.3594 0.23438l-0.015625 0.015625c-0.25-0.20312-0.51562-0.25-0.75-0.25-0.78125 0-1.4844 0.60938-1.625 1.2969-0.0625 0.28125-0.03125 0.5625 0.10938 0.78125-0.14062 0.14062-0.3125 0.35938-0.375 0.67188-0.0625 0.29688 0.015625 0.5 0.0625 0.59375-0.48438 0.25-0.65625 0.625-0.6875 0.8125-0.14062 0.60938 0.59375 1.0781 1.625 1.0781 1.0469 0 1.9844-0.46875 2.1094-1.0781 0.23438-1.125-1.1562-1.125-1.5-1.125h-0.73438c-0.125 0-0.46875 0-0.39062-0.40625 0.046875-0.15625 0.125-0.23438 0.125-0.25 0.23438 0.17188 0.51562 0.21875 0.71875 0.21875 0.78125 0 1.5-0.60938 1.6406-1.2969 0.046875-0.25 0.03125-0.48438-0.0625-0.6875-0.015625-0.046875-0.015625-0.0625-0.015625-0.0625 0-0.046875 0.48438-0.046875 0.51562-0.046875 0 0 0.3125 0 0.59375 0.046875zm-1.6406 0.75c-0.14062 0.625-0.57812 0.8125-0.92188 0.8125-0.42188 0-0.6875-0.28125-0.5625-0.8125 0.125-0.60938 0.5625-0.8125 0.90625-0.8125 0.42188 0 0.6875 0.28125 0.57812 0.8125zm0.14062 2.875c-0.0625 0.34375-0.71875 0.57812-1.375 0.57812-0.67188 0-1.2188-0.23438-1.1562-0.57812 0.015625-0.046875 0.10938-0.51562 0.76562-0.51562h0.76562c0.17188 0 1.1094 0 1 0.51562z"/>
  </g>
  <g id="cl">
   <path d="m1.5312-0.015625 0.14062-0.70312h-0.70312l-0.15625 0.71875h0.21875l-0.4375 1.0156h0.35938z"/>
  </g>
  <g id="ck">
   <path d="m6.0469 0 0.5-2.3594c0.125-0.60938 0.078125-1.25-0.90625-1.25-0.65625 0-1.1562 0.39062-1.4062 0.64062-0.03125-0.21875-0.14062-0.64062-0.9375-0.64062-0.45312 0-0.92188 0.1875-1.3594 0.60938l0.125-0.59375h-0.64062l-0.76562 3.5938h0.70312l0.40625-1.9375c0.10938-0.51562 0.46875-1.1406 1.0781-1.1406 0.8125 0 0.70312 0.54688 0.64062 0.78125l-0.48438 2.2969h0.70312l0.40625-1.9375c0.10938-0.51562 0.46875-1.1406 1.0781-1.1406 0.8125 0 0.70312 0.54688 0.65625 0.78125l-0.48438 2.2969z"/>
  </g>
  <g id="cj">
   <path d="m4.5156-3.5312h-0.64062c-0.96875 1.5156-1.625 2.5469-1.7656 3.0312 0.03125-0.21875-0.03125-0.625-0.09375-1-0.0625-0.3125-0.10938-0.625-0.1875-0.9375l-0.28125-1.0938h-0.6875l0.90625 3.5312-0.45312 0.70312c-0.23438 0.32812-0.375 0.4375-0.59375 0.4375-0.03125 0-0.32812 0-0.625-0.14062l-0.078125 0.5625c0.078125 0.015625 0.35938 0.0625 0.60938 0.0625 0.3125 0 0.625-0.125 1.1094-0.89062z"/>
  </g>
  <g id="ax">
   <path d="m4.1562-1.8438c0-0.375 0-1.8906-1.4844-1.8906-0.65625 0-1.0625 0.375-1.125 0.45312v-1.8594c0-0.25-0.0625-0.375-0.39062-0.375h-0.29688c-0.28125 0-0.375 0.078125-0.375 0.375v4.7656c0 0.28125 0.09375 0.375 0.375 0.375h0.32812c0.125 0 0.375 0 0.375-0.3125 0.375 0.40625 0.78125 0.40625 0.90625 0.40625 1.6875 0 1.6875-1.5312 1.6875-1.9375zm-1.0781 0.015625c0 0.59375 0 1.3438-0.89062 1.3438-0.32812 0-0.53125-0.20312-0.625-0.3125v-2.0781c0.10938-0.09375 0.34375-0.28125 0.71875-0.28125 0.79688 0 0.79688 0.73438 0.79688 1.3281z"/>
  </g>
  <g id="aw">
   <path d="m3.7656-0.375v-2.1406c0-1.25-1.2031-1.2656-1.6094-1.2656-0.35938 0-0.76562 0.03125-1.2969 0.26562-0.17188 0.0625-0.20312 0.09375-0.20312 0.17188 0 0.0625 0.046875 0.51562 0.046875 0.57812 0.015625 0.046875 0.046875 0.09375 0.10938 0.09375 0.03125 0 0.0625-0.03125 0.09375-0.046875 0.32812-0.35938 0.73438-0.53125 1.2188-0.53125 0.4375 0 0.5625 0.26562 0.5625 0.73438v0.26562c-0.28125 0-2.3594 0.015625-2.3594 1.1875 0 0.5625 0.4375 1.1562 1.1406 1.1562 0.26562 0 0.875-0.078125 1.25-0.64062v0.17188c0 0.25 0.046875 0.375 0.375 0.375h0.29688c0.29688 0 0.375-0.10938 0.375-0.375zm-1.0781-0.84375c0 0.73438-0.75 0.73438-0.78125 0.73438-0.32812 0-0.54688-0.28125-0.54688-0.59375 0-0.78125 1.1094-0.82812 1.3281-0.84375z"/>
  </g>
  <g id="cg">
   <path d="m3.1562-1.125c0-0.4375-0.25-0.71875-0.39062-0.84375-0.3125-0.29688-0.59375-0.34375-0.92188-0.40625-0.4375-0.078125-0.76562-0.14062-0.76562-0.45312 0-0.32812 0.26562-0.39062 0.57812-0.39062 0.53125 0 0.8125 0.20312 1.0312 0.375 0.078125 0.078125 0.09375 0.078125 0.125 0.078125 0.078125 0 0.09375-0.0625 0.09375-0.09375 0.015625-0.0625 0.09375-0.51562 0.09375-0.54688 0-0.14062-0.42188-0.25-0.5-0.28125-0.32812-0.078125-0.57812-0.09375-0.78125-0.09375-0.35938 0-1.4219 0-1.4219 1.1406 0 0.39062 0.17188 0.625 0.39062 0.8125 0.28125 0.26562 0.57812 0.3125 1.0312 0.40625 0.23438 0.03125 0.64062 0.10938 0.64062 0.45312 0 0.375-0.3125 0.4375-0.625 0.4375-0.34375 0-0.78125-0.10938-1.1562-0.54688-0.046875-0.046875-0.0625-0.0625-0.10938-0.0625-0.09375 0-0.10938 0.0625-0.10938 0.10938-0.015625 0.10938-0.10938 0.5625-0.10938 0.65625 0 0.14062 0.59375 0.32812 0.59375 0.32812 0.4375 0.14062 0.76562 0.14062 0.89062 0.14062 0.40625 0 1.4219-0.03125 1.4219-1.2188z"/>
  </g>
  <g id="cf">
   <path d="m3.8125-2.0625c0-1.0312-0.48438-1.7188-1.6719-1.7188-1.2656 0-1.8906 0.71875-1.8906 1.9219 0 1.3125 0.75 1.9531 2 1.9531 0.29688 0 0.75-0.046875 1.2812-0.3125 0.17188-0.078125 0.23438-0.10938 0.23438-0.20312 0-0.0625-0.03125-0.28125-0.03125-0.34375-0.03125-0.25-0.046875-0.26562-0.10938-0.26562-0.03125 0-0.046875 0-0.14062 0.078125-0.46875 0.40625-0.95312 0.46875-1.2031 0.46875-0.89062 0-1-0.70312-1.0156-1.2188h2.1562c0.1875 0 0.39062 0 0.39062-0.35938zm-0.89062-0.0625h-1.6562c0.03125-0.48438 0.1875-1.0781 0.875-1.0781 0.64062 0 0.76562 0.45312 0.78125 1.0781z"/>
  </g>
  <g id="ce">
   <path d="m3.9844-0.375v-2.2031c0-0.82812-0.35938-1.1562-1.1719-1.1562-0.82812 0-1.1875 0.60938-1.2969 0.82812v-0.40625c0-0.25-0.0625-0.375-0.39062-0.375h-0.26562c-0.28125 0-0.375 0.078125-0.375 0.375v2.9375c0 0.28125 0.078125 0.375 0.375 0.375h0.3125c0.3125 0 0.39062-0.10938 0.39062-0.375v-1.7656c0-0.6875 0.45312-1.0156 0.875-1.0156 0.375 0 0.45312 0.1875 0.45312 0.59375v2.1875c0 0.25 0.0625 0.375 0.39062 0.375h0.3125c0.29688 0 0.39062-0.10938 0.39062-0.375z"/>
  </g>
  <g id="cd">
   <path d="m3.9688-0.375v-4.7656c0-0.25-0.0625-0.375-0.375-0.375h-0.29688c-0.3125 0-0.39062 0.09375-0.39062 0.375v1.8125c-0.35938-0.34375-0.75-0.40625-1-0.40625-1.6094 0-1.6094 1.5312-1.6094 1.9219 0 0.35938 0 1.9062 1.5781 1.9062 0.32812 0 0.67188-0.10938 1.0156-0.46875 0 0.29688 0.10938 0.375 0.375 0.375h0.32812c0.29688 0 0.375-0.10938 0.375-0.375zm-1.0781-0.625c0 0.14062 0 0.21875-0.23438 0.375-0.20312 0.125-0.375 0.14062-0.48438 0.14062-0.79688 0-0.79688-0.73438-0.79688-1.3281s0-1.3438 0.89062-1.3438c0.23438 0 0.45312 0.078125 0.625 0.25z"/>
  </g>
  <clipPath id="eg">
   <path d="m0.92188 0h1113.8v517.12h-1113.8z"/>
  </clipPath>
 </defs>
 <g clip-path="url(#eg)">
  <path d="m0.92188 13.922v489.28c0 7.6914 6.2344 13.922 13.922 13.922h1086c7.6914 0 13.922-6.2305 13.922-13.922v-489.28c0-7.6875-6.2305-13.922-13.922-13.922h-1086c-7.6875 0-13.922 6.2344-13.922 13.922z" fill="#092134"/>
 </g>
 <g fill="#e5f2fa">
  <use x="40.899092" y="51.710873" xlink:href="#ef"/>
  <use x="52.276438" y="51.710873" xlink:href="#cc"/>
  <use x="59.708588" y="51.710873" xlink:href="#cb"/>
  <use x="75.625416" y="51.710873" xlink:href="#ee"/>
  <use x="88.398975" y="51.710873" xlink:href="#ca"/>
  <use x="93.728929" y="51.710873" xlink:href="#ed"/>
  <use x="101.763956" y="51.710873" xlink:href="#ec"/>
  <use x="115.040152" y="51.710873" xlink:href="#cb"/>
  <use x="125.271887" y="51.710873" xlink:href="#cc"/>
  <use x="132.704037" y="51.710873" xlink:href="#ca"/>
  <use x="138.03399" y="51.710873" xlink:href="#eb"/>
  <use x="145.630821" y="51.710873" xlink:href="#ea"/>
 </g>
 <g fill="#7fe3e7">
  <use x="40.899092" y="79.556187" xlink:href="#dz"/>
  <use x="43.709426" y="79.556187" xlink:href="#ac"/>
  <use x="48.308887" y="79.556187" xlink:href="#ai"/>
  <use x="53.059605" y="79.556187" xlink:href="#aa"/>
  <use x="59.271875" y="79.556187" xlink:href="#q"/>
  <use x="64.022592" y="79.556187" xlink:href="#by"/>
  <use x="66.218949" y="79.556187" xlink:href="#h"/>
  <use x="70.307359" y="79.556187" xlink:href="#ah"/>
  <use x="74.395768" y="79.556187" xlink:href="#h"/>
  <use x="78.484178" y="79.556187" xlink:href="#bx"/>
 </g>
 <g fill="#89a6be">
  <use x="85.072685" y="79.556187" xlink:href="#bw"/>
 </g>
 <g fill="#e5f2fa">
  <use x="97.33736" y="79.556187" xlink:href="#ac"/>
  <use x="101.93682" y="79.556187" xlink:href="#o"/>
  <use x="106.687538" y="79.556187" xlink:href="#h"/>
  <use x="113.845835" y="79.556187" xlink:href="#bz"/>
  <use x="118.776449" y="79.556187" xlink:href="#dy"/>
  <use x="123.017011" y="79.556187" xlink:href="#h"/>
  <use x="127.10542" y="79.556187" xlink:href="#r"/>
  <use x="134.917075" y="79.556187" xlink:href="#h"/>
  <use x="139.005485" y="79.556187" xlink:href="#o"/>
  <use x="143.756202" y="79.556187" xlink:href="#dx"/>
  <use x="148.355663" y="79.556187" xlink:href="#by"/>
  <use x="150.55202" y="79.556187" xlink:href="#o"/>
  <use x="155.302737" y="79.556187" xlink:href="#h"/>
 </g>
 <g fill="#89a6be">
  <use x="162.45982" y="79.556187" xlink:href="#bw"/>
 </g>
 <g fill="#fabe24">
  <use x="174.724495" y="79.556187" xlink:href="#av"/>
  <use x="179.144058" y="79.556187" xlink:href="#o"/>
  <use x="183.894776" y="79.556187" xlink:href="#av"/>
  <use x="188.314339" y="79.556187" xlink:href="#dw"/>
  <use x="190.510696" y="79.556187" xlink:href="#dv"/>
  <use x="194.751257" y="79.556187" xlink:href="#au"/>
  <use x="198.749271" y="79.556187" xlink:href="#h"/>
  <use x="202.83768" y="79.556187" xlink:href="#aa"/>
  <use x="205.980063" y="79.556187" xlink:href="#at"/>
  <use x="209.046371" y="79.556187" xlink:href="#r"/>
  <use x="213.797088" y="79.556187" xlink:href="#h"/>
  <use x="217.885498" y="79.556187" xlink:href="#bz"/>
  <use x="222.816112" y="79.556187" xlink:href="#o"/>
  <use x="227.56683" y="79.556187" xlink:href="#h"/>
  <use x="231.65524" y="79.556187" xlink:href="#r"/>
  <use x="239.475844" y="79.556187" xlink:href="#q"/>
  <use x="243.967009" y="79.556187" xlink:href="#aa"/>
  <use x="247.109392" y="79.556187" xlink:href="#ac"/>
  <use x="251.968406" y="79.556187" xlink:href="#r"/>
  <use x="256.719123" y="79.556187" xlink:href="#ai"/>
  <use x="261.469841" y="79.556187" xlink:href="#ah"/>
  <use x="265.55825" y="79.556187" xlink:href="#as"/>
  <use x="268.879636" y="79.556187" xlink:href="#bx"/>
 </g>
 <path transform="matrix(.99818 0 0 -.99818 .92186 0)" d="m383.57-103.61h-133.5c-4.3986 0-7.9676-3.569-7.9676-7.9676v-37.862c0-4.3986 3.569-7.9676 7.9676-7.9676h133.5c4.3986 0 7.9676 3.569 7.9676 7.9676v37.862c0 4.3986-3.569 7.9676-7.9676 7.9676z" fill="#10314c" stroke="#4ed0df" stroke-miterlimit="10" stroke-width=".99628"/>
 <path transform="matrix(.99818 0 0 -.99818 .92186 0)" d="m550.94-103.61h-133.5c-4.3986 0-7.9676-3.569-7.9676-7.9676v-37.862c0-4.3986 3.569-7.9676 7.9676-7.9676h133.5c4.3986 0 7.9676 3.569 7.9676 7.9676v37.862c0 4.3986-3.569 7.9676-7.9676 7.9676z" fill="#10314c" stroke="#4ed0df" stroke-miterlimit="10" stroke-width=".99628"/>
 <path transform="matrix(.99818 0 0 -.99818 .92186 0)" d="m718.32-103.61h-133.5c-4.3986 0-7.9676-3.569-7.9676-7.9676v-37.862c0-4.3986 3.569-7.9676 7.9676-7.9676h133.5c4.4025 0 7.9676 3.569 7.9676 7.9676v37.862c0 4.3986-3.5651 7.9676-7.9676 7.9676z" fill="#10314c" stroke="#4ed0df" stroke-miterlimit="10" stroke-width=".99628"/>
 <path transform="matrix(.99818 0 0 -.99818 .92186 0)" d="m885.69-103.61h-133.5c-4.4025 0-7.9715-3.569-7.9715-7.9676v-37.862c0-4.3986 3.569-7.9676 7.9715-7.9676h133.5c4.4025 0 7.9676 3.569 7.9676 7.9676v37.862c0 4.3986-3.5651 7.9676-7.9676 7.9676z" fill="#10314c" stroke="#f6a622" stroke-miterlimit="10" stroke-width=".99628"/>
 <g fill="#7fe3e7">
  <use x="292.700747" y="127.290298" xlink:href="#bv"/>
  <use x="295.241566" y="127.290298" xlink:href="#z"/>
  <use x="300.821424" y="127.290298" xlink:href="#br"/>
  <use x="305.015019" y="127.290298" xlink:href="#bq"/>
  <use x="309.034586" y="127.290298" xlink:href="#n"/>
  <use x="312.735928" y="127.290298" xlink:href="#bp"/>
  <use x="318.315786" y="127.290298" xlink:href="#dp"/>
  <use x="326.934683" y="127.290298" xlink:href="#g"/>
  <use x="332.017316" y="127.290298" xlink:href="#z"/>
  <use x="337.597174" y="127.290298" xlink:href="#bq"/>
 </g>
 <g fill="#89a6be">
  <use x="283.410657" y="144.195526" xlink:href="#b"/>
  <use x="286.463228" y="144.195526" xlink:href="#a"/>
  <use x="290.219871" y="144.195526" xlink:href="#l"/>
  <use x="292.236621" y="144.195526" xlink:href="#a"/>
  <use x="295.993264" y="144.195526" xlink:href="#e"/>
  <use x="299.233587" y="144.195526" xlink:href="#w"/>
  <use x="302.99023" y="144.195526" xlink:href="#f"/>
  <use x="307.217051" y="144.195526" xlink:href="#v"/>
  <use x="311.820172" y="144.195526" xlink:href="#a"/>
  <use x="318.393104" y="144.195526" xlink:href="#bj"/>
  <use x="322.619924" y="144.195526" xlink:href="#a"/>
  <use x="326.376567" y="144.195526" xlink:href="#f"/>
  <use x="330.603387" y="144.195526" xlink:href="#bi"/>
  <use x="337.316338" y="144.195526" xlink:href="#a"/>
  <use x="341.072982" y="144.195526" xlink:href="#b"/>
  <use x="344.125552" y="144.195526" xlink:href="#d"/>
  <use x="347.012646" y="144.195526" xlink:href="#ag"/>
 </g>
 <g fill="#7fe3e7">
  <use x="469.782412" y="127.290298" xlink:href="#br"/>
  <use x="473.976007" y="127.290298" xlink:href="#do"/>
  <use x="479.445481" y="127.290298" xlink:href="#bp"/>
  <use x="485.025339" y="127.290298" xlink:href="#n"/>
  <use x="488.726681" y="127.290298" xlink:href="#bo"/>
  <use x="493.588546" y="127.290298" xlink:href="#g"/>
 </g>
 <g fill="#89a6be">
  <use x="455.907667" y="144.195526" xlink:href="#dn"/>
  <use x="461.68106" y="144.195526" xlink:href="#m"/>
  <use x="466.045512" y="144.195526" xlink:href="#a"/>
  <use x="469.802155" y="144.195526" xlink:href="#d"/>
  <use x="472.689249" y="144.195526" xlink:href="#a"/>
  <use x="479.262182" y="144.195526" xlink:href="#j"/>
  <use x="483.626634" y="144.195526" xlink:href="#c"/>
  <use x="487.687182" y="144.195526" xlink:href="#b"/>
  <use x="490.739753" y="144.195526" xlink:href="#c"/>
  <use x="497.616589" y="144.195526" xlink:href="#l"/>
  <use x="499.633339" y="144.195526" xlink:href="#y"/>
  <use x="501.650088" y="144.195526" xlink:href="#dm"/>
  <use x="505.545159" y="144.195526" xlink:href="#a"/>
  <use x="509.301802" y="144.195526" xlink:href="#e"/>
 </g>
 <g fill="#7fe3e7">
  <use x="637.109832" y="127.290298" xlink:href="#n"/>
  <use x="640.811174" y="127.290298" xlink:href="#g"/>
  <use x="645.893807" y="127.290298" xlink:href="#p"/>
  <use x="651.114669" y="127.290298" xlink:href="#ar"/>
  <use x="656.694527" y="127.290298" xlink:href="#g"/>
  <use x="661.77716" y="127.290298" xlink:href="#n"/>
 </g>
 <g fill="#89a6be">
  <use x="628.817925" y="144.195526" xlink:href="#af"/>
  <use x="633.34865" y="144.195526" xlink:href="#l"/>
  <use x="635.365399" y="144.195526" xlink:href="#a"/>
  <use x="641.94004" y="144.195526" xlink:href="#bh"/>
  <use x="653.210524" y="144.195526" xlink:href="#c"/>
  <use x="657.040359" y="144.195526" xlink:href="#d"/>
  <use x="659.919498" y="144.195526" xlink:href="#d"/>
  <use x="662.806592" y="144.195526" xlink:href="#c"/>
  <use x="666.636426" y="144.195526" xlink:href="#ag"/>
  <use x="670.531497" y="144.195526" xlink:href="#e"/>
 </g>
 <g fill="#fabe24">
  <use x="799.83463" y="127.290298" xlink:href="#p"/>
  <use x="805.055492" y="127.290298" xlink:href="#z"/>
  <use x="810.63535" y="127.290298" xlink:href="#p"/>
  <use x="815.856211" y="127.290298" xlink:href="#bu"/>
  <use x="818.397031" y="127.290298" xlink:href="#bt"/>
  <use x="823.36928" y="127.290298" xlink:href="#bs"/>
  <use x="828.106839" y="127.290298" xlink:href="#g"/>
  <use x="833.189472" y="127.290298" xlink:href="#n"/>
 </g>
 <g fill="#89a6be">
  <use x="787.530028" y="144.195526" xlink:href="#c"/>
  <use x="791.359862" y="144.195526" xlink:href="#d"/>
  <use x="794.239001" y="144.195526" xlink:href="#d"/>
  <use x="797.126095" y="144.195526" xlink:href="#c"/>
  <use x="800.95593" y="144.195526" xlink:href="#ag"/>
  <use x="804.851001" y="144.195526" xlink:href="#e"/>
  <use x="810.908473" y="144.195526" xlink:href="#bh"/>
  <use x="822.178957" y="144.195526" xlink:href="#v"/>
  <use x="826.312697" y="144.195526" xlink:href="#d"/>
  <use x="829.191835" y="144.195526" xlink:href="#f"/>
  <use x="833.657324" y="144.195526" xlink:href="#j"/>
  <use x="838.021776" y="144.195526" xlink:href="#i"/>
  <use x="842.386229" y="144.195526" xlink:href="#w"/>
  <use x="846.142872" y="144.195526" xlink:href="#b"/>
 </g>
 <path transform="matrix(.99818 0 0 -.99818 .92186 0)" d="m247.08-207.22v-151.44c0-6.6018 5.3496-11.955 11.955-11.955h605.73c6.6058 0 11.955 5.3535 11.955 11.955v151.44c0 6.6018-5.3496 11.955-11.955 11.955h-605.73c-6.6058 0-11.955-5.3535-11.955-11.955z" fill="#0d2841" stroke="#4ed0df" stroke-miterlimit="10" stroke-width="1.1955"/>
 <g fill="#e5f2fa">
  <use x="269.623753" y="222.757523" xlink:href="#cz"/>
  <use x="274.656101" y="222.757523" xlink:href="#cy"/>
  <use x="279.479613" y="222.757523" xlink:href="#cx"/>
  <use x="283.921253" y="222.757523" xlink:href="#aq"/>
  <use x="290.020454" y="222.757523" xlink:href="#cw"/>
  <use x="296.28553" y="222.757523" xlink:href="#cv"/>
  <use x="306.628275" y="222.757523" xlink:href="#bg"/>
  <use x="309.677278" y="222.757523" xlink:href="#ap"/>
  <use x="316.373153" y="222.757523" xlink:href="#bf"/>
  <use x="327.316152" y="222.757523" xlink:href="#aq"/>
  <use x="333.415353" y="222.757523" xlink:href="#ap"/>
  <use x="340.111227" y="222.757523" xlink:href="#bf"/>
  <use x="346.67464" y="222.757523" xlink:href="#bg"/>
  <use x="349.723644" y="222.757523" xlink:href="#ap"/>
  <use x="356.419518" y="222.757523" xlink:href="#aq"/>
 </g>
 <g fill="#89a6be">
  <use x="269.623753" y="241.65213" xlink:href="#b"/>
  <use x="272.676324" y="241.65213" xlink:href="#m"/>
  <use x="277.040776" y="241.65213" xlink:href="#a"/>
  <use x="283.613709" y="241.65213" xlink:href="#af"/>
  <use x="288.144433" y="241.65213" xlink:href="#dl"/>
  <use x="292.039504" y="241.65213" xlink:href="#a"/>
  <use x="295.796147" y="241.65213" xlink:href="#j"/>
  <use x="302.976889" y="241.65213" xlink:href="#v"/>
  <use x="307.341341" y="241.65213" xlink:href="#c"/>
  <use x="311.171176" y="241.65213" xlink:href="#d"/>
  <use x="314.05827" y="241.65213" xlink:href="#b"/>
  <use x="319.92713" y="241.65213" xlink:href="#dk"/>
  <use x="331.196264" y="241.65213" xlink:href="#ag"/>
  <use x="334.860622" y="241.65213" xlink:href="#f"/>
  <use x="339.087442" y="241.65213" xlink:href="#i"/>
  <use x="346.268184" y="241.65213" xlink:href="#j"/>
  <use x="350.632636" y="241.65213" xlink:href="#f"/>
  <use x="354.859456" y="241.65213" xlink:href="#x"/>
  <use x="359.223909" y="241.65213" xlink:href="#dj"/>
  <use x="361.571612" y="241.65213" xlink:href="#b"/>
  <use x="367.440472" y="241.65213" xlink:href="#b"/>
  <use x="370.493042" y="241.65213" xlink:href="#f"/>
  <use x="374.719863" y="241.65213" xlink:href="#i"/>
  <use x="379.084315" y="241.65213" xlink:href="#w"/>
  <use x="382.840958" y="241.65213" xlink:href="#m"/>
  <use x="390.0217" y="241.65213" xlink:href="#b"/>
  <use x="393.07427" y="241.65213" xlink:href="#m"/>
  <use x="397.438723" y="241.65213" xlink:href="#y"/>
  <use x="399.455472" y="241.65213" xlink:href="#e"/>
 </g>
 <path transform="matrix(.99818 0 0 -.99818 .92186 0)" d="m316.82-157.91v-33.671" fill="none" stroke="#3a9bac" stroke-dasharray="2.98883 2.98883" stroke-miterlimit="10" stroke-width=".89664"/>
 <path transform="matrix(0 .99818 .99818 0 317.16 188.95)" d="m4.8101 0.0018052-3.4516 1.4519 1.1544-1.4519-1.1544-1.4558z" fill="#3a9bac" stroke="#3a9bac" stroke-miterlimit="10" stroke-width=".89664"/>
 <path transform="matrix(.99818 0 0 -.99818 .92186 0)" d="m484.19-157.91v-33.671" fill="none" stroke="#3a9bac" stroke-dasharray="2.98883 2.98883" stroke-miterlimit="10" stroke-width=".89664"/>
 <path transform="matrix(0 .99818 .99818 0 484.23 188.95)" d="m4.8101 0.0017196-3.4516 1.4519 1.1544-1.4519-1.1544-1.4558z" fill="#3a9bac" stroke="#3a9bac" stroke-miterlimit="10" stroke-width=".89664"/>
 <path transform="matrix(.99818 0 0 -.99818 .92186 0)" d="m651.57-157.91v-33.671" fill="none" stroke="#3a9bac" stroke-dasharray="2.98883 2.98883" stroke-miterlimit="10" stroke-width=".89664"/>
 <path transform="matrix(0 .99818 .99818 0 651.3 188.95)" d="m4.8101 0.001634-3.4516 1.4519 1.1544-1.4519-1.1544-1.4558z" fill="#3a9bac" stroke="#3a9bac" stroke-miterlimit="10" stroke-width=".89664"/>
 <path transform="matrix(.99818 0 0 -.99818 .92186 0)" d="m818.94-157.91v-33.671" fill="none" stroke="#c68b26" stroke-dasharray="2.98883 2.98883" stroke-miterlimit="10" stroke-width=".89664"/>
 <path transform="matrix(0 .99818 .99818 0 818.37 188.95)" d="m4.8101 0.0015384-3.4516 1.4519 1.1544-1.4519-1.1544-1.4558z" fill="#c68b26" stroke="#c68b26" stroke-miterlimit="10" stroke-width=".89664"/>
 <path transform="matrix(.99818 0 0 -.99818 .92186 0)" d="m348.7-265.01h-67.744c-4.9543 0-8.9694-4.0151-8.9694-8.9655v-7.9715c0-4.9543 4.0151-8.9655 8.9694-8.9655h67.744c4.9543 0 8.9655 4.0112 8.9655 8.9655v7.9715c0 4.9504-4.0112 8.9655-8.9655 8.9655z" fill="#12334e" stroke="#4ed0df" stroke-miterlimit="10" stroke-width=".89664"/>
 <path transform="matrix(.99818 0 0 -.99818 .92186 0)" d="m462.27-265.01h-67.748c-4.9504 0-8.9655-4.0151-8.9655-8.9655v-7.9715c0-4.9543 4.0151-8.9655 8.9655-8.9655h67.748c4.9504 0 8.9655 4.0112 8.9655 8.9655v7.9715c0 4.9504-4.0151 8.9655-8.9655 8.9655z" fill="#12334e" stroke="#4ed0df" stroke-miterlimit="10" stroke-width=".89664"/>
 <path transform="matrix(.99818 0 0 -.99818 .92186 0)" d="m575.85-265.01h-67.744c-4.9543 0-8.9694-4.0151-8.9694-8.9655v-7.9715c0-4.9543 4.0151-8.9655 8.9694-8.9655h67.744c4.9543 0 8.9655 4.0112 8.9655 8.9655v7.9715c0 4.9504-4.0112 8.9655-8.9655 8.9655z" fill="#12334e" stroke="#4ed0df" stroke-miterlimit="10" stroke-width=".89664"/>
 <path transform="matrix(.99818 0 0 -.99818 .92186 0)" d="m689.42-265.01h-67.748c-4.9504 0-8.9655-4.0151-8.9655-8.9655v-7.9715c0-4.9543 4.0151-8.9655 8.9655-8.9655h67.748c4.9504 0 8.9655 4.0112 8.9655 8.9655v7.9715c0 4.9504-4.0151 8.9655-8.9655 8.9655z" fill="#12334e" stroke="#4ed0df" stroke-miterlimit="10" stroke-width=".89664"/>
 <path transform="matrix(.99818 0 0 -.99818 .92186 0)" d="m823.92-265.01h-81.695c-4.9543 0-8.9694-4.0151-8.9694-8.9655v-7.9715c0-4.9543 4.0151-8.9655 8.9694-8.9655h81.695c4.9504 0 8.9655 4.0112 8.9655 8.9655v7.9715c0 4.9504-4.0151 8.9655-8.9655 8.9655z" fill="#12334e" stroke="#4ed0df" stroke-miterlimit="10" stroke-width=".89664"/>
 <g fill="#cfe6f1">
  <use x="304.870595" y="281.429724" xlink:href="#cu"/>
  <use x="307.878726" y="281.429724" xlink:href="#k"/>
  <use x="312.453127" y="281.429724" xlink:href="#ao"/>
  <use x="316.07076" y="281.429724" xlink:href="#an"/>
  <use x="320.446468" y="281.429724" xlink:href="#be"/>
  <use x="419.723532" y="281.429724" xlink:href="#cn"/>
  <use x="423.054762" y="281.429724" xlink:href="#k"/>
  <use x="427.629163" y="281.429724" xlink:href="#am"/>
  <use x="432.32797" y="281.429724" xlink:href="#bd"/>
  <use x="526.894453" y="281.429724" xlink:href="#am"/>
  <use x="531.59326" y="281.429724" xlink:href="#bc"/>
  <use x="536.615166" y="281.429724" xlink:href="#am"/>
  <use x="541.313973" y="281.429724" xlink:href="#bb"/>
  <use x="543.600725" y="281.429724" xlink:href="#ct"/>
  <use x="548.075779" y="281.429724" xlink:href="#cs"/>
  <use x="552.339611" y="281.429724" xlink:href="#k"/>
  <use x="642.948204" y="281.429724" xlink:href="#bd"/>
  <use x="647.97011" y="281.429724" xlink:href="#k"/>
  <use x="652.544511" y="281.429724" xlink:href="#bb"/>
  <use x="654.831263" y="281.429724" xlink:href="#k"/>
  <use x="659.405664" y="281.429724" xlink:href="#ao"/>
  <use x="663.023298" y="281.429724" xlink:href="#k"/>
  <use x="760.442334" y="281.429724" xlink:href="#an"/>
  <use x="764.818042" y="281.429724" xlink:href="#be"/>
  <use x="769.839948" y="281.429724" xlink:href="#k"/>
  <use x="774.414349" y="281.429724" xlink:href="#an"/>
  <use x="778.790057" y="281.429724" xlink:href="#cr"/>
  <use x="783.538089" y="281.429724" xlink:href="#cq"/>
  <use x="788.837448" y="281.429724" xlink:href="#cp"/>
  <use x="793.760008" y="281.429724" xlink:href="#co"/>
  <use x="796.046761" y="281.429724" xlink:href="#bc"/>
  <use x="801.068667" y="281.429724" xlink:href="#ao"/>
 </g>
 <path transform="matrix(.99818 0 0 -.99818 .92186 0)" d="m358.11-277.96h22.737" fill="none" stroke="#4ed0df" stroke-miterlimit="10" stroke-width="1.1955"/>
 <path transform="matrix(.99818 0 0 -.99818 378.37 277.46)" d="m5.482-8.3602e-4 -3.7294 1.6201 1.2523-1.6201-1.2523-1.6162z" fill="#4ed0df" stroke="#4ed0df" stroke-miterlimit="10" stroke-width="1.1768"/>
 <path transform="matrix(.99818 0 0 -.99818 .92186 0)" d="m471.69-277.96h22.733" fill="none" stroke="#4ed0df" stroke-miterlimit="10" stroke-width="1.1955"/>
 <path transform="matrix(.99818 0 0 -.99818 491.74 277.46)" d="m5.48-8.3602e-4 -3.7255 1.6201 1.2523-1.6201-1.2523-1.6162z" fill="#4ed0df" stroke="#4ed0df" stroke-miterlimit="10" stroke-width="1.1768"/>
 <path transform="matrix(.99818 0 0 -.99818 .92186 0)" d="m585.26-277.96h22.737" fill="none" stroke="#4ed0df" stroke-miterlimit="10" stroke-width="1.1955"/>
 <path transform="matrix(.99818 0 0 -.99818 605.11 277.46)" d="m5.4819-8.3602e-4 -3.7294 1.6201 1.2523-1.6201-1.2523-1.6162z" fill="#4ed0df" stroke="#4ed0df" stroke-miterlimit="10" stroke-width="1.1768"/>
 <path transform="matrix(.99818 0 0 -.99818 .92186 0)" d="m698.84-277.96h29.706" fill="none" stroke="#4ed0df" stroke-miterlimit="10" stroke-width="1.1955"/>
 <path transform="matrix(.99818 0 0 -.99818 725.44 277.46)" d="m5.4796-8.3602e-4 -3.7255 1.6201 1.2523-1.6201-1.2523-1.6162z" fill="#4ed0df" stroke="#4ed0df" stroke-miterlimit="10" stroke-width="1.1768"/>
 <path transform="matrix(.99818 0 0 -.99818 .92186 0)" d="m783.08-291.36v-13.947c0-4.4025-3.569-7.9715-7.9715-7.9715h-452.31c-4.4025 0-7.9715 3.569-7.9715 7.9715v9.6151" fill="none" stroke="#41adbd" stroke-miterlimit="10" stroke-width=".99628"/>
 <path transform="matrix(0 -.99818 -.99818 0 315.17 297.79)" d="m5.7097 0.0014586-4.2264 1.8275 1.4088-1.8275-1.4088-1.8315z" fill="#41adbd" stroke="#41adbd" stroke-miterlimit="10" stroke-width=".99628"/>
 <g fill="#9fc1d6">
  <use x="454.97237" y="350.047821" xlink:href="#u"/>
  <use x="457.859464" y="350.047821" xlink:href="#t"/>
  <use x="461.616107" y="350.047821" xlink:href="#az"/>
  <use x="466.219228" y="350.047821" xlink:href="#t"/>
  <use x="469.975871" y="350.047821" xlink:href="#s"/>
  <use x="474.036419" y="350.047821" xlink:href="#ae"/>
  <use x="479.905279" y="350.047821" xlink:href="#az"/>
  <use x="484.500444" y="350.047821" xlink:href="#t"/>
  <use x="488.257087" y="350.047821" xlink:href="#u"/>
  <use x="493.968426" y="350.047821" xlink:href="#ay"/>
  <use x="498.332878" y="350.047821" xlink:href="#ad"/>
  <use x="502.697331" y="350.047821" xlink:href="#aj"/>
  <use x="504.71408" y="350.047821" xlink:href="#ae"/>
  <use x="510.58294" y="350.047821" xlink:href="#ci"/>
  <use x="521.852074" y="350.047821" xlink:href="#ch"/>
  <use x="526.447239" y="350.047821" xlink:href="#cm"/>
  <use x="530.674059" y="350.047821" xlink:href="#ay"/>
  <use x="535.038512" y="350.047821" xlink:href="#ad"/>
  <use x="539.402964" y="350.047821" xlink:href="#ba"/>
  <use x="543.767417" y="350.047821" xlink:href="#t"/>
  <use x="547.52406" y="350.047821" xlink:href="#ba"/>
  <use x="554.712757" y="350.047821" xlink:href="#al"/>
  <use x="557.95308" y="350.047821" xlink:href="#ae"/>
  <use x="561.005651" y="350.047821" xlink:href="#s"/>
  <use x="565.066199" y="350.047821" xlink:href="#ak"/>
  <use x="569.293019" y="350.047821" xlink:href="#aj"/>
  <use x="571.309769" y="350.047821" xlink:href="#ad"/>
  <use x="575.674221" y="350.047821" xlink:href="#ak"/>
  <use x="579.901041" y="350.047821" xlink:href="#cl"/>
  <use x="585.065033" y="350.047821" xlink:href="#al"/>
  <use x="588.305357" y="350.047821" xlink:href="#ae"/>
  <use x="591.357928" y="350.047821" xlink:href="#u"/>
  <use x="594.245022" y="350.047821" xlink:href="#t"/>
  <use x="598.001665" y="350.047821" xlink:href="#s"/>
  <use x="602.062213" y="350.047821" xlink:href="#ck"/>
  <use x="608.775164" y="350.047821" xlink:href="#aj"/>
  <use x="610.791913" y="350.047821" xlink:href="#ad"/>
  <use x="615.156365" y="350.047821" xlink:href="#ak"/>
  <use x="622.199475" y="350.047821" xlink:href="#s"/>
  <use x="626.021354" y="350.047821" xlink:href="#u"/>
  <use x="628.908448" y="350.047821" xlink:href="#u"/>
  <use x="631.795542" y="350.047821" xlink:href="#s"/>
  <use x="635.625377" y="350.047821" xlink:href="#cj"/>
  <use x="639.520448" y="350.047821" xlink:href="#al"/>
 </g>
 <g fill="#e5f2fa">
  <use x="60.787889" y="208.834866" xlink:href="#p"/>
  <use x="65.700472" y="208.834866" xlink:href="#n"/>
  <use x="69.401814" y="208.834866" xlink:href="#bo"/>
  <use x="74.263679" y="208.834866" xlink:href="#dt"/>
  <use x="79.843537" y="208.834866" xlink:href="#bv"/>
  <use x="82.394301" y="208.834866" xlink:href="#ds"/>
  <use x="87.36655" y="208.834866" xlink:href="#g"/>
 </g>
 <path transform="matrix(.99818 0 0 -.99818 .92186 0)" d="m144.46-267h-85.683c-2.7511 0-4.9778-2.2306-4.9778-4.9817v-57.785c0-2.7511 2.2267-4.9817 4.9778-4.9817h85.683c2.7511 0 4.9817 2.2306 4.9817 4.9817v57.785c0 2.7511-2.2306 4.9817-4.9817 4.9817z" fill="#102a3f" stroke="#4ed0df" stroke-miterlimit="10" stroke-width=".89664"/>
 <path transform="matrix(.99818 0 0 -.99818 .92186 0)" d="m133.5-267h15.943v-15.943z" fill="#10314c" stroke="#4ed0df" stroke-miterlimit="10" stroke-width=".89664"/>
 <g fill="#cfe6f1">
  <use x="74.710546" y="296.346571" xlink:href="#ax"/>
  <use x="79.174444" y="296.346571" xlink:href="#aw"/>
  <use x="83.351144" y="296.346571" xlink:href="#cg"/>
  <use x="86.706028" y="296.346571" xlink:href="#cf"/>
  <use x="90.772145" y="296.346571" xlink:href="#ax"/>
  <use x="95.236043" y="296.346571" xlink:href="#aw"/>
  <use x="99.412742" y="296.346571" xlink:href="#ce"/>
  <use x="103.87664" y="296.346571" xlink:href="#cd"/>
 </g>
 <g fill="#9fe7eb">
  <use x="74.710546" y="308.280848" xlink:href="#w"/>
  <use x="78.46719" y="308.280848" xlink:href="#m"/>
  <use x="85.647931" y="308.280848" xlink:href="#di"/>
  <use x="89.874751" y="308.280848" xlink:href="#dh"/>
  <use x="94.101571" y="308.280848" xlink:href="#dg"/>
  <use x="98.328392" y="308.280848" xlink:href="#df"/>
 </g>
 <g fill="#89a6be">
  <use x="74.710546" y="320.214126" xlink:href="#de"/>
  <use x="77.05825" y="320.214126" xlink:href="#m"/>
  <use x="81.422702" y="320.214126" xlink:href="#dd"/>
 </g>
 <g fill="#9fc1d6">
  <use x="54.821749" y="344.080683" xlink:href="#bn"/>
  <use x="60.926891" y="344.080683" xlink:href="#c"/>
  <use x="64.987439" y="344.080683" xlink:href="#b"/>
  <use x="68.04001" y="344.080683" xlink:href="#c"/>
  <use x="72.100558" y="344.080683" xlink:href="#b"/>
  <use x="75.153128" y="344.080683" xlink:href="#d"/>
  <use x="78.040222" y="344.080683" xlink:href="#c"/>
  <use x="82.10077" y="344.080683" xlink:href="#y"/>
  <use x="84.11752" y="344.080683" xlink:href="#l"/>
  <use x="87.542189" y="344.080683" xlink:href="#da"/>
  <use x="91.298352" y="344.080683" xlink:href="#bm"/>
  <use x="96.698626" y="344.080683" xlink:href="#dc"/>
  <use x="102.334387" y="344.080683" xlink:href="#bn"/>
  <use x="108.439528" y="344.080683" xlink:href="#bm"/>
 </g>
 <g fill="#89a6be">
  <use x="54.821749" y="360.986909" xlink:href="#b"/>
  <use x="57.87432" y="360.986909" xlink:href="#m"/>
  <use x="62.238773" y="360.986909" xlink:href="#f"/>
  <use x="66.465593" y="360.986909" xlink:href="#i"/>
  <use x="70.830045" y="360.986909" xlink:href="#e"/>
  <use x="74.070369" y="360.986909" xlink:href="#c"/>
  <use x="78.130916" y="360.986909" xlink:href="#x"/>
  <use x="82.495369" y="360.986909" xlink:href="#j"/>
  <use x="86.859821" y="360.986909" xlink:href="#e"/>
  <use x="92.916434" y="360.986909" xlink:href="#f"/>
  <use x="97.143254" y="360.986909" xlink:href="#bl"/>
  <use x="102.542732" y="360.986909" xlink:href="#af"/>
  <use x="107.073457" y="360.986909" xlink:href="#l"/>
  <use x="109.090207" y="360.986909" xlink:href="#a"/>
  <use x="112.84685" y="360.986909" xlink:href="#e"/>
 </g>
 <path transform="matrix(.99818 0 0 -.99818 .92186 0)" d="m149.89-300.87h92.923" fill="none" stroke="#4ed0df" stroke-miterlimit="10" stroke-width="1.1955"/>
 <path transform="matrix(.99818 0 0 -.99818 240.59 300.33)" d="m5.4802 8.0882e-4 -3.7255 1.6162 1.2484-1.6162-1.2484-1.6201z" fill="#4ed0df" stroke="#4ed0df" stroke-miterlimit="10" stroke-width="1.1768"/>
 <g fill="#e5f2fa">
  <use x="948.712633" y="208.834866" xlink:href="#p"/>
  <use x="953.933494" y="208.834866" xlink:href="#z"/>
  <use x="959.513352" y="208.834866" xlink:href="#p"/>
  <use x="964.734214" y="208.834866" xlink:href="#bu"/>
  <use x="967.275033" y="208.834866" xlink:href="#bt"/>
  <use x="972.247283" y="208.834866" xlink:href="#bs"/>
  <use x="976.984842" y="208.834866" xlink:href="#g"/>
  <use x="982.067475" y="208.834866" xlink:href="#n"/>
  <use x="985.768817" y="208.834866" xlink:href="#dr"/>
  <use x="989.415465" y="208.834866" xlink:href="#ar"/>
  <use x="994.995323" y="208.834866" xlink:href="#g"/>
  <use x="1000.077956" y="208.834866" xlink:href="#dq"/>
  <use x="1005.906426" y="208.834866" xlink:href="#z"/>
  <use x="1011.486284" y="208.834866" xlink:href="#g"/>
  <use x="1016.568918" y="208.834866" xlink:href="#ar"/>
 </g>
 <g fill="#89a6be">
  <use x="951.313898" y="225.741092" xlink:href="#d"/>
  <use x="954.200992" y="225.741092" xlink:href="#a"/>
  <use x="957.957635" y="225.741092" xlink:href="#e"/>
  <use x="961.197958" y="225.741092" xlink:href="#i"/>
  <use x="965.562411" y="225.741092" xlink:href="#bi"/>
  <use x="972.275362" y="225.741092" xlink:href="#c"/>
  <use x="976.33591" y="225.741092" xlink:href="#db"/>
  <use x="980.700362" y="225.741092" xlink:href="#l"/>
  <use x="982.717111" y="225.741092" xlink:href="#a"/>
  <use x="989.290044" y="225.741092" xlink:href="#v"/>
  <use x="993.423783" y="225.741092" xlink:href="#d"/>
  <use x="996.310877" y="225.741092" xlink:href="#f"/>
  <use x="1000.76841" y="225.741092" xlink:href="#j"/>
  <use x="1005.132863" y="225.741092" xlink:href="#i"/>
  <use x="1009.497315" y="225.741092" xlink:href="#w"/>
  <use x="1013.253958" y="225.741092" xlink:href="#b"/>
  <use x="1016.306529" y="225.741092" xlink:href="#e"/>
 </g>
 <path transform="matrix(.99818 0 0 -.99818 .92186 0)" d="m1033.1-254.05h-93.651c-2.7511 0-4.9817-2.2306-4.9817-4.9817v-23.911c0-2.7511 2.2306-4.9817 4.9817-4.9817h93.651c2.7511 0 4.9817 2.2306 4.9817 4.9817v23.911c0 2.7511-2.2306 4.9817-4.9817 4.9817z" fill="#102a3f" stroke="#4ed0df" stroke-miterlimit="10" stroke-width=".89664"/>
 <path transform="matrix(.99818 0 0 -.99818 .92186 0)" d="m1033.1-301.87h-93.651c-2.7511 0-4.9817-2.2306-4.9817-4.9817v-23.911c0-2.7511 2.2306-4.9817 4.9817-4.9817h93.651c2.7511 0 4.9817 2.2306 4.9817 4.9817v23.911c0 2.7511-2.2306 4.9817-4.9817 4.9817z" fill="#102a3f" stroke="#4ed0df" stroke-miterlimit="10" stroke-width=".89664"/>
 <path transform="matrix(.99818 0 0 -.99818 .92186 0)" d="m1033.1-349.69h-93.651c-2.7511 0-4.9817-2.2306-4.9817-4.9817v-23.911c0-2.7511 2.2306-4.9817 4.9817-4.9817h93.651c2.7511 0 4.9817 2.2306 4.9817 4.9817v23.911c0 2.7511-2.2306 4.9817-4.9817 4.9817z" fill="#102a3f" stroke="#4ed0df" stroke-miterlimit="10" stroke-width=".89664"/>
 <g fill="#9fe7eb">
  <use x="958.957984" y="267.508065" xlink:href="#q"/>
  <use x="963.449148" y="267.508065" xlink:href="#aa"/>
  <use x="966.591531" y="267.508065" xlink:href="#ac"/>
  <use x="971.450545" y="267.508065" xlink:href="#r"/>
  <use x="976.201262" y="267.508065" xlink:href="#ai"/>
  <use x="980.95198" y="267.508065" xlink:href="#ah"/>
  <use x="985.04039" y="267.508065" xlink:href="#as"/>
  <use x="988.361775" y="267.508065" xlink:href="#at"/>
  <use x="991.428082" y="267.508065" xlink:href="#av"/>
  <use x="995.847646" y="267.508065" xlink:href="#ab"/>
  <use x="998.402901" y="267.508065" xlink:href="#o"/>
  <use x="1003.153619" y="267.508065" xlink:href="#q"/>
  <use x="1007.904337" y="267.508065" xlink:href="#au"/>
  <use x="958.792285" y="315.241178" xlink:href="#q"/>
  <use x="963.28345" y="315.241178" xlink:href="#aa"/>
  <use x="966.425833" y="315.241178" xlink:href="#ac"/>
  <use x="971.284847" y="315.241178" xlink:href="#r"/>
  <use x="976.035564" y="315.241178" xlink:href="#ai"/>
  <use x="980.786282" y="315.241178" xlink:href="#ah"/>
  <use x="984.874691" y="315.241178" xlink:href="#as"/>
  <use x="988.196076" y="315.241178" xlink:href="#at"/>
  <use x="991.262384" y="315.241178" xlink:href="#du"/>
  <use x="996.013101" y="315.241178" xlink:href="#ab"/>
  <use x="998.568357" y="315.241178" xlink:href="#o"/>
  <use x="1003.319075" y="315.241178" xlink:href="#q"/>
  <use x="1008.069792" y="315.241178" xlink:href="#au"/>
  <use x="979.298958" y="362.97529" xlink:href="#ab"/>
  <use x="983.384682" y="362.97529" xlink:href="#ab"/>
  <use x="987.479357" y="362.97529" xlink:href="#ab"/>
 </g>
 <g fill="#89a6be">
  <use x="942.595767" y="410.709401" xlink:href="#bl"/>
  <use x="945.178956" y="410.709401" xlink:href="#c"/>
  <use x="949.239504" y="410.709401" xlink:href="#x"/>
  <use x="953.603957" y="410.709401" xlink:href="#bk"/>
  <use x="956.421837" y="410.709401" xlink:href="#f"/>
  <use x="960.648657" y="410.709401" xlink:href="#i"/>
  <use x="965.013109" y="410.709401" xlink:href="#b"/>
  <use x="970.881969" y="410.709401" xlink:href="#y"/>
  <use x="972.898719" y="410.709401" xlink:href="#e"/>
  <use x="978.955331" y="410.709401" xlink:href="#v"/>
  <use x="983.319784" y="410.709401" xlink:href="#l"/>
  <use x="985.336533" y="410.709401" xlink:href="#i"/>
  <use x="989.700985" y="410.709401" xlink:href="#bj"/>
  <use x="993.927806" y="410.709401" xlink:href="#y"/>
  <use x="995.944555" y="410.709401" xlink:href="#x"/>
  <use x="1000.309007" y="410.709401" xlink:href="#bk"/>
  <use x="1003.126887" y="410.709401" xlink:href="#j"/>
  <use x="1007.49134" y="410.709401" xlink:href="#a"/>
  <use x="1011.247983" y="410.709401" xlink:href="#af"/>
  <use x="1015.778708" y="410.709401" xlink:href="#x"/>
  <use x="1020.14316" y="410.709401" xlink:href="#a"/>
  <use x="1023.899803" y="410.709401" xlink:href="#j"/>
 </g>
 <path transform="matrix(.99818 0 0 -.99818 .92186 0)" d="m876.72-300.87 53.269-16.663" fill="none" stroke="#f6a622" stroke-miterlimit="10" stroke-width="1.1955"/>
 <path transform="matrix(.95263 .29796 .29796 -.95263 926.64 316.15)" d="m5.4788-0.0013331-3.7253 1.6191 1.2522-1.6176-1.2531-1.618z" fill="#f6a622" stroke="#f6a622" stroke-miterlimit="10" stroke-width="1.1768"/>
</svg>
