<?xml version="1.0" encoding="UTF-8"?>
<svg xmlns="http://www.w3.org/2000/svg" xmlns:xlink="http://www.w3.org/1999/xlink" width="405.627" height="137.253" viewBox="0 0 405.627 137.253">
<defs>
<g>
<g id="glyph-0-0">
<path d="M 4.1875 -5.4375 L 4.1875 -6.203125 L 3.421875 -6.203125 L 3.421875 -5.4375 Z M 4.171875 0 L 4.171875 -3.96875 L 3.453125 -3.96875 L 3.453125 0 Z M 2.703125 -3.40625 L 2.703125 -3.96875 L 1.609375 -3.96875 L 1.609375 -5.015625 C 1.609375 -5.578125 1.9375 -5.703125 2.15625 -5.703125 C 2.3125 -5.703125 2.515625 -5.671875 2.703125 -5.546875 L 2.703125 -6.1875 C 2.625 -6.21875 2.40625 -6.296875 2.15625 -6.296875 C 1.46875 -6.296875 0.921875 -5.65625 0.921875 -4.75 L 0.921875 -3.96875 L 0.25 -3.96875 L 0.25 -3.40625 L 0.921875 -3.40625 L 0.921875 0 L 1.625 0 L 1.625 -3.40625 Z M 2.703125 -3.40625 "/>
</g>
<g id="glyph-0-1">
<path d="M 3 -3.421875 L 3 -4.0625 C 2.359375 -4.046875 1.765625 -3.734375 1.40625 -3.203125 L 1.40625 -4.015625 L 0.734375 -4.015625 L 0.734375 0 L 1.453125 0 L 1.453125 -1.90625 C 1.453125 -2.84375 2.1875 -3.40625 3 -3.421875 Z M 3 -3.421875 "/>
</g>
<g id="glyph-0-2">
<path d="M 3.296875 -1.15625 C 3.296875 -1.46875 3.171875 -1.78125 2.859375 -2.046875 C 2.5625 -2.296875 2.296875 -2.359375 1.734375 -2.46875 C 1.421875 -2.53125 0.96875 -2.609375 0.96875 -3.03125 C 0.96875 -3.546875 1.609375 -3.546875 1.734375 -3.546875 C 2.390625 -3.546875 2.78125 -3.34375 3.03125 -3.203125 L 3.15625 -3.828125 C 2.59375 -4.078125 2.1875 -4.109375 1.8125 -4.109375 C 1.609375 -4.109375 0.296875 -4.109375 0.296875 -2.9375 C 0.296875 -2.5 0.5625 -2.234375 0.65625 -2.140625 C 1 -1.84375 1.234375 -1.796875 1.84375 -1.6875 C 2.125 -1.625 2.625 -1.53125 2.625 -1.078125 C 2.625 -0.5 1.90625 -0.5 1.796875 -0.5 C 1.265625 -0.5 0.765625 -0.671875 0.375 -0.953125 L 0.265625 -0.296875 C 0.796875 -0.015625 1.34375 0.09375 1.796875 0.09375 C 2.375 0.09375 3.296875 -0.09375 3.296875 -1.15625 Z M 3.296875 -1.15625 "/>
</g>
<g id="glyph-0-3">
<path d="M 3.046875 -0.234375 L 2.90625 -0.796875 C 2.671875 -0.609375 2.359375 -0.515625 2.078125 -0.515625 C 1.734375 -0.515625 1.609375 -0.828125 1.609375 -1.28125 L 1.609375 -3.40625 L 2.90625 -3.40625 L 2.90625 -3.96875 L 1.609375 -3.96875 L 1.609375 -5.09375 L 0.953125 -5.09375 L 0.953125 -3.96875 L 0.171875 -3.96875 L 0.171875 -3.40625 L 0.921875 -3.40625 L 0.921875 -1.125 C 0.921875 -0.59375 1.046875 0.09375 1.6875 0.09375 C 2.09375 0.09375 2.546875 0.015625 3.046875 -0.234375 Z M 3.046875 -0.234375 "/>
</g>
<g id="glyph-0-4">
<path d="M 4 0 L 4 -3.96875 L 3.265625 -3.96875 L 3.265625 -1.390625 C 3.265625 -0.671875 2.703125 -0.421875 2.171875 -0.421875 C 1.53125 -0.421875 1.46875 -0.640625 1.46875 -1.015625 L 1.46875 -3.96875 L 0.71875 -3.96875 L 0.71875 -0.96875 C 0.71875 -0.21875 1.03125 0.09375 1.65625 0.09375 C 2.171875 0.09375 2.875 -0.046875 3.296875 -0.421875 L 3.296875 0 Z M 4 0 "/>
</g>
<g id="glyph-0-5">
<path d="M 4 0 L 4 -2.65625 C 4 -3.3125 3.828125 -4.0625 2.75 -4.0625 C 2.046875 -4.0625 1.609375 -3.65625 1.40625 -3.375 L 1.40625 -4.015625 L 0.71875 -4.015625 L 0.71875 0 L 1.46875 0 L 1.46875 -2.171875 C 1.46875 -2.765625 1.6875 -3.484375 2.375 -3.484375 C 3.265625 -3.484375 3.265625 -2.84375 3.265625 -2.59375 L 3.265625 0 Z M 4 0 "/>
</g>
<g id="glyph-0-6">
<path d="M 3.8125 -1.953125 C 3.8125 -2.234375 3.796875 -2.90625 3.453125 -3.4375 C 3.078125 -4 2.5 -4.109375 2.171875 -4.109375 C 1.140625 -4.109375 0.3125 -3.15625 0.3125 -2.015625 C 0.3125 -0.84375 1.1875 0.09375 2.296875 0.09375 C 2.734375 0.09375 3.25 -0.015625 3.765625 -0.34375 L 3.71875 -0.953125 C 3.15625 -0.546875 2.625 -0.484375 2.3125 -0.484375 C 1.5625 -0.484375 1 -1.140625 0.96875 -1.953125 Z M 3.28125 -2.484375 L 1.03125 -2.484375 C 1.171875 -3.046875 1.609375 -3.53125 2.171875 -3.53125 C 2.5 -3.53125 3.109375 -3.375 3.28125 -2.484375 Z M 3.28125 -2.484375 "/>
</g>
<g id="glyph-0-7">
<path d="M 3.765625 0 L 3.765625 -2.578125 C 3.765625 -3.46875 3.109375 -4.109375 2.234375 -4.109375 C 1.65625 -4.109375 1.21875 -3.96875 0.796875 -3.71875 L 0.84375 -3.09375 C 1.296875 -3.421875 1.734375 -3.546875 2.21875 -3.546875 C 2.71875 -3.546875 3.03125 -3.15625 3.03125 -2.5625 L 3.03125 -2.1875 C 1.484375 -2.15625 0.484375 -1.75 0.484375 -1.03125 C 0.484375 -0.609375 0.765625 0.09375 1.53125 0.09375 C 1.71875 0.09375 2.484375 0.078125 3.046875 -0.34375 L 3.046875 0 Z M 3.03125 -1.25 C 3.03125 -1.0625 3.03125 -0.84375 2.703125 -0.65625 C 2.484375 -0.515625 2.1875 -0.484375 2 -0.484375 C 1.546875 -0.484375 1.171875 -0.703125 1.171875 -1.046875 C 1.171875 -1.6875 2.90625 -1.71875 3.03125 -1.71875 Z M 3.03125 -1.25 "/>
</g>
<g id="glyph-0-8">
<path d="M 3.8125 -0.328125 L 3.75 -0.96875 C 3.328125 -0.671875 2.859375 -0.515625 2.3125 -0.515625 C 1.5625 -0.515625 1.0625 -1.140625 1.0625 -1.984375 C 1.0625 -2.671875 1.40625 -3.5 2.359375 -3.5 C 2.921875 -3.5 3.203125 -3.40625 3.65625 -3.09375 L 3.765625 -3.71875 C 3.265625 -4 2.984375 -4.109375 2.34375 -4.109375 C 1.078125 -4.109375 0.328125 -3.046875 0.328125 -1.984375 C 0.328125 -0.875 1.15625 0.09375 2.3125 0.09375 C 2.9375 0.09375 3.40625 -0.09375 3.8125 -0.328125 Z M 3.8125 -0.328125 "/>
</g>
<g id="glyph-0-9">
<path d="M 4.3125 -1.96875 C 4.3125 -3.125 3.421875 -4.109375 2.28125 -4.109375 C 1.171875 -4.109375 0.265625 -3.15625 0.265625 -1.96875 C 0.265625 -0.78125 1.203125 0.09375 2.28125 0.09375 C 3.390625 0.09375 4.3125 -0.796875 4.3125 -1.96875 Z M 3.5625 -2.046875 C 3.5625 -1.015625 2.9375 -0.515625 2.296875 -0.515625 C 1.609375 -0.515625 1.015625 -1.046875 1.015625 -2.046875 C 1.015625 -3.09375 1.671875 -3.53125 2.28125 -3.53125 C 2.921875 -3.53125 3.5625 -3.078125 3.5625 -2.046875 Z M 3.5625 -2.046875 "/>
</g>
<g id="glyph-0-10">
<path d="M 6.546875 0 L 6.546875 -2.65625 C 6.546875 -3.3125 6.375 -4.0625 5.296875 -4.0625 C 4.546875 -4.0625 4.125 -3.609375 3.90625 -3.328125 C 3.84375 -3.5 3.65625 -4.0625 2.75 -4.0625 C 2.046875 -4.0625 1.609375 -3.65625 1.40625 -3.375 L 1.40625 -4.015625 L 0.71875 -4.015625 L 0.71875 0 L 1.46875 0 L 1.46875 -2.171875 C 1.46875 -2.765625 1.6875 -3.484375 2.375 -3.484375 C 3.265625 -3.484375 3.265625 -2.84375 3.265625 -2.59375 L 3.265625 0 L 4 0 L 4 -2.171875 C 4 -2.765625 4.234375 -3.484375 4.921875 -3.484375 C 5.8125 -3.484375 5.8125 -2.84375 5.8125 -2.59375 L 5.8125 0 Z M 6.546875 0 "/>
</g>
<g id="glyph-0-11">
<path d="M 1.453125 0 L 1.453125 -3.96875 L 0.734375 -3.96875 L 0.734375 0 Z M 1.53125 -5.015625 L 1.53125 -5.875 L 0.671875 -5.875 L 0.671875 -5.015625 Z M 1.53125 -5.015625 "/>
</g>
<g id="glyph-0-12">
<path d="M 3.984375 0 L 3.984375 -6.1875 L 3.28125 -6.1875 L 3.28125 -3.5625 C 2.78125 -3.984375 2.203125 -4.0625 1.921875 -4.0625 C 1.015625 -4.0625 0.328125 -3.125 0.328125 -1.984375 C 0.328125 -0.828125 1.015625 0.09375 1.875 0.09375 C 2.15625 0.09375 2.71875 0.03125 3.25 -0.46875 L 3.25 0 Z M 3.25 -1.265625 C 3.25 -1.09375 3.25 -1.078125 3.15625 -0.953125 C 2.90625 -0.625 2.609375 -0.484375 2.28125 -0.484375 C 1.703125 -0.484375 1.0625 -0.90625 1.0625 -1.96875 C 1.0625 -3.109375 1.8125 -3.484375 2.375 -3.484375 C 2.796875 -3.484375 3.078125 -3.25 3.25 -3.015625 Z M 3.25 -1.265625 "/>
</g>
<g id="glyph-0-13">
<path d="M 4.3125 0 L 2.578125 -2.421875 L 4.109375 -3.96875 L 3.265625 -3.96875 L 1.4375 -2.125 L 1.4375 -6.1875 L 0.765625 -6.1875 L 0.765625 0 L 1.40625 0 L 1.40625 -1.265625 L 2.125 -1.984375 L 3.546875 0 Z M 4.3125 0 "/>
</g>
<g id="glyph-0-14">
<path d="M 4.09375 -3.96875 L 3.390625 -3.96875 C 2.71875 -2.34375 2.21875 -1.15625 2.171875 -0.53125 C 2.15625 -0.9375 1.78125 -1.859375 1.671875 -2.109375 C 1.296875 -3.03125 1.15625 -3.328125 0.875 -3.96875 L 0.125 -3.96875 L 1.90625 0 L 1.578125 0.796875 C 1.34375 1.296875 1.171875 1.296875 1.046875 1.296875 C 0.90625 1.296875 0.59375 1.265625 0.328125 1.140625 L 0.390625 1.75 C 0.40625 1.765625 0.734375 1.828125 1.046875 1.828125 C 1.28125 1.828125 1.671875 1.828125 2.109375 0.765625 Z M 4.09375 -3.96875 "/>
</g>
<g id="glyph-0-15">
<path d="M 4.40625 -1.984375 C 4.40625 -3.0625 3.84375 -4.0625 2.984375 -4.0625 C 2.734375 -4.0625 2.0625 -4.015625 1.453125 -3.53125 L 1.453125 -3.96875 L 0.734375 -3.96875 L 0.734375 1.734375 L 1.484375 1.734375 L 1.484375 -0.40625 C 1.8125 -0.09375 2.25 0.09375 2.71875 0.09375 C 3.625 0.09375 4.40625 -0.78125 4.40625 -1.984375 Z M 3.671875 -1.984375 C 3.671875 -1.125 3.046875 -0.484375 2.34375 -0.484375 C 2.0625 -0.484375 1.734375 -0.59375 1.484375 -1.03125 L 1.484375 -2.96875 C 1.59375 -3.125 1.921875 -3.453125 2.4375 -3.453125 C 3.109375 -3.453125 3.671875 -2.8125 3.671875 -1.984375 Z M 3.671875 -1.984375 "/>
</g>
<g id="glyph-0-16">
<path d="M 2.546875 -1.703125 L 2.546875 -2.25 L 0.09375 -2.25 L 0.09375 -1.703125 Z M 2.546875 -1.703125 "/>
</g>
<g id="glyph-0-17">
<path d="M 4 0 L 4 -2.65625 C 4 -3.3125 3.828125 -4.0625 2.75 -4.0625 C 2.234375 -4.0625 1.75 -3.8125 1.4375 -3.421875 L 1.4375 -6.1875 L 0.71875 -6.1875 L 0.71875 0 L 1.46875 0 L 1.46875 -2.171875 C 1.46875 -2.765625 1.6875 -3.484375 2.375 -3.484375 C 3.265625 -3.484375 3.265625 -2.84375 3.265625 -2.59375 L 3.265625 0 Z M 4 0 "/>
</g>
<g id="glyph-0-18">
<path d="M 6.125 -3.96875 L 5.4375 -3.96875 C 5.234375 -3.3125 4.5 -1.03125 4.4375 -0.5 C 4.375 -0.875 4.1875 -1.484375 4.046875 -1.984375 L 3.421875 -3.96875 L 2.765625 -3.96875 C 2.484375 -3.09375 1.84375 -1.09375 1.8125 -0.53125 L 1.796875 -0.53125 C 1.78125 -0.859375 1.546875 -1.671875 1.375 -2.21875 L 0.84375 -3.96875 L 0.125 -3.96875 L 1.390625 0 L 2.125 0 L 2.65625 -1.71875 C 2.84375 -2.359375 3.0625 -3.0625 3.09375 -3.453125 C 3.109375 -3.28125 3.1875 -2.9375 3.21875 -2.84375 C 3.3125 -2.453125 3.3125 -2.4375 3.375 -2.203125 L 4.0625 0 L 4.875 0 Z M 6.125 -3.96875 "/>
</g>
<g id="glyph-1-0">
<path d="M 3.375 0 L 3.375 -0.46875 L 2.390625 -0.46875 L 2.390625 -5.03125 L 2.21875 -5.03125 C 1.734375 -4.59375 1.125 -4.5625 0.6875 -4.546875 L 0.6875 -4.078125 C 0.96875 -4.078125 1.34375 -4.09375 1.71875 -4.25 L 1.71875 -0.46875 L 0.734375 -0.46875 L 0.734375 0 Z M 3.375 0 "/>
</g>
<g id="glyph-1-1">
<path d="M 3.546875 0 L 3.546875 -0.578125 L 2.109375 -0.578125 C 2.015625 -0.578125 1.921875 -0.5625 1.84375 -0.5625 L 0.984375 -0.5625 L 2.140625 -1.578125 C 2.28125 -1.703125 2.640625 -1.984375 2.78125 -2.09375 C 3.109375 -2.390625 3.546875 -2.78125 3.546875 -3.421875 C 3.546875 -4.265625 2.921875 -5.03125 1.859375 -5.03125 C 1.078125 -5.03125 0.578125 -4.609375 0.328125 -3.859375 L 0.671875 -3.40625 C 0.84375 -4.03125 1.109375 -4.515625 1.75 -4.515625 C 2.375 -4.515625 2.859375 -4.078125 2.859375 -3.40625 C 2.859375 -2.796875 2.484375 -2.453125 2.046875 -2.015625 C 1.890625 -1.875 1.5 -1.546875 1.34375 -1.390625 C 1.125 -1.203125 0.609375 -0.703125 0.390625 -0.515625 L 0.390625 0 Z M 3.546875 0 "/>
</g>
<g id="glyph-1-2">
<path d="M 3.609375 -1.359375 C 3.609375 -1.96875 3.125 -2.453125 2.53125 -2.625 C 3.09375 -2.921875 3.390625 -3.40625 3.390625 -3.890625 C 3.390625 -4.53125 2.75 -5.03125 1.953125 -5.03125 C 1.296875 -5.03125 0.75 -4.6875 0.4375 -4.25 L 0.75 -3.8125 C 1.046875 -4.40625 1.578125 -4.578125 1.9375 -4.578125 C 2.375 -4.578125 2.703125 -4.328125 2.703125 -3.890625 C 2.703125 -3.5 2.4375 -3.015625 1.875 -2.921875 C 1.84375 -2.921875 1.8125 -2.921875 1.3125 -2.875 L 1.3125 -2.390625 L 1.890625 -2.390625 C 2.609375 -2.390625 2.859375 -1.828125 2.859375 -1.359375 C 2.859375 -0.78125 2.5 -0.328125 1.921875 -0.328125 C 1.390625 -0.328125 0.796875 -0.59375 0.421875 -1.0625 L 0.328125 -0.578125 C 0.765625 -0.09375 1.359375 0.15625 1.9375 0.15625 C 2.921875 0.15625 3.609375 -0.578125 3.609375 -1.359375 Z M 3.609375 -1.359375 "/>
</g>
<g id="glyph-1-3">
<path d="M 3.71875 -1.234375 L 3.71875 -1.734375 L 2.9375 -1.734375 L 2.9375 -4.875 L 2.203125 -4.875 L 0.21875 -1.734375 L 0.21875 -1.234375 L 2.3125 -1.234375 L 2.3125 0 L 2.9375 0 L 2.9375 -1.234375 Z M 2.359375 -1.734375 L 0.859375 -1.734375 C 1.078125 -2.078125 2.34375 -4.0625 2.359375 -4.515625 Z M 2.359375 -1.734375 "/>
</g>
<g id="glyph-1-4">
<path d="M 3.546875 -1.515625 C 3.546875 -2.4375 2.859375 -3.171875 2.046875 -3.171875 C 1.71875 -3.171875 1.4375 -3.0625 1.21875 -2.875 L 1.21875 -4.359375 L 3.28125 -4.359375 L 3.28125 -4.875 L 0.625 -4.875 L 0.625 -2.09375 L 1.171875 -2.09375 C 1.34375 -2.5 1.703125 -2.671875 2.03125 -2.671875 C 2.328125 -2.671875 2.796875 -2.46875 2.796875 -1.53125 C 2.796875 -0.546875 2.171875 -0.328125 1.796875 -0.328125 C 1.3125 -0.328125 0.828125 -0.59375 0.578125 -1.015625 L 0.296875 -0.578125 C 0.65625 -0.125 1.21875 0.15625 1.796875 0.15625 C 2.78125 0.15625 3.546875 -0.609375 3.546875 -1.515625 Z M 3.546875 -1.515625 "/>
</g>
<g id="glyph-1-5">
<path d="M 3.609375 -1.65625 C 3.609375 -2.640625 3.09375 -3.4375 2.359375 -3.4375 C 1.640625 -3.4375 1.234375 -3.0625 1.03125 -2.84375 C 1.125 -3.875 1.640625 -4.578125 2.453125 -4.578125 C 2.59375 -4.578125 2.890625 -4.5625 3.265625 -4.421875 L 3.265625 -4.890625 C 2.859375 -5.03125 2.578125 -5.03125 2.4375 -5.03125 C 1.3125 -5.03125 0.328125 -3.96875 0.328125 -2.40625 C 0.328125 -0.390625 1.234375 0.15625 1.984375 0.15625 C 2.59375 0.15625 2.90625 -0.125 3.125 -0.359375 C 3.609375 -0.875 3.609375 -1.390625 3.609375 -1.65625 Z M 2.9375 -1.65625 C 2.9375 -1.375 2.9375 -1.0625 2.734375 -0.75 C 2.546875 -0.484375 2.328125 -0.328125 1.984375 -0.328125 C 1.203125 -0.328125 1.078125 -1.3125 1.03125 -1.640625 C 1.03125 -1.6875 1.03125 -1.796875 1.046875 -1.828125 C 1.046875 -2.328125 1.359375 -2.953125 2.015625 -2.953125 C 2.9375 -2.953125 2.9375 -1.90625 2.9375 -1.65625 Z M 2.9375 -1.65625 "/>
</g>
<g id="glyph-1-6">
<path d="M 3.609375 -4.359375 L 3.609375 -4.875 L 0.328125 -4.875 L 0.328125 -4.3125 L 1.84375 -4.3125 C 1.921875 -4.3125 2.015625 -4.3125 2.109375 -4.3125 L 3.046875 -4.3125 C 1.90625 -3.203125 1.1875 -1.65625 1.1875 0.078125 L 1.890625 0.078125 C 1.890625 -2.09375 2.9375 -3.65625 3.609375 -4.359375 Z M 3.609375 -4.359375 "/>
</g>
<g id="glyph-1-7">
<path d="M 3.609375 -1.359375 C 3.609375 -1.921875 3.1875 -2.4375 2.546875 -2.640625 C 3.03125 -2.78125 3.5 -3.1875 3.5 -3.734375 C 3.5 -4.40625 2.859375 -5.03125 1.96875 -5.03125 C 1.078125 -5.03125 0.4375 -4.40625 0.4375 -3.734375 C 0.4375 -3.171875 0.921875 -2.78125 1.390625 -2.640625 C 0.75 -2.4375 0.328125 -1.921875 0.328125 -1.359375 C 0.328125 -0.5625 1.03125 0.15625 1.96875 0.15625 C 2.90625 0.15625 3.609375 -0.5625 3.609375 -1.359375 Z M 2.9375 -3.71875 C 2.9375 -3.203125 2.515625 -2.875 1.96875 -2.875 C 1.4375 -2.875 1.015625 -3.1875 1.015625 -3.71875 C 1.015625 -4.203125 1.34375 -4.578125 1.96875 -4.578125 C 2.59375 -4.578125 2.9375 -4.203125 2.9375 -3.71875 Z M 2.9375 -1.359375 C 2.9375 -0.65625 2.484375 -0.328125 1.96875 -0.328125 C 1.453125 -0.328125 1 -0.65625 1 -1.359375 C 1 -2.03125 1.4375 -2.390625 1.96875 -2.390625 C 2.5 -2.390625 2.9375 -2.015625 2.9375 -1.359375 Z M 2.9375 -1.359375 "/>
</g>
<g id="glyph-1-8">
<path d="M 3.609375 -2.484375 C 3.609375 -4.515625 2.71875 -5.03125 2 -5.03125 C 1.34375 -5.03125 1.03125 -4.71875 0.8125 -4.5 C 0.34375 -4.03125 0.328125 -3.515625 0.328125 -3.21875 C 0.328125 -2.265625 0.84375 -1.4375 1.578125 -1.4375 C 2.421875 -1.4375 2.875 -2 2.921875 -2.03125 C 2.8125 -0.859375 2.234375 -0.328125 1.625 -0.328125 C 1.234375 -0.328125 1 -0.46875 0.828125 -0.625 L 0.578125 -0.1875 C 0.9375 0.078125 1.265625 0.15625 1.625 0.15625 C 2.65625 0.15625 3.609375 -0.890625 3.609375 -2.484375 Z M 2.90625 -3.0625 C 2.90625 -2.515625 2.5625 -1.921875 1.921875 -1.921875 C 1.640625 -1.921875 1.40625 -2.015625 1.21875 -2.3125 C 1.03125 -2.609375 1.015625 -2.890625 1.015625 -3.21875 C 1.015625 -3.515625 1.015625 -3.84375 1.234375 -4.171875 C 1.390625 -4.390625 1.625 -4.578125 2 -4.578125 C 2.71875 -4.578125 2.875 -3.703125 2.890625 -3.234375 C 2.90625 -3.1875 2.90625 -3.109375 2.90625 -3.0625 Z M 2.90625 -3.0625 "/>
</g>
<g id="glyph-1-9">
<path d="M 3.625 -2.421875 C 3.625 -2.78125 3.625 -3.640625 3.28125 -4.25 C 2.90625 -4.921875 2.328125 -5.03125 1.96875 -5.03125 C 1.640625 -5.03125 1.0625 -4.9375 0.6875 -4.296875 C 0.328125 -3.703125 0.3125 -2.890625 0.3125 -2.421875 C 0.3125 -1.859375 0.34375 -1.1875 0.65625 -0.625 C 0.984375 -0.015625 1.53125 0.15625 1.96875 0.15625 C 2.71875 0.15625 3.125 -0.28125 3.34375 -0.75 C 3.609375 -1.265625 3.625 -1.953125 3.625 -2.421875 Z M 2.984375 -2.515625 C 2.984375 -2.015625 2.984375 -1.46875 2.796875 -0.984375 C 2.59375 -0.453125 2.21875 -0.328125 1.96875 -0.328125 C 1.65625 -0.328125 1.296875 -0.515625 1.109375 -1.046875 C 0.96875 -1.5 0.953125 -1.96875 0.953125 -2.515625 C 0.953125 -3.203125 0.953125 -4.546875 1.96875 -4.546875 C 2.984375 -4.546875 2.984375 -3.203125 2.984375 -2.515625 Z M 2.984375 -2.515625 "/>
</g>
<g id="glyph-2-0">
<path d="M 3.328125 -1.1875 C 3.328125 -1.65625 3.078125 -1.953125 2.9375 -2.09375 C 2.59375 -2.390625 2.296875 -2.4375 1.953125 -2.515625 C 1.484375 -2.59375 1.140625 -2.65625 1.140625 -2.984375 C 1.140625 -3.328125 1.421875 -3.40625 1.75 -3.40625 C 2.3125 -3.40625 2.625 -3.1875 2.84375 -3 C 2.921875 -2.921875 2.9375 -2.921875 2.96875 -2.921875 C 3.0625 -2.921875 3.078125 -3 3.078125 -3.03125 C 3.09375 -3.09375 3.1875 -3.578125 3.1875 -3.609375 C 3.1875 -3.75 2.734375 -3.859375 2.640625 -3.90625 C 2.3125 -3.984375 2.03125 -4 1.8125 -4 C 1.4375 -4 0.3125 -4 0.3125 -2.796875 C 0.3125 -2.390625 0.5 -2.125 0.71875 -1.921875 C 1.015625 -1.65625 1.34375 -1.59375 1.828125 -1.5 C 2.078125 -1.46875 2.5 -1.390625 2.5 -1.015625 C 2.5 -0.625 2.171875 -0.5625 1.84375 -0.5625 C 1.46875 -0.5625 1 -0.671875 0.609375 -1.140625 C 0.5625 -1.1875 0.53125 -1.21875 0.484375 -1.21875 C 0.40625 -1.21875 0.390625 -1.140625 0.375 -1.09375 C 0.359375 -0.96875 0.265625 -0.484375 0.265625 -0.40625 C 0.265625 -0.25 0.890625 -0.046875 0.890625 -0.046875 C 1.359375 0.09375 1.703125 0.09375 1.84375 0.09375 C 2.28125 0.09375 3.328125 0.0625 3.328125 -1.1875 Z M 3.328125 -1.1875 "/>
</g>
<g id="glyph-2-1">
<path d="M 3.984375 -0.40625 L 3.984375 -2.65625 C 3.984375 -3.984375 2.71875 -4 2.296875 -4 C 1.890625 -4 1.46875 -3.96875 0.90625 -3.734375 C 0.734375 -3.65625 0.6875 -3.625 0.6875 -3.53125 C 0.6875 -3.484375 0.734375 -2.984375 0.75 -2.921875 C 0.765625 -2.875 0.796875 -2.828125 0.859375 -2.828125 C 0.90625 -2.828125 0.921875 -2.859375 0.953125 -2.875 C 1.3125 -3.265625 1.734375 -3.4375 2.25 -3.4375 C 2.71875 -3.4375 2.84375 -3.171875 2.84375 -2.671875 L 2.84375 -2.375 C 2.546875 -2.375 0.34375 -2.359375 0.34375 -1.125 C 0.34375 -0.53125 0.8125 0.09375 1.5625 0.09375 C 1.84375 0.09375 2.46875 0.015625 2.875 -0.578125 L 2.875 -0.40625 C 2.875 -0.140625 2.9375 0 3.28125 0 L 3.59375 0 C 3.90625 0 3.984375 -0.109375 3.984375 -0.40625 Z M 2.84375 -1.296875 C 2.84375 -0.515625 2.046875 -0.515625 2.015625 -0.515625 C 1.671875 -0.515625 1.4375 -0.8125 1.4375 -1.140625 C 1.4375 -1.96875 2.609375 -2.015625 2.84375 -2.03125 Z M 2.84375 -1.296875 "/>
</g>
<g id="glyph-2-2">
<path d="M 3.984375 -3.625 C 3.984375 -3.859375 3.765625 -3.859375 3.640625 -3.859375 L 3.46875 -3.859375 C 3.109375 -3.859375 3.03125 -3.734375 2.953125 -3.5 L 2.109375 -0.953125 L 1.28125 -3.5 C 1.21875 -3.671875 1.15625 -3.859375 0.765625 -3.859375 L 0.5625 -3.859375 C 0.421875 -3.859375 0.21875 -3.859375 0.21875 -3.625 C 0.21875 -3.59375 0.21875 -3.578125 0.265625 -3.46875 L 1.265625 -0.359375 C 1.375 0 1.640625 0 1.796875 0 L 2.40625 0 C 2.5625 0 2.828125 0 2.9375 -0.359375 L 3.9375 -3.46875 C 3.984375 -3.578125 3.984375 -3.59375 3.984375 -3.625 Z M 3.984375 -3.625 "/>
</g>
<g id="glyph-2-3">
<path d="M 4.03125 -2.1875 C 4.03125 -3.28125 3.53125 -4 2.28125 -4 C 0.921875 -4 0.265625 -3.25 0.265625 -1.96875 C 0.265625 -0.578125 1.0625 0.09375 2.390625 0.09375 C 2.703125 0.09375 3.1875 0.046875 3.734375 -0.234375 C 3.921875 -0.3125 3.984375 -0.34375 3.984375 -0.453125 C 3.984375 -0.5 3.953125 -0.75 3.953125 -0.8125 C 3.921875 -1.078125 3.90625 -1.09375 3.828125 -1.09375 C 3.796875 -1.09375 3.78125 -1.09375 3.6875 -1 C 3.1875 -0.578125 2.6875 -0.515625 2.421875 -0.515625 C 1.46875 -0.515625 1.359375 -1.265625 1.34375 -1.796875 L 3.625 -1.796875 C 3.828125 -1.796875 4.03125 -1.8125 4.03125 -2.1875 Z M 3.09375 -2.25 L 1.34375 -2.25 C 1.375 -2.765625 1.546875 -3.390625 2.28125 -3.390625 C 2.953125 -3.390625 3.078125 -2.90625 3.09375 -2.25 Z M 3.09375 -2.25 "/>
</g>
<g id="glyph-2-4">
<path d="M 4.203125 -0.40625 L 4.203125 -5.4375 C 4.203125 -5.703125 4.140625 -5.84375 3.796875 -5.84375 L 3.484375 -5.84375 C 3.171875 -5.84375 3.078125 -5.734375 3.078125 -5.4375 L 3.078125 -3.53125 C 2.703125 -3.890625 2.28125 -3.953125 2.015625 -3.953125 C 0.3125 -3.953125 0.3125 -2.328125 0.3125 -1.921875 C 0.3125 -1.53125 0.3125 0.09375 1.984375 0.09375 C 2.328125 0.09375 2.6875 -0.015625 3.0625 -0.390625 C 3.0625 -0.078125 3.171875 0 3.46875 0 L 3.796875 0 C 4.125 0 4.203125 -0.109375 4.203125 -0.40625 Z M 3.0625 -1.046875 C 3.0625 -0.90625 3.0625 -0.828125 2.8125 -0.671875 C 2.609375 -0.53125 2.40625 -0.515625 2.3125 -0.515625 C 1.453125 -0.515625 1.453125 -1.28125 1.453125 -1.921875 C 1.453125 -2.546875 1.453125 -3.34375 2.40625 -3.34375 C 2.640625 -3.34375 2.875 -3.265625 3.0625 -3.078125 Z M 3.0625 -1.046875 "/>
</g>
<g id="glyph-2-5">
<path d="M 4.40625 -1.953125 C 4.40625 -2.359375 4.40625 -3.953125 2.875 -3.953125 C 2.390625 -3.953125 1.9375 -3.75 1.640625 -3.46875 C 1.640625 -3.765625 1.515625 -3.859375 1.234375 -3.859375 L 0.921875 -3.859375 C 0.609375 -3.859375 0.515625 -3.765625 0.515625 -3.453125 L 0.515625 1.234375 C 0.515625 1.53125 0.609375 1.640625 0.921875 1.640625 L 1.25 1.640625 C 1.578125 1.640625 1.65625 1.53125 1.65625 1.234375 L 1.65625 -0.328125 C 2.03125 0.09375 2.5 0.09375 2.625 0.09375 C 4.40625 0.09375 4.40625 -1.53125 4.40625 -1.953125 Z M 3.265625 -1.921875 C 3.265625 -1.59375 3.265625 -0.515625 2.3125 -0.515625 C 2.109375 -0.515625 1.96875 -0.578125 1.859375 -0.65625 C 1.65625 -0.796875 1.65625 -0.84375 1.65625 -1 L 1.65625 -3.015625 C 1.75 -3.09375 2.03125 -3.296875 2.390625 -3.296875 C 3.25 -3.296875 3.265625 -2.296875 3.265625 -1.921875 Z M 3.265625 -1.921875 "/>
</g>
<g id="glyph-2-6">
<path d="M 3 -3.328125 L 3 -3.71875 C 3 -3.890625 3 -3.953125 2.84375 -3.953125 C 2.609375 -3.953125 2 -3.859375 1.59375 -2.953125 L 1.59375 -3.5 C 1.59375 -3.765625 1.53125 -3.90625 1.1875 -3.90625 L 0.921875 -3.90625 C 0.609375 -3.90625 0.515625 -3.8125 0.515625 -3.5 L 0.515625 -0.40625 C 0.515625 -0.09375 0.609375 0 0.921875 0 L 1.234375 0 C 1.546875 0 1.640625 -0.109375 1.640625 -0.40625 L 1.640625 -1.9375 C 1.640625 -2.734375 2.296875 -3.0625 2.828125 -3.09375 C 2.984375 -3.109375 3 -3.109375 3 -3.328125 Z M 3 -3.328125 "/>
</g>
<g id="glyph-2-7">
<path d="M 4.359375 -1.890625 C 4.359375 -3.28125 3.6875 -4 2.3125 -4 C 0.90625 -4 0.265625 -3.25 0.265625 -1.890625 C 0.265625 -0.515625 0.984375 0.09375 2.3125 0.09375 C 3.625 0.09375 4.359375 -0.515625 4.359375 -1.890625 Z M 3.21875 -2 C 3.21875 -1.328125 3.21875 -0.5625 2.3125 -0.5625 C 1.40625 -0.5625 1.40625 -1.328125 1.40625 -2 C 1.40625 -2.640625 1.40625 -3.390625 2.3125 -3.390625 C 3.21875 -3.390625 3.21875 -2.65625 3.21875 -2 Z M 3.21875 -2 "/>
</g>
<g id="glyph-2-8">
<path d="M 4.21875 -0.40625 L 4.21875 -3.453125 C 4.21875 -3.71875 4.15625 -3.859375 3.8125 -3.859375 L 3.46875 -3.859375 C 3.15625 -3.859375 3.0625 -3.75 3.0625 -3.453125 L 3.0625 -1.453125 C 3.0625 -0.90625 2.765625 -0.421875 2.171875 -0.421875 C 1.703125 -0.421875 1.65625 -0.53125 1.65625 -0.984375 L 1.65625 -3.453125 C 1.65625 -3.71875 1.59375 -3.859375 1.25 -3.859375 L 0.90625 -3.859375 C 0.609375 -3.859375 0.5 -3.765625 0.5 -3.453125 L 0.5 -1.0625 C 0.5 -0.15625 1 0.09375 1.875 0.09375 C 2.09375 0.09375 2.6875 0.09375 3.09375 -0.625 L 3.09375 -0.40625 C 3.09375 -0.140625 3.15625 0 3.5 0 L 3.8125 0 C 4.125 0 4.21875 -0.109375 4.21875 -0.40625 Z M 4.21875 -0.40625 "/>
</g>
<g id="glyph-2-9">
<path d="M 3.84375 -0.421875 C 3.84375 -0.515625 3.8125 -0.90625 3.796875 -1.015625 C 3.796875 -1.03125 3.78125 -1.125 3.703125 -1.125 C 3.65625 -1.125 3.640625 -1.125 3.5625 -1.03125 C 3.421875 -0.90625 3.03125 -0.5625 2.328125 -0.5625 C 1.453125 -0.5625 1.453125 -1.421875 1.453125 -1.953125 C 1.453125 -2.640625 1.5 -3.34375 2.359375 -3.34375 C 2.90625 -3.34375 3.140625 -3.203125 3.4375 -2.953125 C 3.53125 -2.859375 3.546875 -2.859375 3.59375 -2.859375 C 3.671875 -2.859375 3.6875 -2.9375 3.703125 -2.96875 C 3.71875 -3.046875 3.796875 -3.515625 3.796875 -3.546875 C 3.796875 -3.625 3.734375 -3.65625 3.59375 -3.734375 C 3.1875 -3.921875 2.9375 -4 2.34375 -4 C 1.09375 -4 0.3125 -3.40625 0.3125 -1.9375 C 0.3125 -0.53125 1.03125 0.09375 2.3125 0.09375 C 2.53125 0.09375 3.046875 0.078125 3.609375 -0.203125 C 3.84375 -0.328125 3.84375 -0.34375 3.84375 -0.421875 Z M 3.84375 -0.421875 "/>
</g>
<g id="glyph-2-10">
<path d="M 3.140625 -0.390625 C 3.140625 -0.421875 3.125 -0.484375 3.078125 -0.65625 C 3.03125 -0.828125 3.015625 -0.875 2.9375 -0.875 C 2.890625 -0.875 2.890625 -0.875 2.84375 -0.8125 C 2.75 -0.75 2.515625 -0.5625 2.171875 -0.5625 C 1.96875 -0.5625 1.84375 -0.703125 1.84375 -1.265625 L 1.84375 -3.25 L 2.578125 -3.25 C 2.6875 -3.25 2.984375 -3.25 2.984375 -3.546875 C 2.984375 -3.859375 2.6875 -3.859375 2.578125 -3.859375 L 1.84375 -3.859375 L 1.84375 -4.5625 C 1.84375 -4.828125 1.78125 -4.953125 1.4375 -4.953125 L 1.171875 -4.953125 C 0.875 -4.953125 0.765625 -4.875 0.765625 -4.5625 L 0.765625 -3.859375 L 0.578125 -3.859375 C 0.484375 -3.859375 0.171875 -3.859375 0.171875 -3.546875 C 0.171875 -3.25 0.46875 -3.25 0.578125 -3.25 L 0.734375 -3.25 L 0.734375 -1.125 C 0.734375 -0.265625 1.046875 0.09375 1.625 0.09375 C 1.703125 0.09375 2.078125 0.09375 2.515625 -0.046875 C 2.65625 -0.078125 3.140625 -0.234375 3.140625 -0.390625 Z M 3.140625 -0.390625 "/>
</g>
<g id="glyph-3-0">
<path d="M 1.546875 0 L 1.546875 -4.390625 L 0.796875 -4.390625 L 0.796875 0 Z M 1.625 -5.609375 L 1.625 -6.484375 L 0.75 -6.484375 L 0.75 -5.609375 Z M 1.625 -5.609375 "/>
</g>
<g id="glyph-3-1">
<path d="M 4.3125 0 L 4.3125 -2.953125 C 4.3125 -3.609375 4.15625 -4.5 2.953125 -4.5 C 2.0625 -4.5 1.578125 -3.828125 1.515625 -3.75 L 1.515625 -4.453125 L 0.796875 -4.453125 L 0.796875 0 L 1.578125 0 L 1.578125 -2.421875 C 1.578125 -3.078125 1.828125 -3.90625 2.578125 -3.90625 C 3.53125 -3.90625 3.53125 -3.203125 3.53125 -2.875 L 3.53125 0 Z M 4.3125 0 "/>
</g>
<g id="glyph-3-2">
<path d="M 3.28125 -0.265625 L 3.125 -0.859375 C 2.875 -0.640625 2.5625 -0.53125 2.234375 -0.53125 C 1.875 -0.53125 1.734375 -0.828125 1.734375 -1.34375 L 1.734375 -3.828125 L 3.125 -3.828125 L 3.125 -4.390625 L 1.734375 -4.390625 L 1.734375 -5.65625 L 1.046875 -5.65625 L 1.046875 -4.390625 L 0.1875 -4.390625 L 0.1875 -3.828125 L 1.015625 -3.828125 L 1.015625 -1.171875 C 1.015625 -0.578125 1.15625 0.109375 1.84375 0.109375 C 2.53125 0.109375 3.046875 -0.140625 3.28125 -0.265625 Z M 3.28125 -0.265625 "/>
</g>
<g id="glyph-3-3">
<path d="M 4.09375 -2.171875 C 4.09375 -2.5 4.09375 -3.25 3.703125 -3.84375 C 3.296875 -4.453125 2.6875 -4.5625 2.34375 -4.5625 C 1.234375 -4.5625 0.34375 -3.515625 0.34375 -2.234375 C 0.34375 -0.9375 1.296875 0.109375 2.484375 0.109375 C 3.109375 0.109375 3.671875 -0.125 4.0625 -0.40625 L 4 -1.046875 C 3.375 -0.53125 2.71875 -0.5 2.5 -0.5 C 1.703125 -0.5 1.0625 -1.203125 1.046875 -2.171875 Z M 3.53125 -2.71875 L 1.09375 -2.71875 C 1.25 -3.46875 1.765625 -3.96875 2.34375 -3.96875 C 2.859375 -3.96875 3.40625 -3.625 3.53125 -2.71875 Z M 3.53125 -2.71875 "/>
</g>
<g id="glyph-3-4">
<path d="M 3.234375 -3.84375 L 3.234375 -4.5 C 2.359375 -4.5 1.8125 -4.015625 1.5 -3.5625 L 1.5 -4.453125 L 0.8125 -4.453125 L 0.8125 0 L 1.5625 0 L 1.5625 -2.125 C 1.5625 -3.109375 2.265625 -3.828125 3.234375 -3.84375 Z M 3.234375 -3.84375 "/>
</g>
<g id="glyph-3-5">
<path d="M 4.3125 0 L 4.3125 -4.390625 L 3.53125 -4.390625 L 3.53125 -1.53125 C 3.53125 -0.78125 2.984375 -0.4375 2.34375 -0.4375 C 1.640625 -0.4375 1.578125 -0.6875 1.578125 -1.125 L 1.578125 -4.390625 L 0.796875 -4.390625 L 0.796875 -1.078125 C 0.796875 -0.359375 1.03125 0.109375 1.859375 0.109375 C 2.375 0.109375 3.078125 -0.046875 3.5625 -0.46875 L 3.5625 0 Z M 4.3125 0 "/>
</g>
<g id="glyph-3-6">
<path d="M 4.75 -2.203125 C 4.75 -3.390625 4.125 -4.5 3.1875 -4.5 C 2.578125 -4.5 2.015625 -4.296875 1.5625 -3.90625 L 1.5625 -4.390625 L 0.8125 -4.390625 L 0.8125 1.921875 L 1.578125 1.921875 L 1.578125 -0.453125 C 1.890625 -0.171875 2.328125 0.109375 2.921875 0.109375 C 3.890625 0.109375 4.75 -0.859375 4.75 -2.203125 Z M 3.984375 -2.203125 C 3.984375 -1.1875 3.28125 -0.5 2.53125 -0.5 C 2.15625 -0.5 1.875 -0.6875 1.6875 -0.953125 C 1.578125 -1.109375 1.578125 -1.125 1.578125 -1.3125 L 1.578125 -3.296875 C 1.828125 -3.640625 2.203125 -3.875 2.640625 -3.875 C 3.390625 -3.875 3.984375 -3.125 3.984375 -2.203125 Z M 3.984375 -2.203125 "/>
</g>
<g id="glyph-3-7">
<path d="M 4.640625 -2.171875 C 4.640625 -3.5 3.65625 -4.5625 2.484375 -4.5625 C 1.265625 -4.5625 0.296875 -3.484375 0.296875 -2.171875 C 0.296875 -0.875 1.3125 0.109375 2.46875 0.109375 C 3.65625 0.109375 4.640625 -0.890625 4.640625 -2.171875 Z M 3.875 -2.28125 C 3.875 -1.109375 3.203125 -0.53125 2.46875 -0.53125 C 1.78125 -0.53125 1.0625 -1.078125 1.0625 -2.28125 C 1.0625 -3.484375 1.828125 -3.96875 2.46875 -3.96875 C 3.15625 -3.96875 3.875 -3.453125 3.875 -2.28125 Z M 3.875 -2.28125 "/>
</g>
<g id="glyph-3-8">
<path d="M 4.109375 -0.390625 L 4.046875 -1.0625 C 3.546875 -0.65625 3.015625 -0.53125 2.5 -0.53125 C 1.6875 -0.53125 1.125 -1.234375 1.125 -2.203125 C 1.125 -2.984375 1.5 -3.9375 2.546875 -3.9375 C 3.0625 -3.9375 3.390625 -3.859375 3.9375 -3.5 L 4.0625 -4.140625 C 3.484375 -4.484375 3.140625 -4.5625 2.53125 -4.5625 C 1.15625 -4.5625 0.359375 -3.375 0.359375 -2.203125 C 0.359375 -0.96875 1.265625 0.109375 2.5 0.109375 C 3.03125 0.109375 3.578125 -0.03125 4.109375 -0.390625 Z M 4.109375 -0.390625 "/>
</g>
</g>
<clipPath id="clip-0">
<path clip-rule="nonzero" d="M 0.914062 0 L 404.34375 0 L 404.34375 136.511719 L 0.914062 136.511719 Z M 0.914062 0 "/>
</clipPath>
<clipPath id="clip-1">
<path clip-rule="nonzero" d="M 323 16 L 404.34375 16 L 404.34375 55 L 323 55 Z M 323 16 "/>
</clipPath>
</defs>
<g clip-path="url(#clip-0)">
<path fill-rule="nonzero" fill="rgb(100%, 100%, 100%)" fill-opacity="1" d="M 0.914062 136.511719 L 404.34375 136.511719 L 404.34375 0 L 0.914062 0 Z M 0.914062 136.511719 "/>
</g>
<g fill="rgb(36.863708%, 44.314575%, 52.157593%)" fill-opacity="1">
<use xlink:href="#glyph-0-0" x="12.142229" y="19.366597"/>
<use xlink:href="#glyph-0-1" x="17.055081" y="19.366597"/>
<use xlink:href="#glyph-0-2" x="20.186143" y="19.366597"/>
<use xlink:href="#glyph-0-3" x="23.699782" y="19.366597"/>
</g>
<g fill="rgb(36.863708%, 44.314575%, 52.157593%)" fill-opacity="1">
<use xlink:href="#glyph-0-1" x="30.068029" y="19.366597"/>
<use xlink:href="#glyph-0-4" x="33.199091" y="19.366597"/>
<use xlink:href="#glyph-0-5" x="37.932693" y="19.366597"/>
</g>
<path fill="none" stroke-width="0.99628" stroke-linecap="butt" stroke-linejoin="miter" stroke="rgb(60.392761%, 66.665649%, 73.33374%)" stroke-opacity="1" stroke-miterlimit="10" d="M 13.038205 103.274066 L 337.721511 103.274066 " transform="matrix(0.994587, 0, 0, -0.994587, -1.733253, 138.175977)"/>
<path fill-rule="nonzero" fill="rgb(57.569885%, 60.116577%, 50.979614%)" fill-opacity="1" d="M 26.796875 43.503906 L 26.796875 27.421875 L 45.472656 27.421875 L 45.472656 43.503906 Z M 26.796875 43.503906 "/>
<g fill="rgb(0%, 15.684509%, 33.332825%)" fill-opacity="1">
<use xlink:href="#glyph-1-0" x="34.16139" y="37.90172"/>
</g>
<path fill-rule="nonzero" fill="rgb(57.569885%, 60.116577%, 50.979614%)" fill-opacity="1" d="M 53.253906 43.503906 L 53.253906 27.421875 L 71.929688 27.421875 L 71.929688 43.503906 Z M 53.253906 43.503906 "/>
<g fill="rgb(0%, 15.684509%, 33.332825%)" fill-opacity="1">
<use xlink:href="#glyph-1-1" x="60.617403" y="37.90172"/>
</g>
<path fill-rule="nonzero" fill="rgb(57.569885%, 60.116577%, 50.979614%)" fill-opacity="1" d="M 79.710938 43.503906 L 79.710938 27.421875 L 98.386719 27.421875 L 98.386719 43.503906 Z M 79.710938 43.503906 "/>
<g fill="rgb(0%, 15.684509%, 33.332825%)" fill-opacity="1">
<use xlink:href="#glyph-1-2" x="87.07441" y="37.90172"/>
</g>
<path fill-rule="nonzero" fill="rgb(57.569885%, 60.116577%, 50.979614%)" fill-opacity="1" d="M 106.167969 43.503906 L 106.167969 27.421875 L 124.84375 27.421875 L 124.84375 43.503906 Z M 106.167969 43.503906 "/>
<g fill="rgb(0%, 15.684509%, 33.332825%)" fill-opacity="1">
<use xlink:href="#glyph-1-3" x="113.530424" y="37.90172"/>
</g>
<path fill-rule="nonzero" fill="rgb(57.569885%, 60.116577%, 50.979614%)" fill-opacity="1" d="M 132.625 43.503906 L 132.625 27.421875 L 151.300781 27.421875 L 151.300781 43.503906 Z M 132.625 43.503906 "/>
<g fill="rgb(0%, 15.684509%, 33.332825%)" fill-opacity="1">
<use xlink:href="#glyph-1-4" x="139.986437" y="37.90172"/>
</g>
<path fill-rule="nonzero" fill="rgb(57.569885%, 60.116577%, 50.979614%)" fill-opacity="1" d="M 159.082031 43.503906 L 159.082031 27.421875 L 177.757812 27.421875 L 177.757812 43.503906 Z M 159.082031 43.503906 "/>
<g fill="rgb(0%, 15.684509%, 33.332825%)" fill-opacity="1">
<use xlink:href="#glyph-1-5" x="166.443444" y="37.90172"/>
</g>
<path fill-rule="nonzero" fill="rgb(57.569885%, 60.116577%, 50.979614%)" fill-opacity="1" d="M 185.539062 43.503906 L 185.539062 27.421875 L 204.214844 27.421875 L 204.214844 43.503906 Z M 185.539062 43.503906 "/>
<g fill="rgb(0%, 15.684509%, 33.332825%)" fill-opacity="1">
<use xlink:href="#glyph-1-6" x="192.899457" y="37.90172"/>
</g>
<path fill-rule="nonzero" fill="rgb(57.569885%, 60.116577%, 50.979614%)" fill-opacity="1" d="M 211.996094 43.503906 L 211.996094 27.421875 L 230.671875 27.421875 L 230.671875 43.503906 Z M 211.996094 43.503906 "/>
<g fill="rgb(0%, 15.684509%, 33.332825%)" fill-opacity="1">
<use xlink:href="#glyph-1-7" x="219.35547" y="37.90172"/>
</g>
<path fill-rule="nonzero" fill="rgb(78.588867%, 65.99884%, 34.176636%)" fill-opacity="1" d="M 238.453125 43.503906 L 238.453125 27.421875 L 257.128906 27.421875 L 257.128906 43.503906 Z M 238.453125 43.503906 "/>
<g fill="rgb(0%, 15.684509%, 33.332825%)" fill-opacity="1">
<use xlink:href="#glyph-1-8" x="245.812478" y="37.90172"/>
</g>
<path fill-rule="nonzero" fill="rgb(78.588867%, 65.99884%, 34.176636%)" fill-opacity="1" d="M 264.910156 43.503906 L 264.910156 27.421875 L 283.585938 27.421875 L 283.585938 43.503906 Z M 264.910156 43.503906 "/>
<g fill="rgb(0%, 15.684509%, 33.332825%)" fill-opacity="1">
<use xlink:href="#glyph-1-0" x="270.294236" y="37.90172"/>
<use xlink:href="#glyph-1-9" x="274.241877" y="37.90172"/>
</g>
<path fill-rule="nonzero" fill="rgb(78.588867%, 65.99884%, 34.176636%)" fill-opacity="1" d="M 291.367188 43.503906 L 291.367188 27.421875 L 310.042969 27.421875 L 310.042969 43.503906 Z M 291.367188 43.503906 "/>
<g fill="rgb(0%, 15.684509%, 33.332825%)" fill-opacity="1">
<use xlink:href="#glyph-1-0" x="296.751243" y="37.90172"/>
<use xlink:href="#glyph-1-0" x="300.698885" y="37.90172"/>
</g>
<path fill="none" stroke-width="1.79329" stroke-linecap="butt" stroke-linejoin="miter" stroke="rgb(41.569519%, 44.706726%, 30.979919%)" stroke-opacity="1" stroke-miterlimit="10" d="M 237.581794 87.363724 L 237.581794 118.658122 " transform="matrix(0.994587, 0, 0, -0.994587, -1.733253, 138.175977)"/>
<g fill="rgb(41.569519%, 44.706726%, 30.979919%)" fill-opacity="1">
<use xlink:href="#glyph-2-0" x="207.672057" y="17.078053"/>
<use xlink:href="#glyph-2-1" x="211.223767" y="17.078053"/>
<use xlink:href="#glyph-2-2" x="215.645507" y="17.078053"/>
<use xlink:href="#glyph-2-3" x="219.856687" y="17.078053"/>
<use xlink:href="#glyph-2-4" x="224.161356" y="17.078053"/>
</g>
<g fill="rgb(41.569519%, 44.706726%, 30.979919%)" fill-opacity="1">
<use xlink:href="#glyph-2-5" x="231.97815" y="17.078053"/>
</g>
<g fill="rgb(41.569519%, 44.706726%, 30.979919%)" fill-opacity="1">
<use xlink:href="#glyph-2-6" x="236.442843" y="17.078053"/>
<use xlink:href="#glyph-2-7" x="239.577646" y="17.078053"/>
</g>
<g fill="rgb(41.569519%, 44.706726%, 30.979919%)" fill-opacity="1">
<use xlink:href="#glyph-2-4" x="244.471038" y="17.078053"/>
<use xlink:href="#glyph-2-8" x="249.196825" y="17.078053"/>
<use xlink:href="#glyph-2-9" x="253.922612" y="17.078053"/>
<use xlink:href="#glyph-2-10" x="258.040304" y="17.078053"/>
</g>
<path fill="none" stroke-width="1.99255" stroke-linecap="round" stroke-linejoin="miter" stroke="rgb(55.291748%, 27.450562%, 21.961975%)" stroke-opacity="1" stroke-miterlimit="10" d="M 318.162512 88.667657 L 331.201845 117.354189 M 331.201845 88.667657 L 318.162512 117.354189 " transform="matrix(0.994587, 0, 0, -0.994587, -1.733253, 138.175977)"/>
<path fill-rule="nonzero" fill="rgb(89.019775%, 91.764832%, 94.900513%)" fill-opacity="1" d="M 391.515625 27.84375 L 339.070312 27.84375 C 336.578125 27.84375 334.558594 29.863281 334.558594 32.355469 L 334.558594 39.085938 C 334.558594 41.578125 336.578125 43.597656 339.070312 43.597656 L 391.515625 43.597656 C 394.007812 43.597656 396.027344 41.578125 396.027344 39.085938 L 396.027344 32.355469 C 396.027344 29.863281 394.007812 27.84375 391.515625 27.84375 Z M 391.515625 27.84375 "/>
<g clip-path="url(#clip-1)">
<path fill="none" stroke-width="0.79701" stroke-linecap="butt" stroke-linejoin="miter" stroke="rgb(55.291748%, 27.450562%, 21.961975%)" stroke-opacity="1" stroke-miterlimit="10" d="M 395.389137 110.93271 L 342.658391 110.93271 C 340.15264 110.93271 338.122117 108.902188 338.122117 106.396436 L 338.122117 99.629337 C 338.122117 97.123586 340.15264 95.093063 342.658391 95.093063 L 395.389137 95.093063 C 397.894888 95.093063 399.925411 97.123586 399.925411 99.629337 L 399.925411 106.396436 C 399.925411 108.902188 397.894888 110.93271 395.389137 110.93271 Z M 395.389137 110.93271 " transform="matrix(0.994587, 0, 0, -0.994587, -1.733253, 138.175977)"/>
</g>
<g fill="rgb(55.291748%, 27.450562%, 21.961975%)" fill-opacity="1">
<use xlink:href="#glyph-3-0" x="341.038211" y="38.007146"/>
<use xlink:href="#glyph-3-1" x="343.405393" y="38.007146"/>
<use xlink:href="#glyph-3-2" x="348.525204" y="38.007146"/>
<use xlink:href="#glyph-3-3" x="352.103225" y="38.007146"/>
<use xlink:href="#glyph-3-4" x="356.50763" y="38.007146"/>
<use xlink:href="#glyph-3-4" x="359.893423" y="38.007146"/>
<use xlink:href="#glyph-3-5" x="363.279217" y="38.007146"/>
<use xlink:href="#glyph-3-6" x="368.399027" y="38.007146"/>
<use xlink:href="#glyph-3-2" x="373.518838" y="38.007146"/>
<use xlink:href="#glyph-3-0" x="377.09686" y="38.007146"/>
<use xlink:href="#glyph-3-7" x="379.464042" y="38.007146"/>
<use xlink:href="#glyph-3-1" x="384.418378" y="38.007146"/>
</g>
<g fill="rgb(36.863708%, 44.314575%, 52.157593%)" fill-opacity="1">
<use xlink:href="#glyph-0-1" x="12.142229" y="84.913856"/>
<use xlink:href="#glyph-0-6" x="15.273291" y="84.913856"/>
<use xlink:href="#glyph-0-2" x="19.346972" y="84.913856"/>
<use xlink:href="#glyph-0-3" x="22.86061" y="84.913856"/>
<use xlink:href="#glyph-0-7" x="26.17003" y="84.913856"/>
</g>
<g fill="rgb(36.863708%, 44.314575%, 52.157593%)" fill-opacity="1">
<use xlink:href="#glyph-0-1" x="30.315053" y="84.913856"/>
<use xlink:href="#glyph-0-3" x="33.446116" y="84.913856"/>
</g>
<path fill="none" stroke-width="0.99628" stroke-linecap="butt" stroke-linejoin="miter" stroke="rgb(60.392761%, 66.665649%, 73.33374%)" stroke-opacity="1" stroke-miterlimit="10" d="M 13.038205 38.077404 L 318.162512 38.077404 " transform="matrix(0.994587, 0, 0, -0.994587, -1.733253, 138.175977)"/>
<path fill-rule="nonzero" fill="rgb(84.234619%, 85.804749%, 84.313965%)" fill-opacity="1" stroke-width="0.89664" stroke-linecap="butt" stroke-linejoin="miter" stroke="rgb(41.569519%, 44.706726%, 30.979919%)" stroke-opacity="1" stroke-miterlimit="10" d="M 28.685404 29.990661 L 28.685404 46.160219 L 47.462828 46.160219 L 47.462828 29.990661 Z M 28.685404 29.990661 " transform="matrix(0.994587, 0, 0, -0.994587, -1.733253, 138.175977)"/>
<path fill="none" stroke-width="1.49442" stroke-linecap="round" stroke-linejoin="round" stroke="rgb(41.569519%, 44.706726%, 30.979919%)" stroke-opacity="1" stroke-miterlimit="10" d="M 33.901137 38.336619 L 37.031362 34.947179 L 43.291813 43.029994 " transform="matrix(0.994587, 0, 0, -0.994587, -1.733253, 138.175977)"/>
<path fill-rule="nonzero" fill="rgb(84.234619%, 85.804749%, 84.313965%)" fill-opacity="1" stroke-width="0.89664" stroke-linecap="butt" stroke-linejoin="miter" stroke="rgb(41.569519%, 44.706726%, 30.979919%)" stroke-opacity="1" stroke-miterlimit="10" d="M 55.286428 29.990661 L 55.286428 46.160219 L 74.063852 46.160219 L 74.063852 29.990661 Z M 55.286428 29.990661 " transform="matrix(0.994587, 0, 0, -0.994587, -1.733253, 138.175977)"/>
<path fill="none" stroke-width="1.49442" stroke-linecap="round" stroke-linejoin="round" stroke="rgb(41.569519%, 44.706726%, 30.979919%)" stroke-opacity="1" stroke-miterlimit="10" d="M 60.502161 38.336619 L 63.632386 34.947179 L 69.892836 43.029994 " transform="matrix(0.994587, 0, 0, -0.994587, -1.733253, 138.175977)"/>
<path fill-rule="nonzero" fill="rgb(84.234619%, 85.804749%, 84.313965%)" fill-opacity="1" stroke-width="0.89664" stroke-linecap="butt" stroke-linejoin="miter" stroke="rgb(41.569519%, 44.706726%, 30.979919%)" stroke-opacity="1" stroke-miterlimit="10" d="M 81.887451 29.990661 L 81.887451 46.160219 L 100.664876 46.160219 L 100.664876 29.990661 Z M 81.887451 29.990661 " transform="matrix(0.994587, 0, 0, -0.994587, -1.733253, 138.175977)"/>
<path fill="none" stroke-width="1.49442" stroke-linecap="round" stroke-linejoin="round" stroke="rgb(41.569519%, 44.706726%, 30.979919%)" stroke-opacity="1" stroke-miterlimit="10" d="M 87.103184 38.336619 L 90.23341 34.947179 L 96.49386 43.029994 " transform="matrix(0.994587, 0, 0, -0.994587, -1.733253, 138.175977)"/>
<path fill-rule="nonzero" fill="rgb(84.234619%, 85.804749%, 84.313965%)" fill-opacity="1" stroke-width="0.89664" stroke-linecap="butt" stroke-linejoin="miter" stroke="rgb(41.569519%, 44.706726%, 30.979919%)" stroke-opacity="1" stroke-miterlimit="10" d="M 108.488475 29.990661 L 108.488475 46.160219 L 127.265899 46.160219 L 127.265899 29.990661 Z M 108.488475 29.990661 " transform="matrix(0.994587, 0, 0, -0.994587, -1.733253, 138.175977)"/>
<path fill="none" stroke-width="1.49442" stroke-linecap="round" stroke-linejoin="round" stroke="rgb(41.569519%, 44.706726%, 30.979919%)" stroke-opacity="1" stroke-miterlimit="10" d="M 113.704208 38.336619 L 116.834433 34.947179 L 123.094884 43.029994 " transform="matrix(0.994587, 0, 0, -0.994587, -1.733253, 138.175977)"/>
<path fill-rule="nonzero" fill="rgb(84.234619%, 85.804749%, 84.313965%)" fill-opacity="1" stroke-width="0.89664" stroke-linecap="butt" stroke-linejoin="miter" stroke="rgb(41.569519%, 44.706726%, 30.979919%)" stroke-opacity="1" stroke-miterlimit="10" d="M 135.089499 29.990661 L 135.089499 46.160219 L 153.866923 46.160219 L 153.866923 29.990661 Z M 135.089499 29.990661 " transform="matrix(0.994587, 0, 0, -0.994587, -1.733253, 138.175977)"/>
<path fill="none" stroke-width="1.49442" stroke-linecap="round" stroke-linejoin="round" stroke="rgb(41.569519%, 44.706726%, 30.979919%)" stroke-opacity="1" stroke-miterlimit="10" d="M 140.305232 38.336619 L 143.435457 34.947179 L 149.695908 43.029994 " transform="matrix(0.994587, 0, 0, -0.994587, -1.733253, 138.175977)"/>
<path fill-rule="nonzero" fill="rgb(84.234619%, 85.804749%, 84.313965%)" fill-opacity="1" stroke-width="0.89664" stroke-linecap="butt" stroke-linejoin="miter" stroke="rgb(41.569519%, 44.706726%, 30.979919%)" stroke-opacity="1" stroke-miterlimit="10" d="M 161.690523 29.990661 L 161.690523 46.160219 L 180.467947 46.160219 L 180.467947 29.990661 Z M 161.690523 29.990661 " transform="matrix(0.994587, 0, 0, -0.994587, -1.733253, 138.175977)"/>
<path fill="none" stroke-width="1.49442" stroke-linecap="round" stroke-linejoin="round" stroke="rgb(41.569519%, 44.706726%, 30.979919%)" stroke-opacity="1" stroke-miterlimit="10" d="M 166.906256 38.336619 L 170.036481 34.947179 L 176.293004 43.029994 " transform="matrix(0.994587, 0, 0, -0.994587, -1.733253, 138.175977)"/>
<path fill-rule="nonzero" fill="rgb(84.234619%, 85.804749%, 84.313965%)" fill-opacity="1" stroke-width="0.89664" stroke-linecap="butt" stroke-linejoin="miter" stroke="rgb(41.569519%, 44.706726%, 30.979919%)" stroke-opacity="1" stroke-miterlimit="10" d="M 188.291546 29.990661 L 188.291546 46.160219 L 207.068971 46.160219 L 207.068971 29.990661 Z M 188.291546 29.990661 " transform="matrix(0.994587, 0, 0, -0.994587, -1.733253, 138.175977)"/>
<path fill="none" stroke-width="1.49442" stroke-linecap="round" stroke-linejoin="round" stroke="rgb(41.569519%, 44.706726%, 30.979919%)" stroke-opacity="1" stroke-miterlimit="10" d="M 193.507279 38.336619 L 196.637505 34.947179 L 202.894028 43.029994 " transform="matrix(0.994587, 0, 0, -0.994587, -1.733253, 138.175977)"/>
<path fill-rule="nonzero" fill="rgb(84.234619%, 85.804749%, 84.313965%)" fill-opacity="1" stroke-width="0.89664" stroke-linecap="butt" stroke-linejoin="miter" stroke="rgb(41.569519%, 44.706726%, 30.979919%)" stroke-opacity="1" stroke-miterlimit="10" d="M 214.89257 29.990661 L 214.89257 46.160219 L 233.669994 46.160219 L 233.669994 29.990661 Z M 214.89257 29.990661 " transform="matrix(0.994587, 0, 0, -0.994587, -1.733253, 138.175977)"/>
<path fill="none" stroke-width="1.49442" stroke-linecap="round" stroke-linejoin="round" stroke="rgb(41.569519%, 44.706726%, 30.979919%)" stroke-opacity="1" stroke-miterlimit="10" d="M 220.108303 38.336619 L 223.238528 34.947179 L 229.495051 43.029994 " transform="matrix(0.994587, 0, 0, -0.994587, -1.733253, 138.175977)"/>
<path fill-rule="nonzero" fill="rgb(89.019775%, 91.764832%, 94.900513%)" fill-opacity="1" stroke-width="0.89664" stroke-linecap="butt" stroke-linejoin="miter" stroke="rgb(0%, 38.430786%, 63.920593%)" stroke-opacity="1" stroke-miterlimit="10" d="M 241.493594 29.990661 L 241.493594 46.160219 L 260.271018 46.160219 L 260.271018 29.990661 Z M 241.493594 29.990661 " transform="matrix(0.994587, 0, 0, -0.994587, -1.733253, 138.175977)"/>
<g fill="rgb(0%, 15.684509%, 33.332825%)" fill-opacity="1">
<use xlink:href="#glyph-1-8" x="245.812478" y="102.745806"/>
</g>
<path fill-rule="nonzero" fill="rgb(89.019775%, 91.764832%, 94.900513%)" fill-opacity="1" stroke-width="0.89664" stroke-linecap="butt" stroke-linejoin="miter" stroke="rgb(0%, 38.430786%, 63.920593%)" stroke-opacity="1" stroke-miterlimit="10" d="M 268.094618 29.990661 L 268.094618 46.160219 L 286.872042 46.160219 L 286.872042 29.990661 Z M 268.094618 29.990661 " transform="matrix(0.994587, 0, 0, -0.994587, -1.733253, 138.175977)"/>
<g fill="rgb(0%, 15.684509%, 33.332825%)" fill-opacity="1">
<use xlink:href="#glyph-1-0" x="270.294236" y="102.745806"/>
<use xlink:href="#glyph-1-9" x="274.241877" y="102.745806"/>
</g>
<path fill-rule="nonzero" fill="rgb(89.019775%, 91.764832%, 94.900513%)" fill-opacity="1" stroke-width="0.89664" stroke-linecap="butt" stroke-linejoin="miter" stroke="rgb(0%, 38.430786%, 63.920593%)" stroke-opacity="1" stroke-miterlimit="10" d="M 294.695641 29.990661 L 294.695641 46.160219 L 313.473066 46.160219 L 313.473066 29.990661 Z M 294.695641 29.990661 " transform="matrix(0.994587, 0, 0, -0.994587, -1.733253, 138.175977)"/>
<g fill="rgb(0%, 15.684509%, 33.332825%)" fill-opacity="1">
<use xlink:href="#glyph-1-0" x="296.751243" y="102.745806"/>
<use xlink:href="#glyph-1-0" x="300.698885" y="102.745806"/>
</g>
<path fill="none" stroke-width="1.0959" stroke-linecap="butt" stroke-linejoin="miter" stroke="rgb(41.569519%, 44.706726%, 30.979919%)" stroke-opacity="1" stroke-miterlimit="10" d="M 320.770379 38.077404 L 329.819361 38.077404 " transform="matrix(0.994587, 0, 0, -0.994587, -1.733253, 138.175977)"/>
<path fill-rule="nonzero" fill="rgb(41.569519%, 44.706726%, 30.979919%)" fill-opacity="1" stroke-width="1.0959" stroke-linecap="butt" stroke-linejoin="miter" stroke="rgb(41.569519%, 44.706726%, 30.979919%)" stroke-opacity="1" stroke-miterlimit="10" d="M 6.974273 0.00187384 L 1.746758 2.020614 L 3.482717 0.00187384 L 1.746758 -2.020794 Z M 6.974273 0.00187384 " transform="matrix(0.994587, 0, 0, -0.994587, 323.110354, 100.306551)"/>
<path fill-rule="nonzero" fill="rgb(89.019775%, 91.764832%, 94.900513%)" fill-opacity="1" stroke-width="0.79701" stroke-linecap="butt" stroke-linejoin="miter" stroke="rgb(41.569519%, 44.706726%, 30.979919%)" stroke-opacity="1" stroke-miterlimit="10" d="M 381.882431 45.025169 L 342.658391 45.025169 C 340.15264 45.025169 338.122117 42.994646 338.122117 40.488895 L 338.122117 35.661985 C 338.122117 33.156234 340.15264 31.125712 342.658391 31.125712 L 381.882431 31.125712 C 384.388182 31.125712 386.418705 33.156234 386.418705 35.661985 L 386.418705 40.488895 C 386.418705 42.994646 384.388182 45.025169 381.882431 45.025169 Z M 381.882431 45.025169 " transform="matrix(0.994587, 0, 0, -0.994587, -1.733253, 138.175977)"/>
<g fill="rgb(41.569519%, 44.706726%, 30.979919%)" fill-opacity="1">
<use xlink:href="#glyph-3-8" x="341.038211" y="103.555399"/>
<use xlink:href="#glyph-3-7" x="345.442616" y="103.555399"/>
<use xlink:href="#glyph-3-1" x="350.396952" y="103.555399"/>
<use xlink:href="#glyph-3-2" x="355.516763" y="103.555399"/>
<use xlink:href="#glyph-3-0" x="359.094784" y="103.555399"/>
<use xlink:href="#glyph-3-1" x="361.461966" y="103.555399"/>
<use xlink:href="#glyph-3-5" x="366.581777" y="103.555399"/>
<use xlink:href="#glyph-3-3" x="371.701588" y="103.555399"/>
</g>
<g fill="rgb(36.863708%, 44.314575%, 52.157593%)" fill-opacity="1">
<use xlink:href="#glyph-0-8" x="74.904644" y="123.546597"/>
<use xlink:href="#glyph-0-9" x="78.978325" y="123.546597"/>
<use xlink:href="#glyph-0-10" x="83.561216" y="123.546597"/>
<use xlink:href="#glyph-0-10" x="90.840868" y="123.546597"/>
<use xlink:href="#glyph-0-11" x="98.120521" y="123.546597"/>
<use xlink:href="#glyph-0-3" x="100.308965" y="123.546597"/>
<use xlink:href="#glyph-0-3" x="103.618385" y="123.546597"/>
<use xlink:href="#glyph-0-6" x="106.927804" y="123.546597"/>
<use xlink:href="#glyph-0-12" x="111.001485" y="123.546597"/>
</g>
<g fill="rgb(36.863708%, 44.314575%, 52.157593%)" fill-opacity="1">
<use xlink:href="#glyph-0-13" x="118.793915" y="123.546597"/>
</g>
<g fill="rgb(36.863708%, 44.314575%, 52.157593%)" fill-opacity="1">
<use xlink:href="#glyph-0-6" x="123.01474" y="123.546597"/>
<use xlink:href="#glyph-0-14" x="127.08842" y="123.546597"/>
<use xlink:href="#glyph-0-2" x="131.313704" y="123.546597"/>
</g>
<g fill="rgb(36.863708%, 44.314575%, 52.157593%)" fill-opacity="1">
<use xlink:href="#glyph-0-7" x="137.886171" y="123.546597"/>
</g>
<g fill="rgb(36.863708%, 44.314575%, 52.157593%)" fill-opacity="1">
<use xlink:href="#glyph-0-1" x="142.031194" y="123.546597"/>
<use xlink:href="#glyph-0-6" x="145.162256" y="123.546597"/>
</g>
<g fill="rgb(36.863708%, 44.314575%, 52.157593%)" fill-opacity="1">
<use xlink:href="#glyph-0-2" x="152.294764" y="123.546597"/>
<use xlink:href="#glyph-0-13" x="155.808403" y="123.546597"/>
<use xlink:href="#glyph-0-11" x="160.287846" y="123.546597"/>
<use xlink:href="#glyph-0-15" x="162.47629" y="123.546597"/>
<use xlink:href="#glyph-0-15" x="167.209893" y="123.546597"/>
</g>
<g fill="rgb(36.863708%, 44.314575%, 52.157593%)" fill-opacity="1">
<use xlink:href="#glyph-0-6" x="172.193195" y="123.546597"/>
<use xlink:href="#glyph-0-12" x="176.266876" y="123.546597"/>
</g>
<g fill="rgb(69.802856%, 49.804688%, 0%)" fill-opacity="1">
<use xlink:href="#glyph-0-15" x="209.487178" y="123.546597"/>
</g>
<g fill="rgb(69.802856%, 49.804688%, 0%)" fill-opacity="1">
<use xlink:href="#glyph-0-9" x="214.479399" y="123.546597"/>
<use xlink:href="#glyph-0-2" x="219.06229" y="123.546597"/>
<use xlink:href="#glyph-0-3" x="222.575928" y="123.546597"/>
<use xlink:href="#glyph-0-16" x="225.885348" y="123.546597"/>
<use xlink:href="#glyph-0-8" x="228.940608" y="123.546597"/>
<use xlink:href="#glyph-0-17" x="233.014289" y="123.546597"/>
<use xlink:href="#glyph-0-6" x="237.747891" y="123.546597"/>
<use xlink:href="#glyph-0-8" x="241.821572" y="123.546597"/>
<use xlink:href="#glyph-0-13" x="245.895252" y="123.546597"/>
<use xlink:href="#glyph-0-15" x="250.374695" y="123.546597"/>
</g>
<g fill="rgb(69.802856%, 49.804688%, 0%)" fill-opacity="1">
<use xlink:href="#glyph-0-9" x="255.357998" y="123.546597"/>
<use xlink:href="#glyph-0-11" x="259.940889" y="123.546597"/>
<use xlink:href="#glyph-0-5" x="262.129333" y="123.546597"/>
<use xlink:href="#glyph-0-3" x="266.862935" y="123.546597"/>
</g>
<g fill="rgb(69.802856%, 49.804688%, 0%)" fill-opacity="1">
<use xlink:href="#glyph-0-18" x="273.231182" y="123.546597"/>
</g>
<g fill="rgb(69.802856%, 49.804688%, 0%)" fill-opacity="1">
<use xlink:href="#glyph-0-9" x="279.234688" y="123.546597"/>
</g>
<g fill="rgb(69.802856%, 49.804688%, 0%)" fill-opacity="1">
<use xlink:href="#glyph-0-1" x="283.567879" y="123.546597"/>
<use xlink:href="#glyph-0-13" x="286.698941" y="123.546597"/>
</g>
<g fill="rgb(69.802856%, 49.804688%, 0%)" fill-opacity="1">
<use xlink:href="#glyph-0-10" x="294.228294" y="123.546597"/>
<use xlink:href="#glyph-0-7" x="301.507947" y="123.546597"/>
</g>
<g fill="rgb(69.802856%, 49.804688%, 0%)" fill-opacity="1">
<use xlink:href="#glyph-0-14" x="305.661888" y="123.546597"/>
</g>
<g fill="rgb(69.802856%, 49.804688%, 0%)" fill-opacity="1">
<use xlink:href="#glyph-0-1" x="312.937082" y="123.546597"/>
<use xlink:href="#glyph-0-6" x="316.068144" y="123.546597"/>
<use xlink:href="#glyph-0-15" x="320.141825" y="123.546597"/>
</g>
<g fill="rgb(69.802856%, 49.804688%, 0%)" fill-opacity="1">
<use xlink:href="#glyph-0-6" x="325.134045" y="123.546597"/>
<use xlink:href="#glyph-0-7" x="329.207726" y="123.546597"/>
<use xlink:href="#glyph-0-3" x="333.611367" y="123.546597"/>
</g>
</svg>
