<?xml version="1.0" encoding="UTF-8"?>
<svg width="120.1" height="157.96" viewBox="0 0 120.1 157.96" xmlns="http://www.w3.org/2000/svg">
 <defs>
  <clipPath id="g">
   <path d="m0 1h119v118h-119z"/>
  </clipPath>
  <clipPath id="f">
   <path d="m0 18.367v83.062c0 9.832 7.9688 17.801 17.801 17.801h83.062c9.832 0 17.801-7.9688 17.801-17.801v-83.062c0-9.832-7.9688-17.801-17.801-17.801h-83.062c-9.832 0-17.801 7.9688-17.801 17.801z"/>
  </clipPath>
  <linearGradient id="a" x2="0" y1="25.003" y2="74.997" gradientTransform="matrix(2.3736 0 0 -2.3736 -59.347 178.58)" gradientUnits="userSpaceOnUse">
   <stop stop-color="#0a1a2d" offset="0"/>
   <stop stop-color="#0a1b2e" offset=".015625"/>
   <stop stop-color="#0a1b2e" offset=".03125"/>
   <stop stop-color="#0a1c2f" offset=".046875"/>
   <stop stop-color="#0a1c30" offset=".0625"/>
   <stop stop-color="#0a1c30" offset=".078125"/>
   <stop stop-color="#0a1d31" offset=".09375"/>
   <stop stop-color="#0a1d31" offset=".10938"/>
   <stop stop-color="#0a1e32" offset=".125"/>
   <stop stop-color="#0b1e32" offset=".14062"/>
   <stop stop-color="#0b1e33" offset=".15625"/>
   <stop stop-color="#0b1f34" offset=".17188"/>
   <stop stop-color="#0b1f34" offset=".1875"/>
   <stop stop-color="#0b2035" offset=".20312"/>
   <stop stop-color="#0b2035" offset=".21875"/>
   <stop stop-color="#0b2036" offset=".23438"/>
   <stop stop-color="#0b2136" offset=".25"/>
   <stop stop-color="#0c2137" offset=".26562"/>
   <stop stop-color="#0c2238" offset=".28125"/>
   <stop stop-color="#0c2238" offset=".29688"/>
   <stop stop-color="#0c2239" offset=".3125"/>
   <stop stop-color="#0c2339" offset=".32812"/>
   <stop stop-color="#0c233a" offset=".34375"/>
   <stop stop-color="#0c243b" offset=".35938"/>
   <stop stop-color="#0c243b" offset=".375"/>
   <stop stop-color="#0d243c" offset=".39062"/>
   <stop stop-color="#0d253c" offset=".40625"/>
   <stop stop-color="#0d253d" offset=".42188"/>
   <stop stop-color="#0d263d" offset=".4375"/>
   <stop stop-color="#0d263e" offset=".45312"/>
   <stop stop-color="#0d263f" offset=".46875"/>
   <stop stop-color="#0d273f" offset=".48438"/>
   <stop stop-color="#0d2740" offset=".5"/>
   <stop stop-color="#0e2840" offset=".51562"/>
   <stop stop-color="#0e2841" offset=".53125"/>
   <stop stop-color="#0e2941" offset=".54688"/>
   <stop stop-color="#0e2942" offset=".5625"/>
   <stop stop-color="#0e2943" offset=".57812"/>
   <stop stop-color="#0e2a43" offset=".59375"/>
   <stop stop-color="#0e2a44" offset=".60938"/>
   <stop stop-color="#0e2b44" offset=".625"/>
   <stop stop-color="#0f2b45" offset=".64062"/>
   <stop stop-color="#0f2b45" offset=".65625"/>
   <stop stop-color="#0f2c46" offset=".67188"/>
   <stop stop-color="#0f2c47" offset=".6875"/>
   <stop stop-color="#0f2d47" offset=".70312"/>
   <stop stop-color="#0f2d48" offset=".71875"/>
   <stop stop-color="#0f2d48" offset=".73438"/>
   <stop stop-color="#0f2e49" offset=".75"/>
   <stop stop-color="#102e4a" offset=".76562"/>
   <stop stop-color="#102f4a" offset=".78125"/>
   <stop stop-color="#102f4b" offset=".79688"/>
   <stop stop-color="#102f4b" offset=".8125"/>
   <stop stop-color="#10304c" offset=".82812"/>
   <stop stop-color="#10304c" offset=".84375"/>
   <stop stop-color="#10314d" offset=".85938"/>
   <stop stop-color="#10314e" offset=".875"/>
   <stop stop-color="#11314e" offset=".89062"/>
   <stop stop-color="#11324f" offset=".90625"/>
   <stop stop-color="#11324f" offset=".92188"/>
   <stop stop-color="#113350" offset=".9375"/>
   <stop stop-color="#113350" offset=".95312"/>
   <stop stop-color="#113351" offset=".96875"/>
   <stop stop-color="#113452" offset=".98438"/>
   <stop stop-color="#113452" offset="1"/>
  </linearGradient>
  <clipPath id="e">
   <path d="m0 0.56641h119.21v134.43h-119.21z"/>
  </clipPath>
  <clipPath id="d">
   <path d="m13 19h82v82h-82z"/>
  </clipPath>
  <clipPath id="c">
   <path d="m94.93 59.898c0-22.391-18.148-40.543-40.543-40.543-22.391 0-40.543 18.152-40.543 40.543 0 22.391 18.152 40.543 40.543 40.543 22.395 0 40.543-18.152 40.543-40.543z"/>
  </clipPath>
  <clipPath id="b">
   <path d="m34 95h85.207v62.352h-85.207z"/>
  </clipPath>
 </defs>
 <g clip-path="url(#g)">
  <g clip-path="url(#f)">
   <path d="m0 119.23v-118.66h118.66v118.66z" fill="url(#a)"/>
  </g>
 </g>
 <path d="m104.82 40.121c0-5.4609-4.4258-9.8867-9.8906-9.8867-5.4609 0-9.8867 4.4258-9.8867 9.8867 0 5.4609 4.4258 9.8906 9.8867 9.8906 5.4648 0 9.8906-4.4297 9.8906-9.8906z" fill="#fff" fill-opacity=".1"/>
 <path d="m101.85 40.121c0-3.8242-3.0977-6.9219-6.9219-6.9219-3.8203 0-6.9219 3.0977-6.9219 6.9219 0 3.8242 3.1016 6.9219 6.9219 6.9219 3.8242 0 6.9219-3.0977 6.9219-6.9219z" fill="#fff" fill-opacity=".08"/>
 <path d="m99.383 40.121c0-2.457-1.9922-4.4492-4.4531-4.4492-2.457 0-4.4492 1.9922-4.4492 4.4492 0 2.457 1.9922 4.4492 4.4492 4.4492 2.4609 0 4.4531-1.9922 4.4531-4.4492z" fill="#fff" fill-opacity=".07"/>
 <g clip-path="url(#e)">
  <path transform="matrix(.99256 0 0 -.99256 0 .5666)" d="m96.641-59.776c0 23.109-18.737 41.842-41.846 41.842-23.109 0-41.842-18.733-41.842-41.842s18.733-41.842 41.842-41.842c23.109 0 41.846 18.733 41.846 41.842z" fill="none" stroke="#33b7df" stroke-miterlimit="10" stroke-width="2.391"/>
 </g>
 <g clip-path="url(#d)">
  <g clip-path="url(#c)">
   <path transform="matrix(.99256 0 0 -.99256 0 .5666)" d="m12.952-43.838c26.899-13.947 56.786-13.947 83.689 0m-83.689-15.939c26.899-13.947 56.786-13.947 83.689 0m-83.689-15.939c26.899-13.951 56.786-13.951 83.689 0m-63.763 53.799c9.9608-32.877 9.9608-42.842 0-75.719m21.917 79.702c7.9694-36.86 7.9694-46.825 0-83.685m21.921 79.702c5.9741-32.877 5.9741-42.842 0-75.719" fill="none" stroke="#33b7df" stroke-miterlimit="10" stroke-opacity=".55" stroke-width=".99628"/>
  </g>
 </g>
 <g clip-path="url(#b)">
  <path transform="matrix(.99256 0 0 -.99256 0 .5666)" d="m57.785-111.58c16.935-11.956 36.86-17.934 61.768-19.926m-69.741 9.9647c17.934-13.947 41.846-21.921 67.75-25.904m-55.794 15.939c13.947-13.947 31.882-21.917 49.816-25.904" fill="none" stroke="#33b7df" stroke-miterlimit="10" stroke-opacity=".35" stroke-width="1.0959"/>
 </g>
 <path d="m11.867 40.121c0-1.0938-0.88672-1.9766-1.9805-1.9766-1.0898 0-1.9766 0.88281-1.9766 1.9766s0.88672 1.9766 1.9766 1.9766c1.0938 0 1.9805-0.88281 1.9805-1.9766z" fill="#7cf0e5"/>
 <path d="m15.426 51.988c0-0.875-0.70703-1.582-1.582-1.582s-1.582 0.70703-1.582 1.582 0.70703 1.582 1.582 1.582 1.582-0.70703 1.582-1.582z" fill="#7cf0e5" fill-opacity=".8"/>
 <path d="m10.285 61.875c0-0.76172-0.62109-1.3828-1.3867-1.3828-0.76172 0-1.3828 0.62109-1.3828 1.3828 0 0.76562 0.62109 1.3867 1.3828 1.3867 0.76562 0 1.3867-0.62109 1.3867-1.3867z" fill="#7cf0e5" fill-opacity=".65"/>
 <path d="m17.898 68.797c0-1.1445-0.92969-2.0742-2.0781-2.0742-1.1445 0-2.0742 0.92969-2.0742 2.0742 0 1.1484 0.92969 2.0781 2.0742 2.0781 1.1484 0 2.0781-0.92969 2.0781-2.0781z" fill="#7cf0e5"/>
 <path d="m13.352 78.688c0-0.82031-0.66406-1.4844-1.4844-1.4844-0.82031 0-1.4844 0.66406-1.4844 1.4844s0.66406 1.4844 1.4844 1.4844c0.82031 0 1.4844-0.66406 1.4844-1.4844z" fill="#7cf0e5" fill-opacity=".7"/>
 <path d="m19.977 46.055c0-0.65625-0.53125-1.1875-1.1875-1.1875s-1.1875 0.53125-1.1875 1.1875 0.53125 1.1875 1.1875 1.1875 1.1875-0.53125 1.1875-1.1875z" fill="#7cf0e5" fill-opacity=".6"/>
 <path d="m22.941 59.898c0-1.2031-0.97266-2.1758-2.1758-2.1758-1.1992 0-2.1758 0.97266-2.1758 2.1758 0 1.2031 0.97656 2.1758 2.1758 2.1758 1.2031 0 2.1758-0.97266 2.1758-2.1758z" fill="#7cf0e5" fill-opacity=".85"/>
 <path d="m8.8984 54.953c0-0.54688-0.44141-0.98828-0.98828-0.98828s-0.98828 0.44141-0.98828 0.98828 0.44141 0.98828 0.98828 0.98828 0.98828-0.44141 0.98828-0.98828z" fill="#7cf0e5" fill-opacity=".5"/>
 <path transform="matrix(.99256 0 0 -.99256 0 .5666)" d="m99.23-39.851c0 1.9796-1.6057 3.5853-3.5892 3.5853-1.9796 0-3.5853-1.6057-3.5853-3.5853s1.6057-3.5853 3.5853-3.5853c1.9835 0 3.5892 1.6057 3.5892 3.5853z" fill="none" stroke="#2ad4d4" stroke-miterlimit="10" stroke-width="1.3948"/>
 <path d="m96.613 40.121c0-0.92969-0.75391-1.6797-1.6836-1.6797-0.92578 0-1.6797 0.75-1.6797 1.6797 0 0.92969 0.75391 1.6797 1.6797 1.6797 0.92969 0 1.6836-0.75 1.6836-1.6797z" fill="#7cf0e5"/>
</svg>
