<?xml version="1.0" encoding="UTF-8"?>
<svg width="896.64" height="239.1" viewBox="0 0 896.64 239.1" xmlns="http://www.w3.org/2000/svg" xmlns:xlink="http://www.w3.org/1999/xlink">
 <defs>
  <g id="ac">
   <path d="m51.5-4.9531v-61.719c0-3.3125-0.71875-4.9688-4.9531-4.9688h-3.8125c-3.9219 0-4.9531 1.3438-4.9531 4.9688v23.422c-4.6406-4.4375-9.8125-5.1562-13.016-5.1562-20.953 0-20.953 19.812-20.953 24.875 0 4.75 0 24.672 20.438 24.672 4.3438 0 8.7812-1.25 13.219-5.9844 0 3.8125 1.4375 4.8438 4.9531 4.8438h4.125c3.9219 0 4.9531-1.3438 4.9531-4.9531zm-14.031-7.9531c0 1.7656 0 2.6875-3 4.75-2.5781 1.6562-4.9531 1.8594-6.1875 1.8594-10.422 0-10.422-9.5-10.422-17.234 0-7.75 0-17.453 11.562-17.453 2.9844 0 5.7812 1.0312 8.0469 3.2031z"/>
  </g>
  <g id="i">
   <path d="m48.922-4.9531v-27.656c0-16.312-15.688-16.422-20.844-16.422-4.8594 0-10.016 0.42188-16.938 3.3125-2.1562 0.92188-2.6719 1.2344-2.6719 2.3594 0 0.73438 0.60938 6.7188 0.71875 7.5469 0.10938 0.60938 0.625 1.125 1.3438 1.125 0.51562 0 0.82812-0.29688 1.125-0.60938 4.4531-4.6562 9.6094-6.9219 16-6.9219 5.5781 0 7.2344 3.4062 7.2344 9.5v3.6094c-3.6094 0-30.656 0.20312-30.656 15.375 0 7.2344 5.7812 14.875 14.859 14.875 3.5156 0 11.25-1.0312 16.109-8.1562v2.0625c0 3.2969 0.71875 4.9531 4.9531 4.9531h3.8125c3.9219 0 4.9531-1.3438 4.9531-4.9531zm-14.031-10.938c0 9.5938-9.8125 9.5938-10.125 9.5938-4.3281 0-7.1094-3.7188-7.1094-7.6406 0-10.109 14.344-10.828 17.234-10.938z"/>
  </g>
  <g id="o">
   <path d="m38.5-4.8438c0-0.3125-0.20312-1.0469-0.82812-3.2031-0.51562-2.0625-0.71875-2.6875-1.6562-2.6875-0.51562 0-0.60938 0.10938-1.2344 0.71875-1.125 0.82812-3.9219 3.0938-8.25 3.0938-2.4844 0-4.0312-1.75-4.0312-8.5625v-24.359h9.1875c1.2344 0 4.9531 0 4.9531-3.7188s-3.7188-3.7188-4.9531-3.7188h-9.1875v-8.5625c0-3.2969-0.71875-4.9531-4.9531-4.9531h-3.2031c-3.7188 0-4.9531 1.1406-4.9531 4.9531v8.5625h-2.375c-1.125 0-4.9531 0-4.9531 3.7188s3.7188 3.7188 4.9531 3.7188h2.0625v26.109c0 10.438 3.7188 14.875 10.844 14.875 0.92188 0 5.4688 0 10.844-1.6562 1.75-0.51562 7.7344-2.375 7.7344-4.3281z"/>
  </g>
  <g id="ab">
   <path d="m36.75-40.766v-4.8594c0-2.0625 0-2.7812-1.8594-2.7812-2.8906 0-10.422 1.0312-15.281 12.172h-0.09375v-6.7031c0-3.2969-0.73438-4.9531-4.9688-4.9531h-3.2969c-3.7188 0-4.9531 1.125-4.9531 4.9531v37.984c0 3.7188 1.1406 4.9531 4.9531 4.9531h3.8125c3.9375 0 4.9688-1.3438 4.9688-4.9531v-18.781c0-9.8125 8.1406-13.844 14.656-14.25 1.8594-0.10938 2.0625-0.10938 2.0625-2.7812z"/>
  </g>
  <g id="aa">
   <path d="m74.219-44.391c-0.3125-2.8906-2.1719-2.8906-5.375-2.8906-4.8438 0-6.0938 0.3125-7.5312 5.6875l-8.3594 29.938-8.7812-30.969c-0.60938-2.2812-1.3438-4.6562-6.0781-4.6562-1.5469 0-3.9219 0-5.375 2.375-0.92188 1.5469-5.4688 19.406-9.0781 31.484l-8.2656-29.203c-1.0312-3.5156-2.1562-4.6562-6.3906-4.6562h-2.0625c-1.9688 0-4.1406 0-4.4375 2.8906l10.938 39.641c1.3438 4.75 4.0156 4.75 6.6094 4.75h2.8906c4.8438 0 5.6719-1.5469 6.8125-5.6719 2.3594-8.5781 6.0781-21.578 6.5-26.938l0.09375-0.10938c0.625 5.875 5.1719 22.188 6.5 27.047 1.1406 3.7031 1.6562 5.6719 6.8125 5.6719h7.0312c4.4375 0 5.4688-1.2344 6.5-4.75z"/>
  </g>
  <g id="z">
   <path d="m20.031-4.9531v-61.719c0-3.3125-0.73438-4.9688-4.9688-4.9688h-3.8125c-3.7188 0-4.9531 1.1406-4.9531 4.9688v61.719c0 3.7188 1.1406 4.9531 4.9531 4.9531h3.8125c3.9375 0 4.9688-1.3438 4.9688-4.9531z"/>
  </g>
  <g id="c">
   <path d="m5.2344-1.8906c0-0.76562-0.45312-1.2344-0.51562-1.3125-0.54688-0.5625-1-0.65625-1.9062-0.82812-0.53125-0.10938-1.2969-0.25-1.2969-1 0-0.92188 1.0469-0.92188 1.2344-0.92188 0.79688 0 1.4219 0.17188 2.0781 0.54688l0.17188-0.96875c-0.95312-0.4375-1.75-0.45312-2.0938-0.45312s-2.4219 0-2.4219 1.9219c0 0.65625 0.35938 1.1094 0.59375 1.3125 0.53125 0.46875 0.90625 0.54688 1.7812 0.71875 0.48438 0.10938 1.3594 0.28125 1.3594 1.0781 0 1.0156-1.1719 1.0156-1.375 1.0156-0.59375 0-1.4531-0.15625-2.2656-0.73438l-0.17188 1.0156c0.0625 0.03125 1.0781 0.65625 2.4531 0.65625 1.9219 0 2.375-1.1719 2.375-2.0469z"/>
  </g>
  <g id="f">
   <path d="m4.8594-0.4375-0.23438-0.85938c-0.51562 0.46875-1.0625 0.51562-1.3281 0.51562-0.65625 0-0.75-0.6875-0.75-1.2188v-3.75h2.0469v-0.85938h-2.0469v-1.8906h-1.0312v1.8906h-1.25v0.85938h1.2188v4c0 0.875 0.20312 1.9062 1.2188 1.9062 1 0 1.6875-0.34375 2.1562-0.59375z"/>
  </g>
  <g id="g">
   <path d="m6.8281-3.2812c0-2-1.4688-3.5469-3.1875-3.5469-1.75 0-3.1875 1.5781-3.1875 3.5469 0 1.9531 1.4844 3.4375 3.1875 3.4375 1.75 0 3.1875-1.5156 3.1875-3.4375zm-1.125-0.14062c0 1.8281-1.0625 2.6406-2.0625 2.6406-1.0625 0-2.0625-0.89062-2.0625-2.6406 0-1.8125 1.1094-2.5156 2.0625-2.5156 1.0156 0 2.0625 0.76562 2.0625 2.5156z"/>
  </g>
  <g id="d">
   <path d="m4.7344-5.7656v-1c-1.3594 0.015625-2.1406 0.8125-2.5469 1.3906v-1.3125h-1.0312v6.6875h1.1094v-3.2656c0-1.5 1.125-2.4844 2.4688-2.5z"/>
  </g>
  <g id="a">
   <path d="m5.9688 0v-4.3594c0-1.4375-1.0312-2.4688-2.4062-2.4688-0.89062 0-1.5625 0.20312-2.2969 0.625l0.09375 0.96875c0.65625-0.46875 1.3281-0.73438 2.2031-0.73438 0.6875 0 1.2812 0.54688 1.2812 1.6406v0.60938c-0.67188 0.03125-1.5625 0.078125-2.4688 0.375-0.98438 0.32812-1.5781 0.89062-1.5781 1.625 0 0.65625 0.39062 1.875 1.6562 1.875 0.82812 0 1.8594-0.25 2.4219-0.70312v0.54688zm-1.125-2c0 0.29688 0 0.65625-0.5 0.95312-0.39062 0.25-0.90625 0.29688-1.125 0.29688-0.8125 0-1.3594-0.42188-1.3594-0.98438 0-1 2.0781-1.2344 2.9844-1.2344z"/>
  </g>
  <g id="m">
   <path d="m7.0781-5.8594-0.17188-0.90625c-0.28125 0-1.2969 0.015625-2.2812 0.5-0.48438-0.42188-1.0781-0.5-1.375-0.5-1.2969 0-2.3438 1.0938-2.3438 2.4062 0 0.53125 0.17188 1.0312 0.5 1.4688-0.34375 0.48438-0.4375 0.92188-0.4375 1.2812 0 0.54688 0.20312 0.92188 0.375 1.125-0.76562 0.48438-0.9375 1.125-0.9375 1.5469 0 1.0781 1.4062 1.9844 3.2344 1.9844 1.8125 0 3.2344-0.875 3.2344-2 0-2.0938-2.4062-2.0938-3.0156-2.0938h-1.2656c-0.21875 0-0.84375 0-0.84375-0.78125 0-0.32812 0.046875-0.42188 0.14062-0.54688 0.25 0.17188 0.75 0.42188 1.3438 0.42188 1.2812 0 2.3281-1.0625 2.3281-2.4062 0-0.54688-0.1875-1.0938-0.48438-1.5 0 0 0.03125 0.015625 0.046875 0.046875 0.3125-0.03125 0.64062-0.0625 1.1875-0.0625 0.046875 0 0.39062 0 0.76562 0.015625zm-2.5312 1.5c0 1.3281-0.84375 1.5938-1.2969 1.5938-0.65625 0-1.3125-0.45312-1.3125-1.5781 0-1.3281 0.82812-1.5938 1.2969-1.5938 0.65625 0 1.3125 0.4375 1.3125 1.5781zm1.2969 5.4219c0 0.6875-1.0312 1.1719-2.2031 1.1719-1.1562 0-2.2031-0.46875-2.2031-1.1875 0-0.046875 0-1.0156 1.1406-1.0156h1.2969c0.32812 0 1.9688 0 1.9688 1.0312z"/>
  </g>
  <g id="b">
   <path d="m6.0625-3.3438c0-0.64062-0.0625-1.5625-0.53125-2.3438-0.625-1.0312-1.6562-1.1406-2.0938-1.1406-1.6094 0-2.9531 1.5469-2.9531 3.4844 0 1.9531 1.4375 3.5 3.1562 3.5 0.6875 0 1.5156-0.20312 2.3281-0.79688 0-0.0625-0.046875-0.54688-0.046875-0.54688s-0.046875-0.34375-0.046875-0.40625c-0.875 0.75-1.75 0.84375-2.2031 0.84375-1.1406 0-2.125-1.0156-2.1562-2.5938zm-0.875-0.8125h-3.5781c0.25-1 0.95312-1.7812 1.8281-1.7812 0.46875 0 1.4844 0.20312 1.75 1.7812z"/>
  </g>
  <g id="l">
   <path d="m4.0312-2.875v-0.85938h-3.875v0.85938z"/>
  </g>
  <g id="k">
   <path d="m5.0469-9.3438v-0.98438c-0.10938-0.03125-0.59375-0.15625-1.1406-0.15625-1.4219 0-2.4375 1.0938-2.4375 2.5312v1.3438h-1.0781v0.85938h1.0781v5.75h1.1094v-5.75h1.5938v-0.85938h-1.625v-1.7812c0-1.0156 0.84375-1.2031 1.3438-1.2031 0.51562 0 0.98438 0.17188 1.1562 0.25z"/>
  </g>
  <g id="j">
   <path d="m6.0625-0.625c0-0.046875-0.046875-0.5-0.0625-0.5625l-0.03125-0.42188c-0.6875 0.54688-1.4375 0.82812-2.2812 0.82812-1.2344 0-2.0312-1.0938-2.0312-2.5469 0-1.2344 0.59375-2.5781 2.0781-2.5781 1 0 1.4219 0.23438 2.0625 0.67188l0.17188-0.96875c-0.85938-0.51562-1.3594-0.625-2.2344-0.625-2.0469 0-3.2188 1.8125-3.2188 3.5 0 1.9062 1.375 3.4844 3.1562 3.4844 0.73438 0 1.5625-0.1875 2.3906-0.78125z"/>
  </g>
  <g id="y">
   <path d="m6.3125 0v-4.4844c0-0.90625-0.1875-2.2812-2-2.2812-1.0156 0-1.7031 0.59375-2.0625 1.0312v-4.5938h-1.1094v10.328h1.1406v-3.7031c0-0.92188 0.34375-2.1562 1.4688-2.1562 1.3906 0 1.4375 0.95312 1.4375 1.4844v4.375z"/>
  </g>
  <g id="h">
   <path d="m2.2656 0v-6.6094h-1.1094v6.6094zm0.09375-8.4531v-1.2812h-1.2812v1.2812z"/>
  </g>
  <g id="x">
   <path d="m6.4531-6.6094h-1.125c-0.79688 2.2031-0.34375 0.92188-1.0781 2.9688-0.26562 0.70312-0.8125 2.2812-0.90625 2.8438h-0.015625c-0.0625-0.53125-0.35938-1.3438-0.59375-1.9844l-1.3594-3.8281h-1.1719l2.4688 6.6094h1.3125z"/>
  </g>
  <g id="w">
   <path d="m9.6719-6.6094h-1.0781l-0.89062 3.0156c-0.21875 0.71875-0.625 2.125-0.6875 2.7656h-0.015625c-0.046875-0.35938-0.28125-1.3594-0.59375-2.4219l-0.98438-3.3594h-1.0312l-0.84375 2.9219c-0.26562 0.92188-0.625 2.2031-0.67188 2.8281h-0.015625c-0.015625-0.28125-0.17188-1.0781-0.46875-2.0781l-1.0469-3.6719h-1.1406l2 6.6094h1.1406c0.57812-1.875 1.4375-4.7031 1.5312-5.75h0.015625c0.015625 0.60938 0.32812 1.6875 0.42188 2.0312l1.0625 3.7188h1.3125z"/>
  </g>
  <g id="e">
   <path d="m2.2656 0v-10.328h-1.1094v10.328z"/>
  </g>
  <g id="n">
   <path d="m6.3125 0v-4.4844c0-0.90625-0.1875-2.2812-2-2.2812-0.82812 0-1.5469 0.375-2.1094 1.0938v-1.0156h-1.0625v6.6875h1.1406v-3.7031c0-0.92188 0.34375-2.1562 1.4688-2.1562 1.3906 0 1.4375 0.95312 1.4375 1.4844v4.375z"/>
  </g>
  <g id="v">
   <path d="m6.3125 0v-6.6094h-1.125v4.25c0 1.1406-0.79688 1.6875-1.7656 1.6875-1.0469 0-1.1406-0.39062-1.1406-1.0469v-4.8906h-1.1406v4.9531c0 1.0781 0.34375 1.8125 1.5625 1.8125 0.42188 0 1.5938-0.078125 2.5156-0.90625v0.75z"/>
  </g>
  <g id="u">
   <path d="m10.375 0v-4.4844c0-1.0312-0.26562-2.2812-2-2.2812-1.2656 0-1.9688 0.89062-2.2031 1.2188-0.26562-0.95312-1.0781-1.2188-1.8594-1.2188-1.2188 0-1.8594 0.79688-2.1094 1.1094v-1.0312h-1.0625v6.6875h1.1406v-3.7031c0-0.98438 0.39062-2.1562 1.4688-2.1562 1.375 0 1.4531 0.9375 1.4531 1.4844v4.375h1.125v-3.7031c0-0.98438 0.39062-2.1562 1.4688-2.1562 1.375 0 1.4531 0.9375 1.4531 1.4844v4.375z"/>
  </g>
  <g id="t">
   <path d="m6.9375-3.3281c0-1.8281-0.98438-3.4375-2.3594-3.4375-0.4375 0-1.3906 0.09375-2.3125 0.84375v-4.4062h-1.1094v10.328h1.1406v-0.67188c0.6875 0.65625 1.4062 0.82812 1.9375 0.82812 1.4062 0 2.7031-1.4531 2.7031-3.4844zm-1.125 0c0 1.9375-1.2188 2.5781-2.1406 2.5781-0.40625 0-0.6875-0.14062-0.96875-0.35938-0.34375-0.3125-0.40625-0.57812-0.40625-0.82812v-3.0781c0.26562-0.42188 0.79688-0.84375 1.5312-0.84375 0.90625 0 1.9844 0.67188 1.9844 2.5312z"/>
  </g>
  <g id="s">
   <path d="m6.9375-3.3281c0-1.7969-0.95312-3.4375-2.3438-3.4375-0.60938 0-1.5625 0.20312-2.3281 0.85938v-0.70312h-1.1094v9.5h1.1406v-3.5625c0.5 0.46875 1.125 0.82812 1.9375 0.82812 1.4219 0 2.7031-1.4531 2.7031-3.4844zm-1.125 0.015625c0 1.5-1.0312 2.5625-2.1406 2.5625-0.40625 0-0.6875-0.14062-0.96875-0.35938-0.35938-0.3125-0.40625-0.59375-0.40625-0.82812v-3.0625c0.34375-0.51562 0.90625-0.84375 1.5156-0.84375 1.0938 0 2 1.125 2 2.5312z"/>
  </g>
  <g id="r">
   <path d="m6.2969 0v-10.328h-1.0938v4.3438c-0.6875-0.5625-1.4688-0.78125-2.1094-0.78125-1.4062 0-2.5781 1.5312-2.5781 3.4531s1.1094 3.4688 2.5156 3.4688c0.5625 0 1.3906-0.1875 2.1406-0.92188v0.76562zm-1.125-1.75c-0.35938 0.64062-0.89062 1-1.5312 1-0.92188 0-1.9844-0.6875-1.9844-2.5469 0-1.9688 1.2656-2.5625 2.125-2.5625 0.57812 0 1.0625 0.29688 1.3906 0.78125z"/>
  </g>
  <g id="q">
   <path d="m6.4531-6.6094h-1.125c-0.6875 1.75-1.8281 4.6719-1.8906 5.75h-0.015625c-0.078125-0.89062-0.85938-2.8438-0.98438-3.1406l-1.0469-2.6094h-1.1875l2.7812 6.6094-0.53125 1.3594c-0.32812 0.73438-0.54688 0.8125-0.8125 0.8125-0.21875 0-0.6875-0.046875-1.1562-0.21875l0.09375 0.96875c0.09375 0.015625 0.57812 0.10938 1.0625 0.10938 0.35938 0 1.0469 0 1.6875-1.625z"/>
  </g>
  <clipPath id="ah">
   <path d="m1.4961 0h893.29v238h-893.29z"/>
  </clipPath>
  <clipPath id="ag">
   <path d="m1.4961 15.879v206.45c0 8.7695 7.1094 15.879 15.879 15.879h861.54c8.7695 0 15.879-7.1094 15.879-15.879v-206.45c0-8.7695-7.1094-15.879-15.879-15.879h-861.54c-8.7695 0-15.879 7.1094-15.879 15.879z"/>
  </clipPath>
  <linearGradient id="p" x2="0" y1="25.004" y2="74.997" gradientTransform="matrix(17.868 0 0 -4.7648 -445.26 357.35)" gradientUnits="userSpaceOnUse">
   <stop stop-color="#0a1726" offset="0"/>
   <stop stop-color="#0a1726" offset=".015625"/>
   <stop stop-color="#0a1726" offset=".03125"/>
   <stop stop-color="#0a1727" offset=".046875"/>
   <stop stop-color="#0a1827" offset=".0625"/>
   <stop stop-color="#0a1828" offset=".078125"/>
   <stop stop-color="#0a1828" offset=".09375"/>
   <stop stop-color="#0a1929" offset=".10938"/>
   <stop stop-color="#0a1929" offset=".125"/>
   <stop stop-color="#0a192a" offset=".14062"/>
   <stop stop-color="#0a1a2a" offset=".15625"/>
   <stop stop-color="#0a1a2b" offset=".17188"/>
   <stop stop-color="#0a1a2b" offset=".1875"/>
   <stop stop-color="#0a1b2c" offset=".20312"/>
   <stop stop-color="#0b1b2c" offset=".21875"/>
   <stop stop-color="#0b1b2d" offset=".23438"/>
   <stop stop-color="#0b1c2d" offset=".25"/>
   <stop stop-color="#0b1c2e" offset=".26562"/>
   <stop stop-color="#0b1c2f" offset=".28125"/>
   <stop stop-color="#0b1d2f" offset=".29688"/>
   <stop stop-color="#0b1d30" offset=".3125"/>
   <stop stop-color="#0b1d30" offset=".32812"/>
   <stop stop-color="#0b1e31" offset=".34375"/>
   <stop stop-color="#0b1e31" offset=".35938"/>
   <stop stop-color="#0b1e32" offset=".375"/>
   <stop stop-color="#0b1f32" offset=".39062"/>
   <stop stop-color="#0b1f33" offset=".40625"/>
   <stop stop-color="#0c1f33" offset=".42188"/>
   <stop stop-color="#0c2034" offset=".4375"/>
   <stop stop-color="#0c2034" offset=".45312"/>
   <stop stop-color="#0c2035" offset=".46875"/>
   <stop stop-color="#0c2135" offset=".48438"/>
   <stop stop-color="#0c2136" offset=".5"/>
   <stop stop-color="#0c2136" offset=".51562"/>
   <stop stop-color="#0c2137" offset=".53125"/>
   <stop stop-color="#0c2237" offset=".54688"/>
   <stop stop-color="#0c2238" offset=".5625"/>
   <stop stop-color="#0c2238" offset=".57812"/>
   <stop stop-color="#0c2339" offset=".59375"/>
   <stop stop-color="#0d2339" offset=".60938"/>
   <stop stop-color="#0d233a" offset=".625"/>
   <stop stop-color="#0d243a" offset=".64062"/>
   <stop stop-color="#0d243b" offset=".65625"/>
   <stop stop-color="#0d243b" offset=".67188"/>
   <stop stop-color="#0d253c" offset=".6875"/>
   <stop stop-color="#0d253c" offset=".70312"/>
   <stop stop-color="#0d253d" offset=".71875"/>
   <stop stop-color="#0d263d" offset=".73438"/>
   <stop stop-color="#0d263e" offset=".75"/>
   <stop stop-color="#0d263f" offset=".76562"/>
   <stop stop-color="#0d273f" offset=".78125"/>
   <stop stop-color="#0d2740" offset=".79688"/>
   <stop stop-color="#0e2740" offset=".8125"/>
   <stop stop-color="#0e2841" offset=".82812"/>
   <stop stop-color="#0e2841" offset=".84375"/>
   <stop stop-color="#0e2842" offset=".85938"/>
   <stop stop-color="#0e2942" offset=".875"/>
   <stop stop-color="#0e2943" offset=".89062"/>
   <stop stop-color="#0e2943" offset=".90625"/>
   <stop stop-color="#0e2a44" offset=".92188"/>
   <stop stop-color="#0e2a44" offset=".9375"/>
   <stop stop-color="#0e2a45" offset=".95312"/>
   <stop stop-color="#0e2b45" offset=".96875"/>
   <stop stop-color="#0e2b46" offset=".98438"/>
   <stop stop-color="#0e2b46" offset="1"/>
  </linearGradient>
  <clipPath id="af">
   <path d="m1.4961 0h130.5v135h-130.5z"/>
  </clipPath>
  <clipPath id="ae">
   <path d="m15 18h82v83h-82z"/>
  </clipPath>
  <clipPath id="ad">
   <path d="m96.781 59.555c0-22.477-18.219-40.695-40.695-40.695-22.477 0-40.695 18.219-40.695 40.695 0 22.473 18.219 40.691 40.695 40.691 22.477 0 40.695-18.219 40.695-40.691z"/>
  </clipPath>
 </defs>
 <g clip-path="url(#ah)">
  <g clip-path="url(#ag)">
   <path d="m1.4961 238.21v-238.21h893.29v238.21z" fill="url(#p)"/>
  </g>
 </g>
 <g clip-path="url(#af)">
  <path transform="matrix(.99626 0 0 -.99626 1.4953 0)" d="m96.639-59.778c0 23.11-18.734 41.844-41.844 41.844-23.11 0-41.844-18.734-41.844-41.844 0-23.11 18.734-41.844 41.844-41.844 23.11 0 41.844 18.734 41.844 41.844z" fill="none" stroke="#33b7df" stroke-miterlimit="10" stroke-width="2.391"/>
 </g>
 <g clip-path="url(#ae)">
  <g clip-path="url(#ad)">
   <path transform="matrix(.99626 0 0 -.99626 1.4953 0)" d="m12.952-43.836c26.901-13.947 56.786-13.947 83.688 0m-83.688-15.942c26.901-13.947 56.786-13.947 83.688 0m-83.688-15.938c26.901-13.947 56.786-13.947 83.688 0m-63.762 53.799c9.963-32.877 9.963-42.84 0-75.717m21.918 79.7c7.9712-36.86 7.9712-46.823 0-83.688m21.918 79.704c5.9794-32.877 5.9794-42.84 0-75.717" fill="none" stroke="#33b7df" stroke-miterlimit="10" stroke-opacity=".55" stroke-width=".99628"/>
  </g>
 </g>
 <path transform="matrix(.99626 0 0 -.99626 1.4953 0)" d="m57.783-111.58c16.938-11.959 36.864-17.934 61.77-19.926m-69.741 9.963c17.934-13.951 41.844-21.918 67.749-25.905m-55.791 15.942c13.947-13.951 31.881-21.918 49.811-25.905" fill="none" stroke="#33b7df" stroke-miterlimit="10" stroke-opacity=".35" stroke-width="1.0959"/>
 <path d="m13.406 39.703c0-1.0977-0.89062-1.9844-1.9844-1.9844-1.0977 0-1.9844 0.88672-1.9844 1.9844 0 1.0938 0.88672 1.9844 1.9844 1.9844 1.0938 0 1.9844-0.89062 1.9844-1.9844z" fill="#7cf0e5"/>
 <path d="m16.98 51.613c0-0.87891-0.71094-1.5898-1.5898-1.5898-0.875 0-1.5859 0.71094-1.5859 1.5898 0 0.875 0.71094 1.5859 1.5859 1.5859 0.87891 0 1.5898-0.71094 1.5898-1.5859z" fill="#7cf0e5" fill-opacity=".8"/>
 <path d="m11.816 61.539c0-0.76953-0.62109-1.3906-1.3867-1.3906-0.76953 0-1.3906 0.62109-1.3906 1.3906 0 0.76563 0.62109 1.3906 1.3906 1.3906 0.76562 0 1.3867-0.625 1.3867-1.3906z" fill="#7cf0e5" fill-opacity=".65"/>
 <path d="m19.461 68.484c0-1.1484-0.93359-2.082-2.0859-2.082-1.1484 0-2.082 0.93359-2.082 2.082 0 1.1523 0.93359 2.0859 2.082 2.0859 1.1523 0 2.0859-0.93359 2.0859-2.0859z" fill="#7cf0e5"/>
 <path d="m14.895 78.41c0-0.82031-0.66797-1.4883-1.4883-1.4883-0.82422 0-1.4883 0.66797-1.4883 1.4883 0 0.82422 0.66406 1.4922 1.4883 1.4922 0.82031 0 1.4883-0.66797 1.4883-1.4922z" fill="#7cf0e5" fill-opacity=".7"/>
 <path d="m21.543 45.656c0-0.65625-0.53125-1.1914-1.1875-1.1914-0.66016 0-1.1914 0.53516-1.1914 1.1914 0 0.66016 0.53125 1.1914 1.1914 1.1914 0.65625 0 1.1875-0.53125 1.1875-1.1914z" fill="#7cf0e5" fill-opacity=".6"/>
 <path d="m24.523 59.555c0-1.207-0.98047-2.1836-2.1836-2.1836-1.207 0-2.1836 0.97656-2.1836 2.1836 0 1.2031 0.97656 2.1836 2.1836 2.1836 1.2031 0 2.1836-0.98047 2.1836-2.1836z" fill="#7cf0e5" fill-opacity=".85"/>
 <path d="m10.43 54.59c0-0.54688-0.44531-0.99219-0.99219-0.99219-0.55078 0-0.99609 0.44531-0.99609 0.99219s0.44531 0.99219 0.99609 0.99219c0.54688 0 0.99219-0.44531 0.99219-0.99219z" fill="#7cf0e5" fill-opacity=".5"/>
 <path transform="matrix(.99626 0 0 -.99626 1.4953 0)" d="m99.231-39.852c0 1.9801-1.6076 3.5876-3.5876 3.5876-1.9801 0-3.5876-1.6076-3.5876-3.5876s1.6076-3.5837 3.5876-3.5837c1.9801 0 3.5876 1.6036 3.5876 3.5837z" fill="none" stroke="#2ad4d4" stroke-miterlimit="10" stroke-width="1.3948"/>
 <path d="m98.469 39.703c0-0.93359-0.75781-1.6875-1.6875-1.6875-0.93359 0-1.6875 0.75391-1.6875 1.6875 0 0.92969 0.75391 1.6875 1.6875 1.6875 0.92969 0 1.6875-0.75781 1.6875-1.6875z" fill="#7cf0e5"/>
 <g fill="#e5f2fa">
  <use x="125.761083" y="137.962431" xlink:href="#ac"/>
  <use x="183.680211" y="137.962431" xlink:href="#i"/>
  <use x="237.872943" y="137.962431" xlink:href="#o"/>
  <use x="279.596186" y="137.962431" xlink:href="#i"/>
 </g>
 <g fill="#33b7df">
  <use x="333.788918" y="137.962431" xlink:href="#o"/>
  <use x="375.512161" y="137.962431" xlink:href="#ab"/>
  <use x="413.932227" y="137.962431" xlink:href="#i"/>
  <use x="464.925008" y="137.962431" xlink:href="#aa"/>
  <use x="541.775463" y="137.962431" xlink:href="#z"/>
 </g>
 <path transform="matrix(.99626 0 0 -.99626 1.4953 0)" d="m597.92-70.737c0 4.9521-4.015 8.9671-8.9671 8.9671s-8.9632-4.015-8.9632-8.9671 4.0111-8.9632 8.9632-8.9632 8.9671 4.0111 8.9671 8.9632z" fill="none" stroke="#2ad4d4" stroke-miterlimit="10" stroke-width="1.594"/>
 <path d="m593.21 70.473c0-2.7422-2.2227-4.9648-4.9648-4.9648-2.7383 0-4.9609 2.2227-4.9609 4.9648 0 2.7383 2.2227 4.9609 4.9609 4.9609 2.7422 0 4.9648-2.2227 4.9648-4.9609z" fill="#7cf0e5"/>
 <g fill="#9fc1d6">
  <use x="277.62038" y="171.708831" xlink:href="#c"/>
  <use x="283.207901" y="171.708831" xlink:href="#f"/>
  <use x="288.47235" y="171.708831" xlink:href="#g"/>
  <use x="295.359606" y="171.708831" xlink:href="#d"/>
  <use x="300.312893" y="171.708831" xlink:href="#a"/>
  <use x="307.290967" y="171.708831" xlink:href="#m"/>
  <use x="314.580204" y="171.708831" xlink:href="#b"/>
  <use x="321.059525" y="171.708831" xlink:href="#l"/>
  <use x="325.919017" y="171.708831" xlink:href="#c"/>
  <use x="331.506538" y="171.708831" xlink:href="#a"/>
  <use x="338.484612" y="171.708831" xlink:href="#k"/>
  <use x="342.939146" y="171.708831" xlink:href="#b"/>
  <use x="389.333589" y="171.708831" xlink:href="#a"/>
  <use x="395.894795" y="171.708831" xlink:href="#d"/>
  <use x="400.848082" y="171.708831" xlink:href="#j"/>
  <use x="407.327403" y="171.708831" xlink:href="#y"/>
  <use x="414.805719" y="171.708831" xlink:href="#h"/>
  <use x="418.23446" y="171.708831" xlink:href="#x"/>
  <use x="424.902861" y="171.708831" xlink:href="#b"/>
  <use x="471.297304" y="171.708831" xlink:href="#f"/>
  <use x="476.561752" y="171.708831" xlink:href="#d"/>
  <use x="481.515039" y="171.708831" xlink:href="#a"/>
  <use x="488.091133" y="171.708831" xlink:href="#w"/>
  <use x="497.999195" y="171.708831" xlink:href="#e"/>
  <use x="501.427935" y="171.708831" xlink:href="#h"/>
  <use x="504.856675" y="171.708831" xlink:href="#n"/>
  <use x="512.334991" y="171.708831" xlink:href="#m"/>
  <use x="559.53935" y="171.708831" xlink:href="#k"/>
  <use x="563.993883" y="171.708831" xlink:href="#g"/>
  <use x="570.88114" y="171.708831" xlink:href="#d"/>
  <use x="615.73466" y="171.708831" xlink:href="#d"/>
  <use x="620.687946" y="171.708831" xlink:href="#b"/>
  <use x="627.167268" y="171.708831" xlink:href="#c"/>
  <use x="632.754789" y="171.708831" xlink:href="#v"/>
  <use x="640.233105" y="171.708831" xlink:href="#u"/>
  <use x="651.760997" y="171.708831" xlink:href="#a"/>
  <use x="658.739072" y="171.708831" xlink:href="#t"/>
  <use x="666.232276" y="171.708831" xlink:href="#e"/>
  <use x="669.661016" y="171.708831" xlink:href="#b"/>
  <use x="716.040571" y="171.708831" xlink:href="#f"/>
  <use x="721.30502" y="171.708831" xlink:href="#b"/>
  <use x="727.784341" y="171.708831" xlink:href="#e"/>
  <use x="731.213082" y="171.708831" xlink:href="#b"/>
  <use x="737.692403" y="171.708831" xlink:href="#c"/>
  <use x="743.279925" y="171.708831" xlink:href="#j"/>
  <use x="749.759246" y="171.708831" xlink:href="#g"/>
  <use x="757.048483" y="171.708831" xlink:href="#s"/>
  <use x="764.928779" y="171.708831" xlink:href="#b"/>
  <use x="771.4081" y="171.708831" xlink:href="#l"/>
  <use x="776.267591" y="171.708831" xlink:href="#r"/>
  <use x="783.745908" y="171.708831" xlink:href="#a"/>
  <use x="790.73887" y="171.708831" xlink:href="#f"/>
  <use x="795.988431" y="171.708831" xlink:href="#a"/>
  <use x="842.881627" y="171.708831" xlink:href="#a"/>
  <use x="849.859701" y="171.708831" xlink:href="#n"/>
  <use x="857.338017" y="171.708831" xlink:href="#a"/>
  <use x="864.316092" y="171.708831" xlink:href="#e"/>
  <use x="867.744832" y="171.708831" xlink:href="#q"/>
  <use x="874.413233" y="171.708831" xlink:href="#c"/>
  <use x="880.000754" y="171.708831" xlink:href="#h"/>
  <use x="883.444383" y="171.708831" xlink:href="#c"/>
 </g>
</svg>
