<svg width="900" height="240" viewBox="0 0 900 240" fill="none" xmlns="http://www.w3.org/2000/svg" role="img" aria-label="datatrawl — storage-safe archive trawling for resumable telescope-data analysis">
  <defs>
    <linearGradient id="panel" x1="0" y1="0" x2="1" y2="1">
      <stop offset="0" stop-color="#0f2c47"/>
      <stop offset="1" stop-color="#0a1726"/>
    </linearGradient>
    <linearGradient id="net" x1="0" y1="0" x2="1" y2="0">
      <stop offset="0" stop-color="#7df0e6"/>
      <stop offset="1" stop-color="#34b8e0"/>
    </linearGradient>
    <radialGradient id="depth" cx="0.46" cy="0.52" r="0.55">
      <stop offset="0" stop-color="#2bd4d4" stop-opacity="0.18"/>
      <stop offset="1" stop-color="#2bd4d4" stop-opacity="0"/>
    </radialGradient>
    <clipPath id="round"><rect x="0" y="0" width="900" height="240" rx="28"/></clipPath>
  </defs>

  <rect x="0.75" y="0.75" width="898.5" height="238.5" rx="28" fill="url(#panel)" stroke="#4fd0e0" stroke-opacity="0.22" stroke-width="1.5"/>

  <g clip-path="url(#round)">
    <g transform="translate(560,-40) scale(2.6)" stroke="url(#net)" fill="none" stroke-linecap="round" opacity="0.07">
      <path d="M24 33 C 45 30, 66 45, 84 56" stroke-width="2"/>
      <path d="M24 87 C 45 90, 66 75, 84 64" stroke-width="2"/>
      <path d="M24 47 C 45 46, 66 53, 84 59" stroke-width="1.4"/>
      <path d="M24 60 C 45 60, 66 60, 84 60" stroke-width="1.4"/>
      <path d="M24 73 C 45 74, 66 67, 84 61" stroke-width="1.4"/>
      <path d="M38 32 Q 42 60, 38 88" stroke-width="1.1"/>
      <path d="M52 38 Q 55 60, 52 82" stroke-width="1.1"/>
      <path d="M66 46 Q 69 60, 66 74" stroke-width="1.1"/>
    </g>

    <!-- mark -->
    <g transform="translate(40,45) scale(1.25)">
      <circle cx="55" cy="60" r="42" fill="url(#depth)"/>
      <g fill="#cdeff5">
        <circle cx="10" cy="40" r="2"   opacity="0.85"/>
        <circle cx="14" cy="52" r="1.6" opacity="0.7"/>
        <circle cx="9"  cy="62" r="1.4" opacity="0.6"/>
        <circle cx="16" cy="69" r="2.1" opacity="0.8"/>
        <circle cx="12" cy="79" r="1.5" opacity="0.65"/>
        <circle cx="21" cy="60" r="2.2" opacity="0.9"/>
      </g>
      <g stroke="url(#net)" fill="none" stroke-linecap="round" stroke-linejoin="round">
        <path d="M24 29 C 26.33 28.63, 28.66 28.26, 31 28 C 33.65 27.71, 36.33 27.57, 39 27.70 C 41.71 27.83, 44.41 28.24, 47 29 C 49.41 29.71, 51.72 30.73, 54 31.80 C 56.05 32.75, 58.07 33.74, 60 34.90 C 61.74 35.94, 63.41 37.12, 65 38.40 C 66.40 39.53, 67.74 40.73, 69 42 C 70.39 43.41, 71.69 44.91, 73 46.40 C 74.31 47.89, 75.62 49.38, 77 50.80 C 77.95 51.78, 78.93 52.74, 80 53.60 C 80.63 54.11, 81.30 54.59, 82 55 C 82.64 55.37, 83.32 55.69, 84 56" stroke-width="2"/>
        <path d="M24 91 C 26.33 91.37, 28.66 91.74, 31 92 C 33.65 92.29, 36.33 92.43, 39 92.30 C 41.71 92.17, 44.41 91.76, 47 91 C 49.41 90.29, 51.72 89.27, 54 88.20 C 56.05 87.25, 58.07 86.26, 60 85.10 C 61.74 84.06, 63.41 82.88, 65 81.60 C 66.40 80.47, 67.74 79.27, 69 78 C 70.39 76.59, 71.69 75.09, 73 73.60 C 74.31 72.11, 75.62 70.62, 77 69.20 C 77.95 68.22, 78.93 67.26, 80 66.40 C 80.63 65.89, 81.30 65.41, 82 65 C 82.64 64.63, 83.32 64.31, 84 64" stroke-width="2"/>
        <path d="M84 56 Q 88 60, 84 64" stroke-width="2"/>
        <path d="M24 44 C 46 43, 66 53, 84 59" stroke-width="1.4" opacity="0.8"/>
        <path d="M24 60 C 45 60, 66 60, 84 60" stroke-width="1.4" opacity="0.8"/>
        <path d="M24 76 C 46 77, 66 67, 84 61" stroke-width="1.4" opacity="0.8"/>
        <path d="M38 31 Q 43 60, 38 89" stroke-width="1.1" opacity="0.6"/>
        <path d="M52 37 Q 56 60, 52 83" stroke-width="1.1" opacity="0.6"/>
        <path d="M66 45 Q 70 60, 66 75" stroke-width="1.1" opacity="0.6"/>
        <path d="M78 51 Q 81 60, 78 68" stroke-width="1.1" opacity="0.6"/>
      </g>
      <path d="M86 60 L 90 63" stroke="#7fd9c6" stroke-width="1.2" opacity="0.5" stroke-linecap="round"/>
      <path d="M88 66 L 91 65 L 93 66 L 95 65.4 L 99 66 L 101 65.3 L 104 66" fill="none" stroke="#f0a93a" stroke-width="1.2" opacity="0.55"/>
      <path d="M96 66 L 96 40" fill="none" stroke="#fbbf24" stroke-width="6" opacity="0.16"/>
      <path d="M94.4 66 L 96 40 L 97.6 66 Z" fill="#fbbf24"/>
      <circle cx="96" cy="40" r="3.6" fill="#fbbf24" opacity="0.22"/>
      <circle cx="96" cy="40" r="1.7" fill="#ffe08a"/>
    </g>

    <!-- CLI prompt -->
    <path d="M236 69 L 256 87 L 236 105" fill="none" stroke="#34b8e0" stroke-width="7" stroke-linecap="round" stroke-linejoin="round" opacity="0.9"/>

    <!-- wordmark (vectorized, locked) -->
    <path d="M 27.65 31.48 L 27.65 50.15 L 33.58 50.15 L 33.58 0.00 L 27.65 0.00 L 27.65 4.55 Q 26.17 1.87 23.70 0.46 Q 21.23 -0.94 18.02 -0.94 Q 11.48 -0.94 7.71 4.14 Q 3.96 9.22 3.96 18.14 Q 3.96 26.95 7.73 31.95 Q 11.51 36.96 18.02 36.96 Q 21.27 36.96 23.75 35.56 Q 26.24 34.17 27.65 31.48 Z M 10.22 18.02 Q 10.22 11.12 12.41 7.60 Q 14.60 4.09 18.88 4.09 Q 23.17 4.09 25.41 7.63 Q 27.65 11.18 27.65 18.02 Q 27.65 24.88 25.41 28.41 Q 23.17 31.94 18.88 31.94 Q 14.60 31.94 12.41 28.42 Q 10.22 24.92 10.22 18.02 Z M 62.36 18.14 L 60.39 18.14 Q 55.20 18.14 52.57 16.31 Q 49.96 14.50 49.96 10.89 Q 49.96 7.64 51.91 5.84 Q 53.88 4.03 57.36 4.03 Q 62.26 4.03 65.06 7.43 Q 67.87 10.83 67.90 16.82 L 67.90 18.14 L 62.36 18.14 Z M 73.86 20.59 L 73.86 0.00 L 67.90 0.00 L 67.90 5.35 Q 66.00 2.12 63.11 0.59 Q 60.24 -0.94 56.11 -0.94 Q 50.59 -0.94 47.30 2.18 Q 44.03 5.29 44.03 10.51 Q 44.03 16.53 48.07 19.66 Q 52.11 22.78 59.94 22.78 L 67.90 22.78 L 67.90 23.72 Q 67.87 28.04 65.70 29.99 Q 63.55 31.94 58.81 31.94 Q 55.78 31.94 52.69 31.06 Q 49.59 30.20 46.67 28.52 L 46.67 34.45 Q 49.96 35.71 52.97 36.33 Q 55.98 36.96 58.81 36.96 Q 63.29 36.96 66.47 35.64 Q 69.64 34.32 71.61 31.68 Q 72.83 30.07 73.34 27.70 Q 73.86 25.33 73.86 20.59 Z M 99.26 46.34 L 99.26 36.09 L 112.73 36.09 L 112.73 31.48 L 99.26 31.48 L 99.26 11.89 Q 99.26 7.90 100.78 6.31 Q 102.29 4.73 106.06 4.73 L 112.73 4.73 L 112.73 0.00 L 105.48 0.00 Q 98.81 0.00 96.06 2.67 Q 93.33 5.35 93.33 11.89 L 93.33 31.48 L 83.69 31.48 L 83.69 36.09 L 93.33 36.09 L 93.33 46.34 L 99.26 46.34 Z M 141.83 18.14 L 139.86 18.14 Q 134.67 18.14 132.05 16.31 Q 129.43 14.50 129.43 10.89 Q 129.43 7.64 131.39 5.84 Q 133.35 4.03 136.83 4.03 Q 141.73 4.03 144.53 7.43 Q 147.34 10.83 147.37 16.82 L 147.37 18.14 L 141.83 18.14 Z M 153.33 20.59 L 153.33 0.00 L 147.37 0.00 L 147.37 5.35 Q 145.47 2.12 142.58 0.59 Q 139.71 -0.94 135.58 -0.94 Q 130.07 -0.94 126.78 2.18 Q 123.50 5.29 123.50 10.51 Q 123.50 16.53 127.54 19.66 Q 131.58 22.78 139.41 22.78 L 147.37 22.78 L 147.37 23.72 Q 147.34 28.04 145.17 29.99 Q 143.02 31.94 138.28 31.94 Q 135.25 31.94 132.16 31.06 Q 129.06 30.20 126.14 28.52 L 126.14 34.45 Q 129.43 35.71 132.44 36.33 Q 135.45 36.96 138.28 36.96 Q 142.76 36.96 145.94 35.64 Q 149.11 34.32 151.08 31.68 Q 152.30 30.07 152.81 27.70 Q 153.33 25.33 153.33 20.59 Z" fill="#dceaf2" transform="translate(272,112) scale(1,-1)"/>
    <path d="M 19.79 46.34 L 19.79 36.09 L 33.26 36.09 L 33.26 31.48 L 19.79 31.48 L 19.79 11.89 Q 19.79 7.90 21.31 6.31 Q 22.82 4.73 26.59 4.73 L 33.26 4.73 L 33.26 0.00 L 26.01 0.00 Q 19.34 0.00 16.59 2.67 Q 13.86 5.35 13.86 11.89 L 13.86 31.48 L 4.22 31.48 L 4.22 36.09 L 13.86 36.09 L 13.86 46.34 L 19.79 46.34 Z M 76.95 28.65 Q 75.06 30.13 73.09 30.80 Q 71.13 31.48 68.78 31.48 Q 63.23 31.48 60.29 28.00 Q 57.36 24.52 57.36 17.95 L 57.36 0.00 L 51.40 0.00 L 51.40 36.09 L 57.36 36.09 L 57.36 29.04 Q 58.84 32.88 61.92 34.92 Q 65.00 36.96 69.22 36.96 Q 71.42 36.96 73.31 36.41 Q 75.22 35.87 76.95 34.71 L 76.95 28.65 Z M 102.10 18.14 L 100.13 18.14 Q 94.94 18.14 92.31 16.31 Q 89.69 14.50 89.69 10.89 Q 89.69 7.64 91.65 5.84 Q 93.62 4.03 97.09 4.03 Q 101.99 4.03 104.80 7.43 Q 107.60 10.83 107.63 16.82 L 107.63 18.14 L 102.10 18.14 Z M 113.59 20.59 L 113.59 0.00 L 107.63 0.00 L 107.63 5.35 Q 105.74 2.12 102.85 0.59 Q 99.97 -0.94 95.85 -0.94 Q 90.33 -0.94 87.04 2.18 Q 83.76 5.29 83.76 10.51 Q 83.76 16.53 87.80 19.66 Q 91.85 22.78 99.67 22.78 L 107.63 22.78 L 107.63 23.72 Q 107.60 28.04 105.44 29.99 Q 103.28 31.94 98.55 31.94 Q 95.52 31.94 92.42 31.06 Q 89.33 30.20 86.40 28.52 L 86.40 34.45 Q 89.69 35.71 92.70 36.33 Q 95.71 36.96 98.55 36.96 Q 103.02 36.96 106.20 35.64 Q 109.38 34.32 111.35 31.68 Q 112.56 30.07 113.08 27.70 Q 113.59 25.33 113.59 20.59 Z M 119.21 36.09 L 125.07 36.09 L 131.35 6.93 L 136.51 25.55 L 141.57 25.55 L 146.79 6.93 L 153.07 36.09 L 158.94 36.09 L 150.49 0.00 L 144.82 0.00 L 139.06 19.79 L 133.32 0.00 L 127.65 0.00 L 119.21 36.09 Z M 179.54 13.09 Q 179.54 9.09 181.00 7.05 Q 182.46 5.03 185.33 5.03 L 192.26 5.03 L 192.26 0.00 L 184.75 0.00 Q 179.44 0.00 176.52 3.41 Q 173.61 6.84 173.61 13.09 L 173.61 45.86 L 164.10 45.86 L 164.10 50.50 L 179.54 50.50 L 179.54 13.09 Z" fill="#5fe3e8" transform="translate(421.37,112) scale(1,-1)"/>

    <!-- amber accent (the catch) -->
    <circle cx="637" cy="68" r="9" fill="#fbbf24" opacity="0.22"/>
    <circle cx="637" cy="68" r="5" fill="#fbbf24"/>

    <!-- two-tone divider -->
    <path d="M272 140 L 330 140" stroke="#f6a623" stroke-width="2" stroke-linecap="round" opacity="0.7"/>
    <path d="M330 140 L 486 140" stroke="#4fd0e0" stroke-width="2" stroke-linecap="round" opacity="0.3"/>

    <!-- tagline (editable) -->
    <text x="274" y="173" font-family="ui-monospace, 'SFMono-Regular', 'JetBrains Mono', Menlo, Consolas, monospace" font-size="15" fill="#8aa6bf" letter-spacing="0.3">storage-safe archive trawling for resumable telescope-data analysis</text>
  </g>
</svg>
