<?xml version="1.0" encoding="UTF-8"?>
<svg width="1275.2" height="637.61" viewBox="0 0 1275.2 637.61" xmlns="http://www.w3.org/2000/svg" xmlns:xlink="http://www.w3.org/1999/xlink">
 <defs>
  <g id="az">
   <path d="m53.156-5.1094v-63.703c0-3.4219-0.75-5.125-5.1094-5.125h-3.9375c-4.0469 0-5.125 1.3906-5.125 5.125v24.172c-4.7812-4.5781-10.109-5.3281-13.422-5.3281-21.625 0-21.625 20.453-21.625 25.672 0 4.9062 0 25.469 21.094 25.469 4.4844 0 9.0625-1.2812 13.641-6.1719 0 3.9375 1.4844 5 5.1094 5h4.2656c4.0469 0 5.1094-1.3906 5.1094-5.1094zm-14.484-8.2031c0 1.8125 0 2.7656-3.0938 4.8906-2.6562 1.7031-5.1094 1.9219-6.3906 1.9219-10.75 0-10.75-9.7969-10.75-17.797 0-7.9844 0-18 11.922-18 3.0938 0 5.9688 1.0625 8.3125 3.3125z"/>
  </g>
  <g id="k">
   <path d="m50.5-5.1094v-28.547c0-16.844-16.203-16.953-21.531-16.953-5 0-10.328 0.4375-17.469 3.4219-2.2344 0.95312-2.7656 1.2656-2.7656 2.4375 0 0.75 0.64062 6.9375 0.75 7.7812 0.10938 0.64062 0.64062 1.1719 1.375 1.1719 0.54688 0 0.85938-0.3125 1.1719-0.64062 4.5938-4.7969 9.9219-7.1406 16.516-7.1406 5.75 0 7.4531 3.5156 7.4531 9.8125v3.7188c-3.7188 0-31.625 0.21875-31.625 15.875 0 7.4531 5.9531 15.344 15.328 15.344 3.625 0 11.609-1.0625 16.625-8.4219v2.1406c0 3.4062 0.75 5.1094 5.1094 5.1094h3.9375c4.0625 0 5.125-1.3906 5.125-5.1094zm-14.5-11.297c0 9.9062-10.109 9.9062-10.438 9.9062-4.4688 0-7.3438-3.8281-7.3438-7.875 0-10.453 14.812-11.188 17.781-11.297z"/>
  </g>
  <g id="r">
   <path d="m39.734-5c0-0.32812-0.21875-1.0781-0.84375-3.3125-0.54688-2.125-0.75-2.7656-1.7188-2.7656-0.53125 0-0.625 0.10938-1.2656 0.75-1.1719 0.84375-4.0469 3.1875-8.5312 3.1875-2.5469 0-4.1562-1.8125-4.1562-8.8438v-25.141h9.4844c1.2812 0 5.1094 0 5.1094-3.8281 0-3.8438-3.8281-3.8438-5.1094-3.8438h-9.4844v-8.8438c0-3.4062-0.73438-5.1094-5.1094-5.1094h-3.2969c-3.8438 0-5.125 1.1719-5.125 5.1094v8.8438h-2.4375c-1.1719 0-5.125 0-5.125 3.8438 0 3.8281 3.8438 3.8281 5.125 3.8281h2.125v26.953c0 10.766 3.8281 15.344 11.188 15.344 0.95312 0 5.6406 0 11.188-1.7031 1.8125-0.53125 7.9844-2.4531 7.9844-4.4688z"/>
  </g>
  <g id="ay">
   <path d="m37.922-42.078v-5.0156c0-2.125 0-2.875-1.9219-2.875-2.9688 0-10.75 1.0781-15.766 12.578h-0.09375v-6.9219c0-3.4062-0.75-5.125-5.125-5.125h-3.4062c-3.8281 0-5.1094 1.1719-5.1094 5.125v39.203c0 3.8281 1.1719 5.1094 5.1094 5.1094h3.9375c4.0625 0 5.125-1.3906 5.125-5.1094v-19.391c0-10.125 8.4062-14.281 15.125-14.703 1.9219-0.10938 2.125-0.10938 2.125-2.875z"/>
  </g>
  <g id="ax">
   <path d="m76.594-45.812c-0.3125-2.9844-2.2344-2.9844-5.5312-2.9844-5.0156 0-6.2969 0.32812-7.7812 5.8594l-8.625 30.906-9.0625-31.969c-0.64062-2.3438-1.3906-4.7969-6.2812-4.7969-1.5938 0-4.0469 0-5.5469 2.4531-0.95312 1.5938-5.6406 20.031-9.375 32.5l-8.5156-30.156c-1.0625-3.625-2.2344-4.7969-6.6094-4.7969h-2.125c-2.0312 0-4.2656 0-4.5781 2.9844l11.281 40.906c1.3906 4.9062 4.1562 4.9062 6.8281 4.9062h2.9844c5 0 5.8594-1.5938 7.0312-5.8594 2.4375-8.8438 6.2812-22.266 6.7031-27.797l0.10938-0.10938c0.64062 6.0625 5.3281 22.906 6.7031 27.906 1.1719 3.8281 1.7188 5.8594 7.0312 5.8594h7.25c4.5781 0 5.6406-1.2812 6.7188-4.9062z"/>
  </g>
  <g id="aw">
   <path d="m20.672-5.1094v-63.703c0-3.4219-0.75-5.125-5.125-5.125h-3.9375c-3.8281 0-5.1094 1.1719-5.1094 5.125v63.703c0 3.8281 1.1719 5.1094 5.1094 5.1094h3.9375c4.0625 0 5.125-1.3906 5.125-5.1094z"/>
  </g>
  <g id="c">
   <path d="m7.75-2.8438c0-1.125-0.65625-1.875-1.0781-2.2188-0.76562-0.59375-1.0312-0.67188-2.9219-1.0469-0.3125-0.046875-1.4375-0.29688-1.4375-1.3281 0-1.3125 1.4375-1.3125 1.7656-1.3125 1.4844 0 2.4062 0.45312 3.0156 0.79688l0.28125-1.4844c-1.3438-0.64062-2.4062-0.6875-3.0938-0.6875-1.625 0-3.5781 0.57812-3.5781 2.8906s2.5312 2.8125 3.2188 2.9531c1.0469 0.20312 2.2188 0.4375 2.2188 1.5781 0 1.4375-1.6562 1.4375-1.9531 1.4375-0.90625 0-2.1719-0.25-3.3125-1.0781l-0.28125 1.5469c1.3125 0.75 2.5625 0.98438 3.625 0.98438 2.8125 0 3.5312-1.7188 3.5312-3.0312z"/>
  </g>
  <g id="f">
   <path d="m7.1719-0.67188-0.375-1.3438c-0.54688 0.48438-1.2031 0.75-1.9219 0.75-1 0-1.0469-1.2812-1.0469-1.8438v-5.4062h2.9688v-1.3281h-2.9688v-2.8281h-1.625v2.8281h-1.8125v1.3281h1.7656v5.7969c0 1.2969 0.29688 2.9062 1.8125 2.9062 1.1406 0 2.1875-0.32812 3.2031-0.85938z"/>
  </g>
  <g id="i">
   <path d="m10.125-4.9062c0-2.9219-2.1719-5.2188-4.7344-5.2188-2.6406 0-4.7656 2.3594-4.7656 5.2188 0 2.9062 2.1875 5.0938 4.7344 5.0938 2.6094 0 4.7656-2.25 4.7656-5.0938zm-1.7344-0.17188c0 2.5781-1.5 3.8438-3.0312 3.8438-1.6094 0-3-1.3594-3-3.8438 0-2.6719 1.625-3.625 3-3.625 1.4844 0 3.0312 1.0469 3.0312 3.625z"/>
  </g>
  <g id="d">
   <path d="m7.0156-8.5156v-1.5156c-1.4688 0.015625-2.8438 0.75-3.6719 1.9531v-1.8438h-1.625v9.9219h1.6875v-4.875c0-2.1562 1.5938-3.5938 3.6094-3.6406z"/>
  </g>
  <g id="a">
   <path d="m8.8438 0v-6.4844c0-2.1562-1.5312-3.6406-3.5938-3.6406-1.0156 0-2.1094 0.1875-3.375 0.92188l0.14062 1.5c0.57812-0.40625 1.5625-1.0625 3.2031-1.0625 1.1719 0 1.875 0.89062 1.875 2.3125v0.85938c-3.6562 0.125-5.9531 1.1719-5.9531 2.9844 0 0.9375 0.57812 2.7969 2.4844 2.7969 0.34375 0 2.1875-0.046875 3.5156-1.0312v0.84375zm-1.75-3.0312c0 0.42188 0 0.96875-0.6875 1.375-0.59375 0.39062-1.3438 0.4375-1.6719 0.4375-1.1406 0-1.9219-0.64062-1.9219-1.4375 0-1.6094 3.5781-1.7656 4.2812-1.7812z"/>
  </g>
  <g id="p">
   <path d="m10.438-8.6094-0.25-1.4219c-1.2969 0.015625-2.4219 0.26562-3.3438 0.70312-0.75-0.59375-1.5312-0.70312-2.0625-0.70312-1.9844 0-3.5 1.6406-3.5 3.5781 0 1.2344 0.6875 2.1719 0.73438 2.2188-0.40625 0.5625-0.64062 1.1875-0.64062 1.875 0 0.79688 0.3125 1.375 0.57812 1.6875-1.2031 0.73438-1.3594 1.8594-1.3594 2.2969 0 1.6719 2.0938 3.0469 4.7656 3.0469 2.7031 0 4.7812-1.375 4.7812-3.0625 0-3.1719-3.5-3.1875-4.4531-3.1875h-1.8594c-0.34375 0-1.2656 0-1.2656-1.1719 0-0.45312 0.23438-0.78125 0.23438-0.78125 0.34375 0.25 1.0469 0.64062 1.9844 0.64062 1.9062 0 3.4844-1.5938 3.4844-3.5625 0-1.1094-0.5-1.9062-0.70312-2.1875h0.0625c0.078125 0 1.0312-0.0625 1.375-0.0625 0.73438 0 0.79688 0.015625 1.4375 0.09375zm-3.7969 2.1562c0 1.9844-1.25 2.3125-1.8594 2.3125-0.76562 0-1.875-0.48438-1.875-2.3125 0-2 1.2656-2.3125 1.8594-2.3125 0.78125 0 1.875 0.46875 1.875 2.3125zm1.875 8.1094c0 0.98438-1.4219 1.75-3.125 1.75-1.75 0-3.1719-0.75-3.1719-1.7812 0-0.10938 0-1.5312 1.5781-1.5312h1.8594c0.54688 0 2.8594 0 2.8594 1.5625z"/>
  </g>
  <g id="b">
   <path d="m8.9531-5.0156c0-0.75-0.046875-2.2188-0.78125-3.4375-0.79688-1.3125-2.1094-1.6719-3.0938-1.6719-2.375 0-4.3906 2.25-4.3906 5.1562 0 2.8438 2.0781 5.1562 4.7188 5.1562 1.0312 0 2.2969-0.29688 3.4375-1.125 0-0.09375-0.078125-0.625-0.078125-0.625s-0.0625-0.75-0.0625-0.84375c-1.0938 0.89062-2.3594 1.1875-3.2812 1.1875-1.4531 0-3.0469-1.2344-3.1094-3.7969zm-1.5156-1.2656h-4.9375c0.29688-1.25 1.2969-2.4531 2.5781-2.4531 0.34375 0 1.9531 0.046875 2.3594 2.4531z"/>
  </g>
  <g id="o">
   <path d="m5.9531-4.2656v-1.3281h-5.7188v1.3281z"/>
  </g>
  <g id="n">
   <path d="m7.4375-14.391v-1.5c-0.51562-0.125-1.1562-0.1875-1.6719-0.1875-2.125 0-3.6094 1.7344-3.6094 4v2.2344h-1.5781v1.3281h1.5781v8.5156h1.6875v-8.5156h2.3125v-1.3281h-2.3594v-2.9375c0-1.625 1.25-1.9062 1.9531-1.9062 0.23438 0 0.875 0 1.6875 0.29688z"/>
  </g>
  <g id="m">
   <path d="m8.9531-0.92188-0.14062-1.5c-0.98438 0.75-2.125 1.1562-3.3594 1.1562-1.7812 0-2.9531-1.5469-2.9531-3.6875 0-1.6406 0.75-3.7344 3.0469-3.7344 1.25 0 1.9688 0.26562 3.0156 0.96875l0.25-1.4219c0-0.15625-1.0469-0.625-1.3281-0.70312-0.75-0.28125-1.7188-0.28125-1.9688-0.28125-2.9688 0-4.7656 2.5938-4.7656 5.2031 0 2.75 2 5.1094 4.6719 5.1094 1.5469 0 2.6406-0.51562 3.5312-1.1094z"/>
  </g>
  <g id="av">
   <path d="m9.375 0v-6.6875c0-1.4375-0.34375-3.3438-2.9375-3.3438-1.4375 0-2.3906 0.70312-3.0469 1.4844v-7.3438h-1.7031v15.891h1.75v-5.5469c0-1.4375 0.54688-3.0938 2.1094-3.0938 2.0156 0 2.0781 1.3594 2.0781 2.1406v6.5z"/>
  </g>
  <g id="j">
   <path d="m3.3906 0v-9.8438h-1.7031v9.8438zm0.14062-12.922v-1.9219h-1.9219v1.9219z"/>
  </g>
  <g id="au">
   <path d="m9.5781-9.8438h-1.7969l-1.5312 4.2812c-0.48438 1.3906-1.1719 3.3125-1.2812 4.2969h-0.015625c-0.046875-0.40625-0.23438-1-0.34375-1.4219l-0.46875-1.5-2.0156-5.6562h-1.8281l3.625 9.8438h2.0312z"/>
  </g>
  <g id="at">
   <path d="m14.359-9.8438h-1.7344l-1.2188 4.1094c-0.25 0.875-0.96875 3.2812-1.0469 4.4062h-0.03125c-0.046875-0.6875-0.4375-2.3438-1.0781-4.5156l-1.1719-4h-1.5781l-1.1406 3.9062c-0.57812 2-1 3.6875-1.0469 4.6094h-0.03125c-0.09375-1.3594-1.0312-4.5156-1.1719-5.0156l-1.0312-3.5h-1.7812l2.9844 9.8438h1.7344c1.1875-3.9375 2.1094-6.9844 2.1719-8.5156 0.046875 0.75 0.4375 2.375 0.67188 3.1719l1.5156 5.3438h2.0156z"/>
  </g>
  <g id="e">
   <path d="m3.3906 0v-15.891h-1.7031v15.891z"/>
  </g>
  <g id="q">
   <path d="m9.375 0v-6.6875c0-1.4375-0.34375-3.3438-2.9375-3.3438-1.4688 0-2.4219 0.75-3.0625 1.5312v-1.4219h-1.6875v9.9219h1.75v-5.5469c0-1.4375 0.54688-3.0938 2.1094-3.0938 2.0156 0 2.0781 1.3594 2.0781 2.1406v6.5z"/>
  </g>
  <g id="as">
   <path d="m9.375 0v-9.8438h-1.75v6.3125c0 1.7031-1.2344 2.3906-2.5469 2.3906-1.5 0-1.6406-0.51562-1.6406-1.4531v-7.25h-1.75v7.375c0 1.7812 0.625 2.6562 2.2031 2.6562 0.78125 0 2.5469-0.1875 3.7812-1.3281v1.1406z"/>
  </g>
  <g id="ar">
   <path d="m15.344 0v-6.6875c0-1.5312-0.39062-3.3438-2.9531-3.3438-1.7188 0-2.75 1.0781-3.2031 1.7344-0.42188-1.2031-1.375-1.7344-2.75-1.7344-1.5625 0-2.5469 0.89062-3.0625 1.5312v-1.4219h-1.6875v9.9219h1.75v-5.5469c0-1.3438 0.5-3.0938 2.125-3.0938 2.0938 0 2.0938 1.4688 2.0938 2.1406v6.5h1.7344v-5.5469c0-1.3438 0.5-3.0938 2.125-3.0938 2.0938 0 2.0938 1.4688 2.0938 2.1406v6.5z"/>
  </g>
  <g id="aq">
   <path d="m10.312-4.9531c0-2.6562-1.375-5.0781-3.4219-5.0781-1.4375 0-2.7188 0.59375-3.4844 1.2188v-7.0781h-1.6875v15.891h1.7344v-1.0312c0.875 0.84375 1.9375 1.2188 2.875 1.2188 2.1875 0 3.9844-2.2188 3.9844-5.1406zm-1.75 0c0 2.8906-1.8281 3.7344-3.0938 3.7344-0.45312 0-0.9375-0.10938-1.3906-0.5-0.625-0.54688-0.625-0.89062-0.625-1.2188v-4.5312c0.51562-0.64062 1.2188-1.1719 2.2344-1.1719 1.3438 0 2.875 0.98438 2.875 3.6875z"/>
  </g>
  <g id="ap">
   <path d="m10.312-4.9531c0-2.7031-1.375-5.0781-3.3438-5.0781-1.1562 0-2.5312 0.40625-3.5625 1.2344v-1.0469h-1.6875v14.312h1.7344v-5.5c0.76562 0.73438 1.7969 1.2188 2.8906 1.2188 2.125 0 3.9688-2.2031 3.9688-5.1406zm-1.75 0c0 2.2656-1.5469 3.7344-3.0938 3.7344-0.45312 0-0.9375-0.10938-1.3906-0.5-0.625-0.54688-0.625-0.89062-0.625-1.2188v-4.5c0.1875-0.28125 0.96875-1.1562 2.2344-1.1562 1.5938 0 2.875 1.6562 2.875 3.6406z"/>
  </g>
  <g id="ao">
   <path d="m9.3438 0v-15.891h-1.6875v7c-0.71875-0.59375-1.8906-1.1406-3.1719-1.1406-2.0781 0-3.7344 2.2656-3.7344 5.1094s1.625 5.1094 3.6719 5.1094c1.5781 0 2.6406-0.85938 3.1875-1.3281v1.1406zm-1.7344-3.0625c0 0.3125 0 0.65625-0.71875 1.2812-0.45312 0.39062-1 0.5625-1.5312 0.5625-1.2344 0-2.8594-0.90625-2.8594-3.6875 0-2.875 1.8281-3.7344 3.0938-3.7344 0.84375 0 1.5312 0.42188 2.0156 1.1094z"/>
  </g>
  <g id="an">
   <path d="m9.5781-9.8438h-1.7969c-1.9375 5.2344-2.6094 7.375-2.6562 8.5156h-0.015625c-0.0625-1.125-1.0781-3.875-1.875-5.8438l-1.0781-2.6719h-1.8594l4.0625 9.8438c-0.26562 0.6875-0.625 1.7188-0.73438 1.9531-0.51562 1.2812-0.85938 1.2812-1.2188 1.2812-0.09375 0-0.82812-0.03125-1.6562-0.28125l0.14062 1.5156c0.57812 0.10938 1.1406 0.1875 1.5625 0.1875 0.57812 0 1.7188 0 2.7656-2.8281z"/>
  </g>
  <g id="am">
   <path d="m9.4531-7.4062c0-0.35938-0.28125-0.96875-1.3281-0.96875-0.34375 0-1.2031 0.0625-2 0.6875-0.625-0.4375-1.2656-0.57812-1.7969-0.57812-1.7188 0-3.0469 1.375-3.0469 3 0 0.42188 0.09375 1.1406 0.625 1.8281-0.35938 0.53125-0.40625 1.0938-0.40625 1.3125 0 0.67188 0.3125 1.2031 0.46875 1.375-1.0469 0.5625-1.4219 1.5781-1.4219 2.3281 0 1.5625 1.9062 2.75 4.3125 2.75s4.3125-1.1719 4.3125-2.75c0-2.7344-3.3438-2.7344-3.9688-2.7344h-1.6094c-0.21875 0-1.0938 0-1.0938-1.0156 0-0.35938 0.046875-0.4375 0.125-0.59375 0.39062 0.26562 1.0156 0.51562 1.6875 0.51562 1.7188 0 3.0469-1.3906 3.0469-3.0156 0-0.46875-0.10938-1.0469-0.51562-1.6719 0.5-0.26562 0.95312-0.32812 1.2344-0.34375 0.10938 0.57812 0.6875 0.60938 0.6875 0.60938 0.21875 0 0.6875-0.15625 0.6875-0.73438zm-3.3281 2.1406c0 1.0781-0.8125 1.9531-1.8125 1.9531-0.9375 0-1.7969-0.82812-1.7969-1.9531 0-1.1094 0.875-1.9375 1.7969-1.9375 1 0 1.8125 0.85938 1.8125 1.9375zm1.9688 6.8438c0 0.85938-1.375 1.7031-3.2344 1.7031-1.8438 0-3.2344-0.84375-3.2344-1.7031 0-0.29688 0.09375-0.95312 0.79688-1.3906 0.4375-0.28125 0.625-0.28125 1.9375-0.28125 1.6562 0 3.7344 0 3.7344 1.6719z"/>
  </g>
  <g id="al">
   <path d="m8.3438-0.54688c0-0.54688-0.48438-0.54688-0.75-0.54688h-1.875v-6.2812c0-0.59375-0.125-0.78125-0.76562-0.78125h-2.5c-0.26562 0-0.75 0-0.75 0.54688s0.48438 0.54688 0.75 0.54688h2.0312v5.9688h-2.1562c-0.26562 0-0.78125 0-0.78125 0.54688s0.51562 0.54688 0.78125 0.54688h5.2656c0.26562 0 0.75 0 0.75-0.54688zm-2.625-9.9688c0-0.48438-0.375-0.85938-0.85938-0.85938-0.46875 0-0.84375 0.375-0.84375 0.85938 0 0.46875 0.375 0.84375 0.84375 0.84375 0.48438 0 0.85938-0.375 0.85938-0.84375z"/>
  </g>
  <g id="g">
   <path d="m8.3281-2.3281c0-0.375 0-0.79688-0.625-0.79688-0.60938 0-0.60938 0.42188-0.60938 0.8125-0.015625 1.1406-1.0938 1.3281-1.5312 1.3281-1.4688 0-1.4688-0.95312-1.4688-1.4062v-4.6719h3.0625c0.26562 0 0.75 0 0.75-0.54688s-0.48438-0.54688-0.75-0.54688h-3.0625v-1.5469c0-0.34375 0-0.78125-0.60938-0.78125-0.625 0-0.625 0.4375-0.625 0.78125v1.5469h-1.6094c-0.26562 0-0.78125 0-0.78125 0.54688s0.5 0.54688 0.76562 0.54688h1.625v4.7656c0 1.7656 1.2031 2.4062 2.5781 2.4062 1.0156 0 2.8906-0.5 2.8906-2.4375z"/>
  </g>
  <g id="z">
   <path d="m9.4375-0.54688c0-0.54688-0.48438-0.54688-0.75-0.54688h-0.78125v-4.4531c0-1.8594-0.875-2.7188-2.4219-2.7188-1.2812 0-2.1094 0.71875-2.4375 1.0781v-3.5938c0-0.59375-0.10938-0.78125-0.75-0.78125h-1.25c-0.26562 0-0.76562 0-0.76562 0.54688s0.5 0.54688 0.76562 0.54688h0.76562v9.375h-0.76562c-0.26562 0-0.76562 0-0.76562 0.54688s0.5 0.54688 0.76562 0.54688h2.7812c0.26562 0 0.75 0 0.75-0.54688s-0.48438-0.54688-0.75-0.54688h-0.78125v-3.4219c0-1.8438 1.2812-2.6562 2.3125-2.6562 1.0938 0 1.3125 0.625 1.3125 1.7031v4.375h-0.76562c-0.26562 0-0.76562 0-0.76562 0.54688s0.5 0.54688 0.76562 0.54688h2.7812c0.26562 0 0.75 0 0.75-0.54688z"/>
  </g>
  <g id="y">
   <path d="m9.4375-0.54688c0-0.54688-0.48438-0.54688-0.75-0.54688h-0.78125v-6.2812c0-0.59375-0.10938-0.78125-0.75-0.78125h-1.25c-0.26562 0-0.76562 0-0.76562 0.54688s0.5 0.54688 0.76562 0.54688h0.76562v4.1094c0 1.5469-1.2812 1.9688-2.125 1.9688-1.5 0-1.5-0.6875-1.5-1.2656v-5.125c0-0.59375-0.10938-0.78125-0.75-0.78125h-1.25c-0.26562 0-0.76562 0-0.76562 0.54688s0.5 0.54688 0.76562 0.54688h0.76562v4.9062c0 1.7344 1.1406 2.2656 2.5938 2.2656 1.1562 0 1.875-0.46875 2.25-0.79688 0 0.6875 0.45312 0.6875 0.78125 0.6875h1.25c0.26562 0 0.75 0 0.75-0.54688z"/>
  </g>
  <g id="x">
   <path d="m9.0312-4.0938c0-2.3281-1.5938-4.1719-3.5625-4.1719-1.375 0-2.25 0.82812-2.4219 1.0156v-3.5312c0-0.59375-0.10938-0.78125-0.75-0.78125h-1.25c-0.26562 0-0.76562 0-0.76562 0.54688s0.5 0.54688 0.76562 0.54688h0.76562v9.6875c0 0.34375 0 0.78125 0.625 0.78125 0.60938 0 0.60938-0.39062 0.60938-0.95312 0.45312 0.51562 1.1562 1.0625 2.2188 1.0625 2 0 3.7656-1.7969 3.7656-4.2031zm-1.2344 0c0 1.8281-1.2812 3.1094-2.625 3.1094-1.4219 0-2.125-1.6094-2.125-2.5469v-1.5c0-1.0781 1.0625-2.1406 2.2969-2.1406 1.3594 0 2.4531 1.375 2.4531 3.0781z"/>
  </g>
  <g id="w">
   <path d="m5.9375-1.0625c0-0.625-0.5-1.0781-1.0625-1.0781-0.59375 0-1.0781 0.46875-1.0781 1.0781 0 0.57812 0.5 1.0625 1.0625 1.0625 0.625 0 1.0781-0.51562 1.0781-1.0625z"/>
  </g>
  <g id="v">
   <path d="m8.625-2.0625c0-0.48438-0.46875-0.48438-0.625-0.48438-0.4375 0-0.5 0.14062-0.59375 0.40625-0.42188 1.0469-1.3438 1.1562-1.8125 1.1562-1.5938 0-2.9688-1.3438-2.9688-3.1094 0-0.95312 0.54688-3.1406 3.0312-3.1406 0.51562 0 0.90625 0.046875 1.0781 0.0625 0.14062 0.03125 0.15625 0.0625 0.15625 0.15625 0.046875 0.76562 0.64062 0.79688 0.75 0.79688 0.42188 0 0.78125-0.29688 0.78125-0.79688 0-1.3125-1.9062-1.3125-2.75-1.3125-3.2344 0-4.2656 2.6562-4.2656 4.2344 0 2.3125 1.75 4.2031 4.0312 4.2031 2.5312 0 3.1875-1.875 3.1875-2.1719z"/>
  </g>
  <g id="u">
   <path d="m8.625-4.0938c0-2.3594-1.7188-4.2344-3.7656-4.2344s-3.7656 1.875-3.7656 4.2344c0 2.3906 1.75 4.2031 3.7656 4.2031 2.0312 0 3.7656-1.8125 3.7656-4.2031zm-1.2188-0.125c0 1.8125-1.1875 3.2344-2.5469 3.2344s-2.5312-1.4375-2.5312-3.2344c0-1.7656 1.2031-3.0156 2.5312-3.0156s2.5469 1.25 2.5469 3.0156z"/>
  </g>
  <g id="t">
   <path d="m9.5938-0.54688c0-0.54688-0.4375-0.54688-1.0156-0.54688v-4.6406c0-0.42188 0-2.5312-1.6719-2.5312-0.65625 0-1.3125 0.29688-1.8125 1-0.125-0.28125-0.53125-1-1.4375-1-0.85938 0-1.4375 0.54688-1.5938 0.71875-0.015625-0.60938-0.42188-0.60938-0.75-0.60938h-0.57812c-0.26562 0-0.75 0-0.75 0.54688s0.4375 0.54688 1.0156 0.54688v5.9688c-0.60938 0-1.0156 0-1.0156 0.54688s0.48438 0.54688 0.75 0.54688h1.5938c0.26562 0 0.75 0 0.75-0.54688s-0.42188-0.54688-1.0156-0.54688v-3.4844c0-1.5938 0.6875-2.5938 1.5156-2.5938 0.53125 0 0.67188 0.65625 0.67188 1.5469v4.5312c-0.3125 0-0.82812 0-0.82812 0.54688s0.51562 0.54688 0.78125 0.54688h1.375c0.26562 0 0.76562 0 0.76562-0.54688s-0.4375-0.54688-1.0312-0.54688v-3.4844c0-1.5938 0.6875-2.5938 1.5156-2.5938 0.53125 0 0.6875 0.65625 0.6875 1.5469v4.5312c-0.32812 0-0.84375 0-0.84375 0.54688s0.51562 0.54688 0.78125 0.54688h1.3906c0.25 0 0.75 0 0.75-0.54688z"/>
  </g>
  <g id="l">
   <path d="m8.6406-12.5c0-0.40625-0.3125-0.625-0.59375-0.625-0.40625 0-0.54688 0.3125-0.64062 0.5l-6.2188 13.172c-0.046875 0.14062-0.10938 0.26562-0.10938 0.40625 0 0.39062 0.32812 0.625 0.60938 0.625 0.39062 0 0.54688-0.3125 0.64062-0.51562l6.2031-13.172c0.0625-0.14062 0.10938-0.26562 0.10938-0.39062z"/>
  </g>
  <g id="ak">
   <path d="m9.5156-11.016c0-0.54688-0.51562-0.54688-0.78125-0.54688h-1.3906c-0.26562 0-0.78125 0-0.78125 0.54688s0.51562 0.54688 0.78125 0.54688h0.4375l-0.8125 6.1406c-0.14062 1.0781-0.3125 2.25-0.32812 2.9688h-0.015625c-0.09375-1.3438-0.98438-5.0938-0.98438-5.0938-0.14062-0.48438-0.60938-0.48438-0.78125-0.48438s-0.5625 0-0.73438 0.39062c-0.078125 0.17188-0.92188 3.9219-1.0156 5.1875h-0.03125c-0.015625-0.51562-0.046875-0.78125-0.14062-1.5312l-0.96875-7.5781h0.42188c0.26562 0 0.76562 0 0.76562-0.54688s-0.5-0.54688-0.76562-0.54688h-1.4062c-0.26562 0-0.78125 0-0.78125 0.54688s0.54688 0.54688 0.67188 0.54688h0.015625l1.3594 9.9062c0.0625 0.375 0.09375 0.73438 0.73438 0.73438 0.1875 0 0.59375 0 0.76562-0.4375 0.03125-0.10938 1.0156-4.4062 1.0938-5.3281h0.015625c0.078125 0.85938 1.0625 5.2188 1.1406 5.3906 0.1875 0.375 0.54688 0.375 0.73438 0.375 0.64062 0 0.6875-0.375 0.73438-0.71875l1.375-9.9219c0.125 0 0.67188 0 0.67188-0.54688z"/>
  </g>
  <g id="aj">
   <path d="m9.3906-11.016c0-0.54688-0.5-0.54688-0.76562-0.54688h-1.7812c-0.26562 0-0.76562 0-0.76562 0.54688s0.45312 0.54688 1.0156 0.54688l-1.5312 6.1094c-0.25 0.96875-0.5625 2.2969-0.6875 3.0781h-0.015625c-0.10938-0.75-0.3125-1.5312-0.5-2.3125l-1.7344-6.875c0.57812 0 1.0312 0 1.0312-0.54688s-0.51562-0.54688-0.78125-0.54688h-1.7812c-0.26562 0-0.75 0-0.75 0.54688s0.4375 0.54688 1 0.54688h0.015625l2.5156 9.9531c0.17188 0.6875 0.57812 0.6875 0.98438 0.6875 0.42188 0 0.79688 0 0.96875-0.64062l2.5312-10c0.59375 0 1.0312 0 1.0312-0.54688z"/>
  </g>
  <g id="ai">
   <path d="m9.5938-11.016c0-0.54688-0.51562-0.54688-0.78125-0.54688h-2.25c-0.26562 0-0.76562 0-0.76562 0.54688s0.5 0.54688 0.76562 0.54688h0.51562v6.5156c0 2.0625-1.2344 3.0781-2.2188 3.0781-1 0-2.2031-1.0312-2.2031-3.0781v-6.5156h0.5c0.26562 0 0.78125 0 0.78125-0.54688s-0.51562-0.54688-0.78125-0.54688h-2.25c-0.26562 0-0.78125 0-0.78125 0.54688s0.51562 0.54688 0.78125 0.54688h0.51562v6.625c0 2.2969 1.5625 4.0781 3.4375 4.0781s3.4531-1.7812 3.4531-4.0781v-6.625h0.5c0.26562 0 0.78125 0 0.78125-0.54688z"/>
  </g>
  <g id="ah">
   <path d="m9.6875-1.7656c0-0.375-0.17188-0.625-0.625-0.625-0.5625 0-0.60938 0.45312-0.60938 0.625 0 0.14062-0.046875 0.89062-0.39062 0.89062-0.51562 0-0.51562-0.82812-0.51562-1.9062 0-1.2812 0-1.4062-0.1875-1.875-0.25-0.54688-0.70312-0.92188-0.92188-1.0938 1.0312-0.60938 1.6094-1.625 1.6094-2.6562 0-1.5625-1.3906-3.1562-3.625-3.1562h-3.2031c-0.29688 0-0.76562 0-0.76562 0.54688s0.5 0.54688 0.76562 0.54688h0.40625v9.375h-0.40625c-0.26562 0-0.76562 0-0.76562 0.54688s0.46875 0.54688 0.76562 0.54688h2.0625c0.25 0 0.76562 0 0.76562-0.54688s-0.51562-0.54688-0.76562-0.54688h-0.42188v-4.1406h1.5c0.32812 0 0.92188 0 1.5312 0.51562 0.42188 0.40625 0.42188 0.84375 0.42188 1.6562 0 1.3281 0 1.875 0.35938 2.5156 0.3125 0.48438 0.79688 0.78125 1.3906 0.78125 1.25 0 1.625-1.3125 1.625-2zm-2.875-6.6406c0 0.9375-0.82812 2.0625-2.5781 2.0625h-1.375v-4.125h1.375c1.75 0 2.5781 1.1406 2.5781 2.0625z"/>
  </g>
  <g id="ag">
   <path d="m9.2188-0.54688c0-0.54688-0.4375-0.54688-1.0625-0.54688l-2.3281-10.047c-0.15625-0.6875-0.53125-0.6875-0.96875-0.6875-0.57812 0-0.8125 0.078125-0.9375 0.6875l-2.3438 10.047c-0.625 0-1.0625 0-1.0625 0.54688s0.5 0.54688 0.76562 0.54688h1.8281c0.26562 0 0.76562 0 0.76562-0.54688s-0.45312-0.54688-1.0312-0.54688l0.48438-2.125h3.0625l0.5 2.125c-0.59375 0-1.0469 0-1.0469 0.54688s0.51562 0.54688 0.78125 0.54688h1.8125c0.26562 0 0.78125 0 0.78125-0.54688zm-3.0625-3.7656h-2.5781c0.125-0.5625 1.1719-5.0312 1.2656-5.9375h0.015625c0.0625 0.42188 0.32812 1.6094 0.32812 1.6094z"/>
  </g>
  <g id="af">
   <path d="m8.1719-0.54688c0-0.54688-0.48438-0.54688-0.75-0.54688h-1.9375v-9.375h1.9375c0.26562 0 0.75 0 0.75-0.54688s-0.48438-0.54688-0.75-0.54688h-5.0938c-0.26562 0-0.75 0-0.75 0.54688s0.48438 0.54688 0.75 0.54688h1.9219v9.375h-1.9219c-0.26562 0-0.75 0-0.75 0.54688s0.48438 0.54688 0.75 0.54688h5.0938c0.26562 0 0.75 0 0.75-0.54688z"/>
  </g>
  <g id="ae">
   <path d="m9.0625-0.78125v-1.5469c0-0.32812 0-0.75-0.60938-0.75-0.625 0-0.625 0.40625-0.625 0.75v1.2344h-4.5469v-9.375h0.96875c0.26562 0 0.76562 0 0.76562-0.54688s-0.5-0.54688-0.76562-0.54688h-2.8281c-0.26562 0-0.78125 0-0.78125 0.54688s0.51562 0.54688 0.78125 0.54688h0.625v9.375h-0.625c-0.26562 0-0.78125 0-0.78125 0.54688s0.51562 0.54688 0.78125 0.54688h6.8906c0.625 0 0.75-0.17188 0.75-0.78125z"/>
  </g>
  <g id="ad">
   <path d="m9.4375-0.54688c0-0.54688-0.48438-0.54688-0.75-0.54688h-0.78125v-9.6875c0-0.59375-0.10938-0.78125-0.75-0.78125h-1.25c-0.26562 0-0.76562 0-0.76562 0.54688s0.5 0.54688 0.76562 0.54688h0.76562v3.1406c-0.29688-0.29688-1.0781-0.9375-2.2188-0.9375-2.0156 0-3.75 1.8125-3.75 4.2031 0 2.3281 1.625 4.1719 3.5781 4.1719 1.2188 0 2.0312-0.73438 2.3906-1.1562 0 0.79688 0 1.0469 0.76562 1.0469h1.25c0.26562 0 0.75 0 0.75-0.54688zm-2.7656-3.0469c0 1.0625-0.85938 2.6094-2.2812 2.6094-1.3594 0-2.4531-1.375-2.4531-3.0781 0-1.8281 1.2812-3.1094 2.625-3.1094 1.2344 0 2.1094 1.1094 2.1094 2.0938z"/>
  </g>
  <g id="h">
   <path d="m9.625-0.54688c0-0.54688-0.48438-0.54688-0.75-0.54688-0.5 0-0.875-0.046875-1.1406-0.15625v-4.125c0-1.4375-1.0781-2.9531-3.625-2.9531-0.79688 0-2.6406 0-2.6406 1.3125 0 0.5 0.35938 0.79688 0.78125 0.79688 0.10938 0 0.73438-0.046875 0.76562-0.84375 0-0.09375 0.015625-0.10938 0.40625-0.14062 0.23438-0.03125 0.46875-0.03125 0.70312-0.03125 0.4375 0 1.0781 0 1.7031 0.48438 0.6875 0.53125 0.6875 1.0469 0.6875 1.6094-1.125 0.03125-2.2188 0.10938-3.3906 0.48438-0.95312 0.32812-2.1562 1-2.1562 2.2969 0 1.3438 1.1875 2.4688 2.9531 2.4688 0.59375 0 1.7812-0.09375 2.75-0.76562 0.39062 0.625 1.3281 0.65625 2.0469 0.65625 0.45312 0 0.90625 0 0.90625-0.54688zm-3.1094-1.9531c0 0.4375 0 0.82812-0.78125 1.1875-0.65625 0.32812-1.5469 0.32812-1.6094 0.32812-1.1094 0-1.9375-0.60938-1.9375-1.375 0-1.125 2.0312-1.7656 4.3281-1.7656z"/>
  </g>
  <g id="ac">
   <path d="m9.0469-7.1562c0-0.8125-0.79688-1.1094-1.75-1.1094-1.2656 0-2.3438 0.5625-3.2031 1.625v-0.73438c0-0.59375-0.125-0.78125-0.76562-0.78125h-1.9062c-0.26562 0-0.76562 0-0.76562 0.54688s0.5 0.54688 0.76562 0.54688h1.4375v5.9688h-1.4375c-0.26562 0-0.76562 0-0.76562 0.54688s0.5 0.54688 0.76562 0.54688h4.6562c0.26562 0 0.75 0 0.75-0.54688s-0.48438-0.54688-0.75-0.54688h-1.9844v-2.4844c0-2.25 1.5781-3.5938 3.1875-3.5938 0.09375 0 0.21875 0 0.3125 0.015625 0.046875 0.6875 0.57812 0.73438 0.71875 0.73438 0.42188 0 0.73438-0.3125 0.73438-0.73438z"/>
  </g>
  <g id="ab">
   <path d="m9.4375-7.6094c0-0.54688-0.5-0.54688-0.76562-0.54688h-2.125c-0.26562 0-0.78125 0-0.78125 0.54688s0.51562 0.54688 0.78125 0.54688h0.89062l-0.95312 5.7812h-0.015625c-0.078125-0.5-0.375-1.5625-0.5625-2.1562-0.34375-1.2344-0.40625-1.4688-1.0312-1.4688-0.59375 0-0.67188 0.23438-1.0156 1.4375-0.375 1.2969-0.51562 1.8438-0.5625 2.1875h-0.015625l-0.98438-5.7812h0.875c0.26562 0 0.78125 0 0.78125-0.54688s-0.51562-0.54688-0.78125-0.54688h-2.1094c-0.26562 0-0.78125 0-0.78125 0.54688s0.46875 0.54688 0.9375 0.54688l1.125 6.4375c0.10938 0.65625 0.42188 0.71875 0.85938 0.71875 0.73438 0 0.76562-0.15625 1.1562-1.4531 0.15625-0.67188 0.46875-1.7031 0.51562-2.2188h0.03125c0.015625 0.25 0.10938 0.78125 0.5 2.2344 0.39062 1.2656 0.42188 1.4375 1.1406 1.4375 0.32812 0 0.70312 0 0.82812-0.70312l1.1406-6.4531c0.45312 0 0.92188 0 0.92188-0.54688z"/>
  </g>
  <g id="aa">
   <path d="m8.5469-0.54688c0-0.54688-0.48438-0.54688-0.75-0.54688h-2.3125v-9.6875c0-0.59375-0.10938-0.78125-0.75-0.78125h-2.7812c-0.26562 0-0.76562 0-0.76562 0.54688s0.5 0.54688 0.76562 0.54688h2.2969v9.375h-2.2969c-0.26562 0-0.76562 0-0.76562 0.54688s0.5 0.54688 0.76562 0.54688h5.8438c0.26562 0 0.75 0 0.75-0.54688z"/>
  </g>
  <clipPath id="bh">
   <path d="m0 0h1274.4v637h-1274.4z"/>
  </clipPath>
  <linearGradient id="s" x2="0" y1="25.004" y2="74.997" gradientTransform="matrix(25.492 0 0 -12.746 -637.38 955.92)" gradientUnits="userSpaceOnUse">
   <stop stop-color="#07121f" offset="0"/>
   <stop stop-color="#081320" offset=".015625"/>
   <stop stop-color="#081321" offset=".03125"/>
   <stop stop-color="#081421" offset=".046875"/>
   <stop stop-color="#081422" offset=".0625"/>
   <stop stop-color="#081423" offset=".078125"/>
   <stop stop-color="#081523" offset=".09375"/>
   <stop stop-color="#081524" offset=".10938"/>
   <stop stop-color="#081625" offset=".125"/>
   <stop stop-color="#091625" offset=".14062"/>
   <stop stop-color="#091726" offset=".15625"/>
   <stop stop-color="#091727" offset=".17188"/>
   <stop stop-color="#091827" offset=".1875"/>
   <stop stop-color="#091828" offset=".20312"/>
   <stop stop-color="#091829" offset=".21875"/>
   <stop stop-color="#091929" offset=".23438"/>
   <stop stop-color="#09192a" offset=".25"/>
   <stop stop-color="#0a1a2b" offset=".26562"/>
   <stop stop-color="#0a1a2c" offset=".28125"/>
   <stop stop-color="#0a1b2c" offset=".29688"/>
   <stop stop-color="#0a1b2d" offset=".3125"/>
   <stop stop-color="#0a1b2e" offset=".32812"/>
   <stop stop-color="#0a1c2e" offset=".34375"/>
   <stop stop-color="#0a1c2f" offset=".35938"/>
   <stop stop-color="#0a1d30" offset=".375"/>
   <stop stop-color="#0b1d30" offset=".39062"/>
   <stop stop-color="#0b1e31" offset=".40625"/>
   <stop stop-color="#0b1e32" offset=".42188"/>
   <stop stop-color="#0b1f32" offset=".4375"/>
   <stop stop-color="#0b1f33" offset=".45312"/>
   <stop stop-color="#0b1f34" offset=".46875"/>
   <stop stop-color="#0b2034" offset=".48438"/>
   <stop stop-color="#0b2035" offset=".5"/>
   <stop stop-color="#0c2136" offset=".51562"/>
   <stop stop-color="#0c2137" offset=".53125"/>
   <stop stop-color="#0c2237" offset=".54688"/>
   <stop stop-color="#0c2238" offset=".5625"/>
   <stop stop-color="#0c2239" offset=".57812"/>
   <stop stop-color="#0c2339" offset=".59375"/>
   <stop stop-color="#0c233a" offset=".60938"/>
   <stop stop-color="#0c243b" offset=".625"/>
   <stop stop-color="#0d243b" offset=".64062"/>
   <stop stop-color="#0d253c" offset=".65625"/>
   <stop stop-color="#0d253d" offset=".67188"/>
   <stop stop-color="#0d263d" offset=".6875"/>
   <stop stop-color="#0d263e" offset=".70312"/>
   <stop stop-color="#0d263f" offset=".71875"/>
   <stop stop-color="#0d273f" offset=".73438"/>
   <stop stop-color="#0d2740" offset=".75"/>
   <stop stop-color="#0e2841" offset=".76562"/>
   <stop stop-color="#0e2842" offset=".78125"/>
   <stop stop-color="#0e2942" offset=".79688"/>
   <stop stop-color="#0e2943" offset=".8125"/>
   <stop stop-color="#0e2944" offset=".82812"/>
   <stop stop-color="#0e2a44" offset=".84375"/>
   <stop stop-color="#0e2a45" offset=".85938"/>
   <stop stop-color="#0e2b46" offset=".875"/>
   <stop stop-color="#0f2b46" offset=".89062"/>
   <stop stop-color="#0f2c47" offset=".90625"/>
   <stop stop-color="#0f2c48" offset=".92188"/>
   <stop stop-color="#0f2d48" offset=".9375"/>
   <stop stop-color="#0f2d49" offset=".95312"/>
   <stop stop-color="#0f2d4a" offset=".96875"/>
   <stop stop-color="#0f2e4a" offset=".98438"/>
   <stop stop-color="#0f2e4b" offset="1"/>
  </linearGradient>
  <clipPath id="bg">
   <path d="m0 209h155v263h-155z"/>
  </clipPath>
  <clipPath id="bf">
   <path d="m-106.73 340.52c0-72.148 58.484-130.63 130.63-130.63 72.148 0 130.63 58.484 130.63 130.63 0 72.145-58.484 130.63-130.63 130.63-72.145 0-130.63-58.484-130.63-130.63z"/>
  </clipPath>
  <clipPath id="be">
   <path d="m1082 172h192.44v337h-192.44z"/>
  </clipPath>
  <clipPath id="bd">
   <path d="m1119 209h155.44v263h-155.44z"/>
  </clipPath>
  <clipPath id="bc">
   <path d="m1381.2 340.52c0-72.148-58.484-130.63-130.63-130.63-72.148 0-130.63 58.484-130.63 130.63 0 72.145 58.484 130.63 130.63 130.63 72.145 0 130.63-58.484 130.63-130.63z"/>
  </clipPath>
  <clipPath id="bb">
   <path d="m527 58h213v213h-213z"/>
  </clipPath>
  <clipPath id="ba">
   <path d="m739.48 164.29c0-58.621-47.516-106.14-106.14-106.14s-106.14 47.516-106.14 106.14 47.516 106.14 106.14 106.14 106.14-47.516 106.14-106.14z"/>
  </clipPath>
 </defs>
 <g clip-path="url(#bh)">
  <path d="m0 637.22v-637.22h1274.4v637.22z" fill="url(#s)"/>
 </g>
 <path transform="scale(.99939 -.99939)" d="m-109.99-340.73c0 73.952 59.947 133.9 133.9 133.9s133.9-59.951 133.9-133.9c0-73.952-59.951-133.9-133.9-133.9s-133.9 59.947-133.9 133.9z" fill="none" stroke="#1e6e86" stroke-miterlimit="10" stroke-opacity=".18" stroke-width="2.391"/>
 <g clip-path="url(#bg)">
  <g clip-path="url(#bf)">
   <path transform="scale(.99939 -.99939)" d="m157.81-289.72c-86.08-44.633-181.72-44.633-267.8 0m267.8-51.012c-86.08-44.633-181.72-44.633-267.8 0m267.8-51.008c-86.08-44.633-181.72-44.633-267.8 0m204.04 172.16c-31.883-105.21-31.883-137.09 0-242.29m-70.141 255.05c-25.504-117.96-25.504-149.84 0-267.8m-70.137 255.05c-19.129-105.21-19.129-137.09 0-242.29" fill="none" stroke="#1e6e86" stroke-miterlimit="10" stroke-opacity=".55" stroke-width=".99628"/>
  </g>
 </g>
 <g clip-path="url(#be)">
  <path transform="scale(.99939 -.99939)" d="m1385.2-340.73c0 73.952-59.947 133.9-133.9 133.9-73.952 0-133.9-59.951-133.9-133.9 0-73.952 59.951-133.9 133.9-133.9 73.952 0 133.9 59.947 133.9 133.9z" fill="none" stroke="#1e6e86" stroke-miterlimit="10" stroke-opacity=".18" stroke-width="2.391"/>
 </g>
 <g clip-path="url(#bd)">
  <g clip-path="url(#bc)">
   <path transform="scale(.99939 -.99939)" d="m1117.4-289.72c86.08-44.633 181.72-44.633 267.8 0m-267.8-51.012c86.08-44.633 181.72-44.633 267.8 0m-267.8-51.008c86.08-44.633 181.72-44.633 267.8 0m-204.04 172.16c31.883-105.21 31.883-137.09 0-242.29m70.141 255.05c25.504-117.96 25.504-149.84 0-267.8m70.137 255.05c19.129-105.21 19.129-137.09 0-242.29" fill="none" stroke="#1e6e86" stroke-miterlimit="10" stroke-opacity=".55" stroke-width=".99628"/>
  </g>
 </g>
 <path transform="scale(.99939 -.99939)" d="m742.53-164.39c0 60.088-48.706 108.79-108.79 108.79-60.088 0-108.79-48.706-108.79-108.79 0-60.088 48.706-108.79 108.79-108.79 60.088 0 108.79 48.706 108.79 108.79z" fill="none" stroke="#33b7df" stroke-miterlimit="10" stroke-width="2.391"/>
 <g clip-path="url(#bb)">
  <g clip-path="url(#ba)">
   <path transform="scale(.99939 -.99939)" d="m524.94-122.94c69.937-36.264 147.65-36.264 217.59 0m-217.59-41.443c69.937-36.264 147.65-36.264 217.59 0m-217.59-41.447c69.937-36.264 147.65-36.264 217.59 0m-165.78 139.88c25.903-85.478 25.903-111.38 0-196.86m56.988 207.22c20.724-95.84 20.724-121.75 0-217.59m56.988 207.22c15.541-85.478 15.541-111.38 0-196.86" fill="none" stroke="#33b7df" stroke-miterlimit="10" stroke-opacity=".55" stroke-width=".99628"/>
  </g>
 </g>
 <path transform="scale(.99939 -.99939)" d="m641.5-299.08c44.035-31.085 95.844-46.626 160.6-51.809m-181.33 25.907c46.626-36.268 108.8-56.988 176.14-67.35m-145.06 41.443c36.264-36.264 82.891-56.984 129.52-67.346" fill="none" stroke="#33b7df" stroke-miterlimit="10" stroke-opacity=".35" stroke-width="1.0959"/>
 <path d="m522.03 112.51c0-2.8594-2.3164-5.1797-5.1758-5.1797-2.8594 0-5.1797 2.3203-5.1797 5.1797s2.3203 5.1758 5.1797 5.1758c2.8594 0 5.1758-2.3164 5.1758-5.1758z" fill="#7cf0e5"/>
 <path d="m531.35 143.57c0-2.2852-1.8555-4.1406-4.1406-4.1406-2.2891 0-4.1445 1.8555-4.1445 4.1406 0 2.2891 1.8555 4.1445 4.1445 4.1445 2.2852 0 4.1406-1.8555 4.1406-4.1445z" fill="#7cf0e5" fill-opacity=".8"/>
 <path d="m517.89 169.46c0-2-1.625-3.6211-3.625-3.6211s-3.625 1.6211-3.625 3.6211c0 2.0039 1.625 3.625 3.625 3.625s3.625-1.6211 3.625-3.625z" fill="#7cf0e5" fill-opacity=".65"/>
 <path d="m537.82 187.58c0-3-2.4336-5.4336-5.4375-5.4336-3.0039 0-5.4375 2.4336-5.4375 5.4336 0 3.0039 2.4336 5.4375 5.4375 5.4375 3.0039 0 5.4375-2.4336 5.4375-5.4375z" fill="#7cf0e5"/>
 <path d="m525.91 213.47c0-2.1445-1.7383-3.8828-3.8828-3.8828-2.1445 0-3.8828 1.7383-3.8828 3.8828 0 2.1445 1.7383 3.8828 3.8828 3.8828 2.1445 0 3.8828-1.7383 3.8828-3.8828z" fill="#7cf0e5" fill-opacity=".7"/>
 <path d="m543.25 128.04c0-1.7148-1.3906-3.1055-3.1055-3.1055-1.7148 0-3.1055 1.3906-3.1055 3.1055 0 1.7148 1.3906 3.1055 3.1055 3.1055 1.7148 0 3.1055-1.3906 3.1055-3.1055z" fill="#7cf0e5" fill-opacity=".6"/>
 <path d="m551.02 164.29c0-3.1445-2.5508-5.6953-5.6953-5.6953-3.1484 0-5.6953 2.5508-5.6953 5.6953 0 3.1445 2.5469 5.6953 5.6953 5.6953 3.1445 0 5.6953-2.5508 5.6953-5.6953z" fill="#7cf0e5" fill-opacity=".85"/>
 <path d="m514.26 151.34c0-1.4297-1.1602-2.5859-2.5898-2.5859s-2.5859 1.1562-2.5859 2.5859c0 1.4297 1.1562 2.5898 2.5859 2.5898s2.5898-1.1602 2.5898-2.5898z" fill="#7cf0e5" fill-opacity=".5"/>
 <path transform="scale(.99939 -.99939)" d="m749.26-112.58c0 5.1516-4.1744 9.326-9.326 9.326-5.1477 0-9.3221-4.1744-9.3221-9.326 0-5.1477 4.1744-9.3221 9.3221-9.3221 5.1516 0 9.326 4.1744 9.326 9.3221z" fill="none" stroke="#2ad4d4" stroke-miterlimit="10" stroke-width="1.3948"/>
 <path d="m743.88 112.51c0-2.4336-1.9688-4.4023-4.4023-4.4023-2.4297 0-4.3984 1.9688-4.3984 4.4023 0 2.4297 1.9688 4.3984 4.3984 4.3984 2.4336 0 4.4023-1.9688 4.4023-4.3984z" fill="#7cf0e5"/>
 <g fill="#e5f2fa">
  <use x="408.908246" y="378.347986" xlink:href="#az"/>
  <use x="468.684961" y="378.347986" xlink:href="#k"/>
  <use x="524.615768" y="378.347986" xlink:href="#r"/>
  <use x="567.677162" y="378.347986" xlink:href="#k"/>
 </g>
 <g fill="#33b7df">
  <use x="623.607969" y="378.347986" xlink:href="#r"/>
  <use x="666.669363" y="378.347986" xlink:href="#ay"/>
  <use x="706.321642" y="378.347986" xlink:href="#k"/>
  <use x="758.949867" y="378.347986" xlink:href="#ax"/>
  <use x="838.265078" y="378.347986" xlink:href="#aw"/>
 </g>
 <path transform="scale(.99939 -.99939)" d="m527.03-403.49h221.17" fill="none" stroke="#33b7df" stroke-miterlimit="10" stroke-opacity=".45" stroke-width="1.594"/>
 <g fill="#9fc1d6">
  <use x="164.780952" y="444.061689" xlink:href="#c"/>
  <use x="173.036422" y="444.061689" xlink:href="#f"/>
  <use x="180.813282" y="444.061689" xlink:href="#i"/>
  <use x="190.985487" y="444.061689" xlink:href="#d"/>
  <use x="198.320375" y="444.061689" xlink:href="#a"/>
  <use x="208.646011" y="444.061689" xlink:href="#p"/>
  <use x="219.413618" y="444.061689" xlink:href="#b"/>
  <use x="228.983552" y="444.061689" xlink:href="#o"/>
  <use x="236.162719" y="444.061689" xlink:href="#c"/>
  <use x="244.41819" y="444.061689" xlink:href="#a"/>
  <use x="254.743826" y="444.061689" xlink:href="#n"/>
  <use x="261.323012" y="444.061689" xlink:href="#b"/>
  <use x="336.66191" y="444.061689" xlink:href="#a"/>
  <use x="346.392144" y="444.061689" xlink:href="#d"/>
  <use x="353.727032" y="444.061689" xlink:href="#m"/>
  <use x="363.296966" y="444.061689" xlink:href="#av"/>
  <use x="374.378304" y="444.061689" xlink:href="#j"/>
  <use x="379.475856" y="444.061689" xlink:href="#au"/>
  <use x="389.359521" y="444.061689" xlink:href="#b"/>
  <use x="464.698419" y="444.061689" xlink:href="#f"/>
  <use x="472.475278" y="444.061689" xlink:href="#d"/>
  <use x="479.810166" y="444.061689" xlink:href="#a"/>
  <use x="489.5404" y="444.061689" xlink:href="#at"/>
  <use x="504.210177" y="444.061689" xlink:href="#e"/>
  <use x="509.30773" y="444.061689" xlink:href="#j"/>
  <use x="514.405282" y="444.061689" xlink:href="#q"/>
  <use x="525.48662" y="444.061689" xlink:href="#p"/>
  <use x="602.023191" y="444.061689" xlink:href="#n"/>
  <use x="608.602377" y="444.061689" xlink:href="#i"/>
  <use x="618.774582" y="444.061689" xlink:href="#d"/>
  <use x="691.878434" y="444.061689" xlink:href="#d"/>
  <use x="699.213323" y="444.061689" xlink:href="#b"/>
  <use x="708.783256" y="444.061689" xlink:href="#c"/>
  <use x="717.038727" y="444.061689" xlink:href="#as"/>
  <use x="728.120065" y="444.061689" xlink:href="#ar"/>
  <use x="745.182897" y="444.061689" xlink:href="#a"/>
  <use x="755.508533" y="444.061689" xlink:href="#aq"/>
  <use x="766.58987" y="444.061689" xlink:href="#e"/>
  <use x="771.687423" y="444.061689" xlink:href="#b"/>
  <use x="847.026321" y="444.061689" xlink:href="#f"/>
  <use x="854.80318" y="444.061689" xlink:href="#b"/>
  <use x="864.373114" y="444.061689" xlink:href="#e"/>
  <use x="869.470667" y="444.061689" xlink:href="#b"/>
  <use x="879.0406" y="444.061689" xlink:href="#c"/>
  <use x="887.296071" y="444.061689" xlink:href="#m"/>
  <use x="896.866005" y="444.061689" xlink:href="#i"/>
  <use x="907.633612" y="444.061689" xlink:href="#ap"/>
  <use x="919.310351" y="444.061689" xlink:href="#b"/>
  <use x="928.880285" y="444.061689" xlink:href="#o"/>
  <use x="936.059453" y="444.061689" xlink:href="#ao"/>
  <use x="947.14079" y="444.061689" xlink:href="#a"/>
  <use x="957.466426" y="444.061689" xlink:href="#f"/>
  <use x="965.243285" y="444.061689" xlink:href="#a"/>
  <use x="1041.337885" y="444.061689" xlink:href="#a"/>
  <use x="1051.66352" y="444.061689" xlink:href="#q"/>
  <use x="1062.744858" y="444.061689" xlink:href="#a"/>
  <use x="1073.070494" y="444.061689" xlink:href="#e"/>
  <use x="1078.168046" y="444.061689" xlink:href="#an"/>
  <use x="1088.051711" y="444.061689" xlink:href="#c"/>
  <use x="1096.307182" y="444.061689" xlink:href="#j"/>
  <use x="1101.404734" y="444.061689" xlink:href="#c"/>
 </g>
 <g fill="#33b7df">
  <use x="500.933813" y="553.583527" xlink:href="#am"/>
  <use x="510.668707" y="553.583527" xlink:href="#al"/>
  <use x="520.4036" y="553.583527" xlink:href="#g"/>
  <use x="530.138494" y="553.583527" xlink:href="#z"/>
  <use x="539.873388" y="553.583527" xlink:href="#y"/>
  <use x="549.608282" y="553.583527" xlink:href="#x"/>
  <use x="559.343175" y="553.583527" xlink:href="#w"/>
  <use x="569.078069" y="553.583527" xlink:href="#v"/>
  <use x="578.812963" y="553.583527" xlink:href="#u"/>
  <use x="588.547856" y="553.583527" xlink:href="#t"/>
  <use x="598.28275" y="553.583527" xlink:href="#l"/>
  <use x="608.017644" y="553.583527" xlink:href="#ak"/>
  <use x="617.752537" y="553.583527" xlink:href="#aj"/>
  <use x="627.487431" y="553.583527" xlink:href="#ai"/>
  <use x="637.222325" y="553.583527" xlink:href="#ah"/>
  <use x="646.957218" y="553.583527" xlink:href="#ag"/>
  <use x="656.692112" y="553.583527" xlink:href="#af"/>
  <use x="666.427006" y="553.583527" xlink:href="#ae"/>
  <use x="676.161899" y="553.583527" xlink:href="#l"/>
  <use x="685.896793" y="553.583527" xlink:href="#ad"/>
  <use x="695.631687" y="553.583527" xlink:href="#h"/>
  <use x="705.366581" y="553.583527" xlink:href="#g"/>
  <use x="715.101474" y="553.583527" xlink:href="#h"/>
  <use x="724.836368" y="553.583527" xlink:href="#g"/>
  <use x="734.571262" y="553.583527" xlink:href="#ac"/>
  <use x="744.306155" y="553.583527" xlink:href="#h"/>
  <use x="754.041049" y="553.583527" xlink:href="#ab"/>
  <use x="763.775943" y="553.583527" xlink:href="#aa"/>
 </g>
</svg>
